SplineFontDB: 3.0
FontName: Dimock
FullName: Dimock
FamilyName: Dimock
Weight: Regular
Copyright: Copyright (c) 2018, Zach West
Version: 0.002
ItalicAngle: -9.5
UnderlinePosition: -100
UnderlineWidth: 50
Ascent: 800
Descent: 200
InvalidEm: 0
sfntRevision: 0x00000083
LayerCount: 2
Layer: 0 0 "Back" 1
Layer: 1 0 "Fore" 0
HasVMetrics: 1
XUID: [1021 209 259205530 3122]
StyleMap: 0x0040
FSType: 0
OS2Version: 4
OS2_WeightWidthSlopeOnly: 0
OS2_UseTypoMetrics: 0
CreationTime: 1537292998
ModificationTime: 1579800877
PfmFamily: 17
TTFWeight: 400
TTFWidth: 5
LineGap: 90
VLineGap: 0
Panose: 3 0 5 0 0 0 0 0 0 0
OS2TypoAscent: 800
OS2TypoAOffset: 0
OS2TypoDescent: -200
OS2TypoDOffset: 0
OS2TypoLinegap: 90
OS2WinAscent: 801
OS2WinAOffset: 0
OS2WinDescent: 190
OS2WinDOffset: 0
HheadAscent: 801
HheadAOffset: 0
HheadDescent: -190
HheadDOffset: 0
OS2SubXSize: 650
OS2SubYSize: 699
OS2SubXOff: 0
OS2SubYOff: 140
OS2SupXSize: 650
OS2SupYSize: 699
OS2SupXOff: 0
OS2SupYOff: 479
OS2StrikeYSize: 49
OS2StrikeYPos: 258
OS2CapHeight: 782
OS2XHeight: 556
OS2Vendor: 'PfEd'
OS2CodePages: 00000000.00000000
OS2UnicodeRanges: 00000001.00000000.00000000.00000000
MarkAttachClasses: 1
DEI: 91125
LangName: 1033 "" "" "" "FontForge 2.0 : Dimock : 25-4-2019"
MATH:ScriptPercentScaleDown: 80
MATH:ScriptScriptPercentScaleDown: 60
MATH:DelimitedSubFormulaMinHeight: 1500
MATH:DisplayOperatorMinHeight: 0
MATH:MathLeading: 0 
MATH:AxisHeight: 0 
MATH:AccentBaseHeight: 530 
MATH:FlattenedAccentBaseHeight: 791 
MATH:SubscriptShiftDown: 140 
MATH:SubscriptTopMax: 530 
MATH:SubscriptBaselineDropMin: 0 
MATH:SuperscriptShiftUp: 479 
MATH:SuperscriptShiftUpCramped: 0 
MATH:SuperscriptBottomMin: 530 
MATH:SuperscriptBaselineDropMax: 0 
MATH:SubSuperscriptGapMin: 200 
MATH:SuperscriptBottomMaxWithSubscript: 530 
MATH:SpaceAfterScript: 41 
MATH:UpperLimitGapMin: 0 
MATH:UpperLimitBaselineRiseMin: 0 
MATH:LowerLimitGapMin: 0 
MATH:LowerLimitBaselineDropMin: 0 
MATH:StackTopShiftUp: 0 
MATH:StackTopDisplayStyleShiftUp: 0 

StartChar: .notdef
Encoding: 256 -1 0
Width: 411
Flags: HMW
HStem: 0 50<60 360 60 410> 483 50<60 360 60 60>
VStem: 10 50<50 50 50 483> 360 50<50 483 483 483>
LayerCount: 2
Fore
SplineSet
10 0 m 1
 10 533 l 1
 410 533 l 1
 410 0 l 1
 10 0 l 1
60 50 m 1
 360 50 l 1
 360 483 l 1
 60 483 l 1
 60 50 l 1
EndSplineSet
Validated: 1
EndChar

StartChar: zero
Encoding: 48 48 1
Width: 674
Flags: HMW
HStem: 375 60 666 81
VStem: 20.1052 66 275.105 66
LayerCount: 2
Fore
SplineSet
305 435 m 0
 308 436 311 436 314 436 c 0
 326 436 339 430 341 417 c 0
 341 416 341 414 341 413 c 0
 341 394 330 379 311 375 c 0
 309 375 307 374 305 374 c 0
 290 374 277 386 275 402 c 0
 275 403 275 404 275 405 c 0
 275 420 289 431 305 435 c 0
443 666 m 0
 394 663 366 653 323 630 c 0
 273 604 233 563 209 543 c 0
 180 520 158 511 137 480 c 0
 114 446 108 422 98 381 c 0
 88 339 87 313 86 270 c 0
 86 242 90 226 95 198 c 0
 100 170 93 149 110 126 c 0
 131 97 151 84 185 75 c 0
 204 70 220 67 235 67 c 0
 254 67 271 71 293 78 c 0
 331 90 346 110 377 135 c 0
 416 167 413 156 473 222 c 0
 506 259 520 283 548 324 c 0
 561 344 574 354 578 378 c 0
 582 402 584 422 584 441 c 0
 584 458 582 475 577 496 c 0
 567 536 567 565 541 601 c 0
 525 623 511 625 488 639 c 0
 471 650 464 666 445 666 c 0
 444 666 444 666 443 666 c 0
458 747 m 0
 507 746 532 694 569 651 c 0
 606 607 627 574 643 524 c 0
 651 499 654 477 654 455 c 0
 654 399 631 350 599 291 c 0
 572 240 537 198 488 147 c 0
 446 104 407 86 353 51 c 0
 327 34 312 17 281 15 c 0
 274 14 268 14 262 14 c 0
 226 14 200 24 161 36 c 0
 128 46 105 52 83 78 c 0
 53 112 48 140 32 183 c 0
 24 204 20 218 20 238 c 0
 20 242 20 245 20 249 c 0
 24 308 29 342 47 399 c 0
 60 438 76 457 98 492 c 0
 123 531 136 554 167 588 c 0
 192 616 211 628 242 648 c 0
 279 672 301 683 341 702 c 0
 376 719 392 729 428 743 c 0
 437 747 449 747 458 747 c 0
EndSplineSet
Validated: 1
EndChar

StartChar: one
Encoding: 49 49 2
Width: 205
Flags: HMW
VStem: 5.8149 60<112 127.5>
LayerCount: 2
Fore
SplineSet
164 736 m 0
 167 745 166 754 174 760 c 0
 180 765 187 763 194 760 c 0
 208 755 223 754 226 740 c 0
 226 738 226 737 226 735 c 0
 226 719 212 710 206 694 c 0
 196 667 189 652 182 624 c 0
 180 618 180 612 180 607 c 0
 180 603 180 599 180 596 c 0
 180 590 180 583 178 576 c 0
 174 562 165 557 160 544 c 0
 153 524 152 512 146 492 c 2
 110 366 l 2
 100 332 93 313 86 278 c 0
 79 242 79 221 74 184 c 0
 71 166 67 156 66 138 c 0
 65 129 65 121 65 114 c 0
 65 104 65 95 66 82 c 0
 66 73 63 67 70 60 c 0
 78 52 90 60 96 52 c 0
 102 44 96 37 94 28 c 0
 92 21 92 14 86 12 c 0
 81 10 77 10 73 10 c 0
 66 10 60 12 54 16 c 0
 40 26 38 38 30 52 c 0
 24 63 20 70 16 82 c 0
 11 96 6 104 6 120 c 0
 6 135 13 143 14 158 c 0
 14 162 14 166 14 170 c 0
 14 188 11 202 11 220 c 0
 11 224 12 228 12 232 c 0
 13 248 18 256 22 272 c 0
 25 284 26 290 30 302 c 0
 38 325 45 336 52 360 c 0
 58 382 56 396 62 418 c 0
 69 443 78 456 86 480 c 0
 95 505 97 519 106 544 c 0
 113 565 121 575 126 596 c 0
 127 601 127 606 127 611 c 0
 127 616 127 620 127 625 c 0
 127 631 127 637 130 644 c 0
 134 657 147 659 152 672 c 0
 158 687 155 698 158 714 c 0
 160 723 161 728 164 736 c 0
EndSplineSet
Validated: 1
EndChar

StartChar: glyph16
Encoding: 50 50 3
Width: 585
Flags: W
HStem: 14 21G<37.5 47> 156 40<279.243 429.378> 731 46<407.828 529.854>
VStem: 542 63<629.82 724.247>
LayerCount: 2
Fore
SplineSet
154 609 m 0
 198 650 232 663 283 696 c 0
 325 723 347 745 394 762 c 0
 428 774 452 777 485 777 c 0
 491 777 498 777 505 777 c 0
 538 776 560 777 586 756 c 0
 600 745 605 730 605 713 c 0
 605 708 605 702 604 696 c 0
 596 646 581 620 556 576 c 0
 528 526 506 500 469 456 c 0
 380 350 319 308 233 200 c 0
 227 192 231 172 239 176 c 0
 259 187 274 188 291 188 c 0
 295 188 299 188 303 188 c 0
 314 188 327 189 343 192 c 0
 355 195 367 196 377 196 c 0
 401 196 422 190 451 183 c 0
 466 179 475 172 484 159 c 0
 495 145 502 134 502 117 c 0
 502 115 502 113 502 111 c 0
 501 99 489 90 478 93 c 0
 459 99 459 119 442 129 c 0
 417 144 402 154 373 156 c 0
 370 156 368 156 365 156 c 0
 335 156 317 145 286 138 c 0
 249 129 228 125 193 111 c 0
 162 98 147 85 118 69 c 0
 68 42 82 30 52 15 c 0
 50 14 48 14 46 14 c 0
 29 14 4 38 4 55 c 0
 4 55 4 56 4 57 c 0
 10 96 55 92 85 120 c 0
 110 143 118 162 142 186 c 0
 170 214 191 224 220 252 c 0
 253 284 270 304 301 339 c 0
 333 375 350 396 382 432 c 0
 416 471 438 489 469 531 c 0
 487 555 488 574 505 600 c 0
 518 620 516 628 535 651 c 0
 540 657 542 664 542 672 c 0
 542 687 536 704 530 721 c 0
 527 728 517 731 504 731 c 0
 487 731 467 726 458 724 c 0
 423 715 413 713 380 697 c 0
 355 685 342 675 319 660 c 0
 293 643 274 640 250 621 c 0
 229 605 230 580 205 570 c 0
 202 569 200 569 197 569 c 0
 185 569 177 580 166 588 c 0
 159 594 147 603 154 609 c 0
EndSplineSet
Validated: 1
EndChar

StartChar: glyph18
Encoding: 51 51 4
Width: 473
Flags: HMW
HStem: 738 46<245.599 265.599>
VStem: 302.599 56
LayerCount: 2
Fore
SplineSet
31 796 m 0
 36 797 41 797 45 797 c 0
 80 797 104 782 143 780 c 0
 150 780 156 780 163 780 c 0
 201 780 228 784 271 784 c 0
 302 784 320 781 351 778 c 0
 382 774 400 771 431 766 c 0
 436 765 440 765 445 765 c 0
 448 765 451 765 455 765 c 0
 465 765 475 764 485 756 c 0
 491 750 493 744 493 736 c 0
 493 730 492 723 491 716 c 0
 488 700 482 691 471 678 c 0
 452 654 438 642 415 622 c 0
 384 595 366 581 333 558 c 0
 310 542 296 533 271 520 c 0
 243 506 225 502 197 488 c 0
 182 481 171 479 159 466 c 0
 154 461 154 453 159 448 c 0
 172 434 183 433 199 422 c 0
 221 407 233 398 255 382 c 0
 274 369 286 364 303 348 c 0
 318 334 325 323 335 306 c 0
 344 291 347 281 351 264 c 0
 356 242 358 229 359 206 c 0
 359 200 359 195 359 190 c 0
 359 181 358 173 355 164 c 0
 348 148 339 142 327 128 c 0
 312 110 304 100 287 84 c 0
 269 67 260 57 239 44 c 0
 226 36 218 32 203 30 c 0
 189 28 179 27 169 27 c 0
 159 27 150 28 139 30 c 0
 122 33 114 38 99 46 c 0
 84 53 76 58 63 68 c 0
 53 76 46 79 39 90 c 0
 29 105 27 116 21 132 c 0
 15 150 9 159 7 178 c 0
 6 185 5 191 5 198 c 0
 5 204 6 210 13 214 c 0
 22 220 32 224 41 224 c 0
 48 224 55 222 63 218 c 0
 73 212 58 200 59 188 c 0
 61 171 64 161 71 146 c 0
 78 131 83 122 95 110 c 0
 105 100 111 94 125 90 c 0
 131 88 137 87 143 87 c 0
 152 87 160 89 171 90 c 0
 188 92 199 92 215 100 c 0
 236 110 246 118 263 134 c 0
 276 147 283 155 291 172 c 0
 299 189 301 199 303 218 c 0
 303 224 304 229 304 234 c 0
 304 245 302 254 299 266 c 0
 295 281 289 288 279 300 c 0
 265 317 256 325 239 340 c 0
 222 355 211 361 193 374 c 0
 170 391 161 406 135 418 c 0
 129 421 124 421 119 421 c 0
 113 421 107 420 100 420 c 0
 96 420 91 420 87 422 c 0
 75 426 67 432 63 444 c 0
 61 450 60 455 60 460 c 0
 60 467 62 473 67 478 c 0
 85 496 104 496 127 508 c 0
 154 522 168 531 195 546 c 0
 216 558 228 566 249 578 c 0
 273 592 288 598 311 614 c 0
 332 629 341 640 361 656 c 0
 372 665 378 669 391 676 c 0
 404 683 416 679 427 690 c 0
 434 697 437 708 431 716 c 0
 422 728 410 728 395 730 c 0
 383 732 374 732 365 732 c 0
 357 732 348 732 339 732 c 0
 335 732 331 732 327 732 c 0
 297 734 281 738 251 738 c 0
 223 738 207 733 179 732 c 0
 168 732 158 732 150 732 c 0
 126 732 106 733 77 734 c 0
 64 735 54 733 43 740 c 0
 33 746 29 755 27 766 c 0
 25 778 19 795 31 796 c 0
EndSplineSet
Validated: 1
EndChar

StartChar: four
Encoding: 52 52 5
Width: 483
Flags: HMW
HStem: 404 72
VStem: 262.478 67
LayerCount: 2
Fore
SplineSet
237 657 m 0
 227 631 212 620 197 596 c 0
 178 564 170 544 151 512 c 0
 135 485 123 471 107 444 c 0
 98 429 94 420 87 404 c 0
 74 374 71 356 57 326 c 0
 51 314 44 308 41 296 c 0
 39 288 40 280 43 276 c 0
 45 273 63 266 73 272 c 0
 87 280 96 284 111 294 c 0
 133 309 148 317 171 330 c 0
 186 338 194 341 209 350 c 0
 226 360 235 367 251 378 c 0
 271 391 282 401 303 412 c 0
 308 414 313 415 317 415 c 0
 319 415 320 414 321 414 c 0
 327 414 332 415 335 420 c 0
 351 443 347 461 355 488 c 0
 364 517 370 533 379 562 c 0
 387 586 392 600 399 624 c 0
 407 650 411 664 417 690 c 0
 423 717 417 736 431 760 c 0
 441 778 456 782 475 788 c 0
 484 791 493 788 499 780 c 0
 505 772 505 763 501 754 c 0
 497 745 486 747 481 738 c 0
 471 718 472 705 465 684 c 0
 458 662 457 651 451 629 c 0
 444 602 441 584 433 558 c 0
 423 527 410 511 401 480 c 0
 399 475 400 467 405 466 c 0
 406 466 407 466 407 466 c 0
 420 466 426 475 439 476 c 0
 449 477 461 479 463 470 c 0
 465 463 466 456 466 450 c 0
 466 437 463 426 457 412 c 0
 454 404 446 404 437 404 c 4
 437 404 437 404 436 404 c 4
 424 404 413 414 403 414 c 0
 400 414 397 413 393 410 c 0
 373 393 377 373 371 348 c 0
 359 303 355 276 347 230 c 0
 339 184 333 158 329 112 c 0
 329 106 329 101 329 95 c 0
 329 84 330 73 330 62 c 0
 330 58 330 55 329 52 c 0
 328 34 322 20 305 12 c 0
 294 7 286 19 279 28 c 0
 269 41 262 57 262 70 c 0
 262 98 273 114 280 142 c 0
 290 185 286 209 294 253 c 0
 301 291 319 335 319 352 c 0
 319 357 318 359 315 360 c 0
 314 360 312 361 310 361 c 0
 300 361 296 352 283 341 c 0
 254 317 235 316 203 296 c 0
 165 273 145 257 103 242 c 0
 89 236 77 235 65 235 c 0
 57 235 49 236 39 236 c 0
 30 236 25 240 17 246 c 0
 12 250 8 254 7 260 c 0
 5 273 4 283 4 293 c 0
 4 300 4 307 5 316 c 0
 7 334 12 344 19 360 c 0
 29 384 37 397 49 420 c 2
 77 476 l 2
 89 500 95 514 109 536 c 0
 125 561 138 573 153 598 c 0
 163 614 163 626 173 642 c 0
 183 657 188 667 203 676 c 0
 211 681 219 681 227 676 c 0
 235 671 240 666 237 657 c 0
EndSplineSet
Validated: 1
EndChar

StartChar: five
Encoding: 53 53 6
Width: 468
Flags: HMW
HStem: 726 48<285.219 349.219 329.719 349.219 329.719 349.719>
LayerCount: 2
Fore
SplineSet
143 720 m 0
 142 722 142 724 142 726 c 0
 142 736 150 745 160 750 c 0
 182 761 198 758 222 762 c 0
 248 766 262 769 288 772 c 0
 308 774 320 774 340 774 c 0
 359 774 369 773 388 770 c 0
 416 765 437 769 460 752 c 0
 477 739 488 724 488 703 c 0
 488 700 488 697 488 694 c 0
 487 687 479 685 471 685 c 0
 462 685 452 687 445 689 c 0
 428 694 424 705 407 710 c 0
 384 717 373 723 350 726 c 0
 342 727 336 727 331 727 c 0
 320 727 311 726 297 726 c 0
 284 726 275 729 266 729 c 0
 259 729 252 727 245 719 c 0
 229 702 236 689 232 666 c 0
 228 645 221 634 214 614 c 0
 206 590 202 576 192 552 c 0
 184 533 175 524 168 504 c 0
 164 494 156 483 156 475 c 0
 156 472 158 468 162 466 c 0
 165 464 168 463 171 463 c 0
 184 463 194 477 210 480 c 0
 219 482 225 483 232 483 c 0
 236 483 241 482 246 482 c 0
 260 481 269 482 282 476 c 0
 298 468 304 459 316 446 c 0
 332 428 341 418 352 396 c 0
 360 379 362 368 364 348 c 0
 364 341 365 336 365 330 c 0
 365 319 364 309 364 296 c 0
 364 283 365 273 365 262 c 0
 365 256 365 251 364 244 c 0
 360 220 354 206 346 184 c 0
 334 153 328 135 312 106 c 0
 300 84 293 72 276 54 c 0
 262 39 252 30 234 22 c 0
 222 17 213 15 202 15 c 0
 198 15 193 15 188 16 c 0
 165 18 154 26 132 32 c 0
 116 37 106 41 90 44 c 0
 73 47 63 48 46 48 c 0
 36 48 28 44 21 44 c 0
 18 44 15 44 12 46 c 0
 6 49 3 59 3 68 c 0
 3 72 3 76 5 78 c 0
 12 89 25 86 38 88 c 0
 45 89 51 90 58 90 c 0
 66 90 75 89 85 87 c 0
 103 84 114 81 132 79 c 0
 151 77 159 68 178 68 c 0
 192 68 202 68 214 76 c 0
 228 85 232 95 242 108 c 0
 254 124 261 133 270 150 c 0
 280 170 283 183 290 204 c 0
 298 227 305 240 308 264 c 0
 309 275 310 284 310 293 c 0
 310 305 309 315 306 330 c 0
 301 355 294 369 284 392 c 0
 278 406 278 420 264 426 c 0
 256 430 248 431 241 431 c 0
 231 431 221 429 210 426 c 0
 187 420 176 411 154 400 c 0
 137 392 130 383 112 378 c 0
 103 376 96 373 90 373 c 0
 85 373 80 374 76 378 c 0
 68 384 61 394 61 403 c 0
 61 407 62 411 65 414 c 0
 82 440 90 458 105 486 c 0
 118 510 126 523 137 548 c 0
 145 567 147 578 154 598 c 0
 160 616 166 625 170 644 c 0
 172 654 173 662 173 670 c 0
 173 677 172 684 169 693 c 0
 163 708 148 704 143 720 c 0
EndSplineSet
Validated: 1
EndChar

StartChar: glyph17
Encoding: 54 54 7
Width: 330
Flags: HMW
VStem: 5.6079 52<134.5 161>
LayerCount: 2
Fore
SplineSet
212 390 m 0
 206 391 200 391 195 391 c 0
 182 391 170 388 160 378 c 0
 142 361 148 341 138 318 c 0
 132 304 122 299 118 284 c 0
 113 264 115 252 114 232 c 0
 113 230 113 228 113 226 c 0
 113 219 114 213 114 206 c 0
 114 203 114 200 114 196 c 0
 113 190 111 179 106 182 c 0
 88 191 90 219 71 219 c 4
 70 219 70 219 70 219 c 0
 59 218 58 208 58 197 c 0
 58 195 58 192 58 190 c 0
 58 187 58 183 58 180 c 0
 56 171 56 165 56 158 c 0
 56 150 57 142 58 132 c 0
 59 122 61 117 64 108 c 0
 67 99 66 92 74 86 c 0
 87 76 96 71 112 68 c 0
 130 65 143 63 159 63 c 0
 166 63 173 63 182 64 c 0
 203 66 216 67 234 78 c 0
 252 89 259 100 270 118 c 0
 281 137 286 150 290 172 c 0
 291 180 292 187 292 194 c 0
 292 205 290 216 288 230 c 0
 284 255 278 268 270 292 c 0
 264 310 258 319 250 336 c 0
 243 350 241 359 232 372 c 0
 226 381 222 389 212 390 c 0
288 770 m 0
 294 777 303 778 312 776 c 0
 321 774 328 771 332 762 c 0
 334 756 336 750 336 744 c 0
 336 740 335 735 334 730 c 0
 329 709 321 700 312 680 c 0
 301 656 296 641 282 618 c 0
 275 606 265 603 258 592 c 0
 245 571 243 558 232 536 c 0
 220 513 214 500 200 478 c 0
 194 469 187 467 182 458 c 0
 177 450 168 441 174 434 c 0
 185 422 198 428 214 422 c 0
 228 416 237 413 248 404 c 0
 265 390 274 381 286 362 c 0
 304 333 310 315 322 284 c 0
 330 263 334 250 338 228 c 0
 341 210 342 198 342 184 c 0
 342 178 342 172 342 166 c 0
 341 144 338 132 330 112 c 0
 322 93 316 83 302 68 c 0
 286 52 275 44 254 34 c 0
 231 23 217 19 192 16 c 0
 178 14 167 13 156 13 c 0
 144 13 132 14 116 16 c 0
 98 18 87 20 70 28 c 0
 57 34 52 41 42 52 c 0
 30 65 22 72 16 88 c 0
 8 109 6 123 6 146 c 0
 6 176 9 192 14 222 c 0
 18 245 21 258 30 280 c 0
 39 304 48 315 60 338 c 0
 76 369 85 387 102 418 c 0
 120 450 130 468 148 500 c 0
 164 528 175 542 190 570 c 0
 205 597 210 615 224 642 c 0
 240 672 253 687 268 718 c 0
 278 737 275 753 288 770 c 0
EndSplineSet
Validated: 1
EndChar

StartChar: seven
Encoding: 55 55 8
Width: 582
Flags: HMW
HStem: 620 56 712 62
LayerCount: 2
Fore
SplineSet
37.734375 692 m 0
 67.734375 692 81.734375 678 111.734375 676 c 0
 122.734375 675 132.734375 675 141.734375 675 c 0
 145.734375 675 149.921875 674.9375 154.1875 674.9375 c 0
 166.984375 674.9375 180.484375 675.5 191.734375 680 c 0
 216.734375 690 234.734375 698 243.734375 700 c 0
 259.734375 703 272.734375 705 291.734375 710 c 0
 316.734375 717 330.734375 722 355.734375 730 c 0
 378.734375 737 392.734375 743 415.734375 748 c 0
 448.734375 756 467.734375 759 501.734375 764 c 0
 527.734375 768 544.734375 774 568.734375 774 c 0
 572.734375 774 575.734375 774 579.734375 774 c 0
 590.734375 773 599.734375 767 601.734375 756 c 0
 601.734375 754 601.734375 753 601.734375 752 c 0
 601.734375 738 593.734375 730 587.734375 716 c 0
 571.734375 683 563.734375 664 543.734375 634 c 0
 522.734375 603 507.734375 588 483.734375 560 c 0
 448.734375 518 444.734375 502 413.734375 458 c 0
 398.734375 438 380.734375 416 365.734375 396 c 0
 349.734375 375 348.734375 372 330.734375 352 c 0
 312.734375 331 295.734375 312 275.734375 292 c 2
 243.734375 260 l 2
 181.734375 194 146.734375 157 85.734375 90 c 0
 79.734375 83 79.734375 73 77.734375 64 c 0
 74.734375 50 103.734375 45 91.734375 39 c 0
 81.734375 34 74.734375 32 67.734375 32 c 0
 55.734375 32 44.734375 38 25.734375 40 c 0
 16.734375 41 15.734375 50 11.734375 58 c 0
 7.734375 67 0.734375 75 5.734375 84 c 0
 24.734375 116 45.734375 126 69.734375 154 c 0
 116.734375 207 137.734375 242 187.734375 292 c 0
 195.734375 300 200.734375 307 208.734375 315 c 0
 249.734375 355 268.734375 375 303.734375 420 c 0
 314.734375 434 315.734375 443 325.734375 456 c 0
 396.734375 551 447.734375 596 517.734375 692 c 0
 522.734375 698 521.734375 712 513.734375 712 c 0
 510.734375 712 507.734375 712 505.734375 712 c 0
 479.734375 712 462.734375 703 435.734375 696 c 0
 375.734375 680 343.734375 666 283.734375 652 c 0
 255.734375 645 239.734375 647 211.734375 642 c 0
 173.734375 635 153.734375 623 115.734375 620 c 0
 112.734375 620 109.734375 620 106.734375 620 c 0
 89.734375 620 78.734375 625 59.734375 630 c 0
 44.734375 634 33.734375 634 23.734375 646 c 0
 16.734375 655 17.734375 664 21.734375 676 c 0
 24.734375 684 28.734375 692 37.734375 692 c 0
EndSplineSet
Validated: 1
EndChar

StartChar: eight
Encoding: 56 56 9
Width: 450
Flags: HMW
HStem: 600 44 610 42<321.115 327.115 298.615 341.115>
VStem: 58.6154 33 138.615 52<364 400.5> 229.615 49
LayerCount: 2
Fore
SplineSet
151 344 m 0x38
 125 334 123 318 105 296 c 0
 98 287 94 282 91 270 c 0
 87 255 82 249 75 235 c 0
 71 227 66 223 65 214 c 0
 64 206 64 200 64 193 c 0
 64 176 66 162 73 142 c 0
 79 123 90 115 103 100 c 0
 118 83 126 73 145 60 c 0
 158 51 168 49 183 44 c 0
 190 42 196 38 203 42 c 0
 219 52 220 59 228 76 c 0
 231 82 232 87 232 93 c 0
 232 99 230 106 230 115 c 0
 229 131 225 138 224 154 c 0
 224 155 223 157 223 158 c 0
 223 167 226 175 226 183 c 0
 226 187 225 190 225 193 c 0
 220 215 213 216 203 237 c 0
 196 252 196 269 189 284 c 0
 181 301 181 312 171 328 c 0
 166 336 160 347 151 344 c 0x38
175 420 m 0
 213 425 227 451 259 472 c 0
 281 487 294 495 315 512 c 0
 336 529 346 541 367 558 c 0
 377 566 384 569 395 576 c 0
 402 581 411 582 413 590 c 0
 414 596 407 599 401 600 c 0
 397 601 395 601 392 601 c 0
 385 601 380 600 373 600 c 0
 371 600 369 600 367 600 c 0xb8
 354 602 348 610 335 610 c 0x78
 308 610 294 603 267 600 c 0xb8
 246 598 234 598 213 596 c 0
 191 594 179 595 157 592 c 0
 155 592 153 592 151 592 c 0
 144 592 137 593 131 593 c 0
 123 593 117 591 113 584 c 0
 110 580 109 576 109 572 c 0
 109 560 119 549 123 534 c 0
 127 520 130 512 135 498 c 0
 140 482 141 473 149 458 c 0
 156 443 157 420 173 420 c 0
 173 420 174 420 175 420 c 0
99 636 m 0
 108 634 112 633 116 633 c 0
 121 633 124 635 140 639 c 0
 148 641 149 647 147 656 c 0
 142 682 148 699 135 722 c 0
 130 732 116 737 107 730 c 0
 95 720 92 706 92 690 c 0
 92 688 92 687 92 685 c 0
 92 676 91 665 91 656 c 0
 91 646 92 638 99 636 c 0
169 640 m 0
 169 638 173 637 179 637 c 0
 195 637 227 642 249 644 c 0xb8
 273 646 287 652 311 652 c 0x78
 344 652 362 647 395 644 c 0
 408 643 417 645 429 640 c 0
 443 634 456 628 465 616 c 0
 468 611 469 606 469 600 c 0
 469 592 466 582 462 574 c 0
 450 551 434 544 415 526 c 0
 395 507 380 502 357 486 c 0
 339 474 328 467 311 454 c 0
 295 442 288 433 271 422 c 0
 256 413 246 412 231 404 c 0
 221 399 215 395 207 388 c 0
 200 382 191 380 191 372 c 0
 191 356 200 349 207 334 c 0
 219 310 227 297 239 274 c 0
 251 253 260 243 269 220 c 0
 276 202 278 191 279 172 c 0
 279 168 279 165 279 162 c 0
 279 141 276 127 275 104 c 0
 275 103 275 101 275 100 c 0
 275 88 276 78 276 68 c 0
 276 60 275 52 271 44 c 0
 261 25 245 20 225 12 c 0
 217 9 211 8 204 8 c 0
 197 8 191 9 183 10 c 0
 161 13 149 15 129 24 c 0
 112 32 104 39 91 52 c 0
 75 67 66 77 55 96 c 0
 44 113 42 124 35 144 c 0
 28 164 24 176 21 196 c 0
 20 201 19 206 19 211 c 0
 19 217 20 223 23 230 c 0
 29 251 36 261 47 280 c 0
 56 295 62 303 73 316 c 0
 85 331 92 339 105 352 c 0
 113 360 119 363 127 372 c 0
 133 380 139 384 139 394 c 0
 139 407 126 408 120 420 c 0
 111 438 106 448 98 466 c 0
 91 481 92 494 87 510 c 0
 79 538 87 559 71 584 c 0
 66 593 56 579 47 574 c 0
 42 571 35 557 29 558 c 0
 21 559 22 569 18 576 c 0
 11 586 4 593 4 605 c 0
 4 606 4 606 4 607 c 0
 5 617 22 616 31 620 c 0
 40 624 50 620 55 628 c 0
 58 635 59 640 59 646 c 0
 59 651 58 657 58 663 c 0
 58 665 59 666 59 668 c 0
 60 687 60 697 61 716 c 0
 62 729 60 738 65 750 c 0
 70 762 75 771 87 776 c 0
 95 780 102 781 109 781 c 0
 117 781 125 779 135 774 c 0
 150 767 151 757 159 742 c 0
 164 732 162 736 164 725 c 0
 168 703 169 680 169 659 c 0
 169 652 169 646 169 640 c 0
EndSplineSet
Validated: 1
EndChar

StartChar: nine
Encoding: 57 57 10
Width: 345
Flags: HMW
VStem: 7.1017 52 189.102 48
LayerCount: 2
Fore
SplineSet
237 740 m 0
 221 733 213 725 199 714 c 0
 182 701 172 694 157 680 c 0
 140 664 130 655 117 636 c 0
 103 617 99 603 89 582 c 0
 80 564 73 554 67 534 c 0
 62 518 59 508 59 494 c 0
 59 491 59 488 59 484 c 0
 60 474 63 462 73 462 c 0
 93 463 100 476 117 486 c 0
 133 496 143 499 157 512 c 0
 175 529 183 541 199 560 c 0
 214 579 222 590 237 610 c 0
 246 622 251 630 259 642 c 0
 266 653 273 657 277 670 c 0
 280 683 283 692 283 703 c 0
 283 708 282 714 281 720 c 0
 280 731 276 740 267 744 c 0
 256 749 248 745 237 740 c 0
237 116 m 0
 237 106 241 102 247 94 c 0
 254 84 267 85 269 72 c 0
 269 70 269 69 269 67 c 0
 269 57 264 49 255 42 c 0
 247 36 240 33 231 33 c 0
 229 33 226 34 223 34 c 0
 213 36 207 41 203 50 c 0
 194 67 193 78 191 98 c 0
 189 114 189 126 189 139 c 0
 189 147 189 154 189 164 c 0
 190 193 192 209 197 238 c 0
 201 264 208 278 213 304 c 0
 218 330 218 344 223 370 c 0
 227 391 232 402 237 422 c 0
 242 438 244 448 249 464 c 0
 255 487 261 499 265 522 c 0
 267 537 277 554 277 566 c 0
 277 572 274 576 267 578 c 0
 265 578 264 579 263 579 c 0
 246 579 248 546 233 530 c 0
 207 501 191 487 161 462 c 0
 140 445 128 435 103 424 c 0
 92 419 83 416 73 416 c 0
 69 416 64 417 59 418 c 0
 44 421 38 430 27 440 c 0
 18 447 9 450 7 462 c 0
 6 467 6 472 6 477 c 0
 6 493 11 506 13 526 c 0
 15 546 16 558 21 578 c 0
 25 596 29 606 37 622 c 0
 47 640 53 650 67 666 c 0
 79 679 88 683 101 696 c 0
 113 708 118 716 129 728 c 0
 140 739 145 746 157 756 c 0
 166 764 171 769 181 774 c 0
 193 780 202 779 215 782 c 0
 231 786 239 792 255 792 c 0
 267 792 274 790 285 784 c 0
 297 778 306 774 311 762 c 0
 312 760 312 757 312 755 c 0
 312 747 308 740 308 733 c 0
 308 730 309 727 311 724 c 0
 318 716 326 734 337 734 c 0
 345 734 349 731 355 726 c 0
 361 721 365 716 365 708 c 0
 365 686 360 674 355 652 c 0
 351 634 347 625 341 608 c 0
 335 591 329 582 325 566 c 0
 319 545 319 533 315 512 c 0
 311 489 309 477 303 454 c 0
 300 441 296 434 293 422 c 0
 286 395 282 379 277 352 c 0
 271 324 270 308 265 280 c 0
 261 258 256 246 253 224 c 0
 250 204 252 192 249 172 c 0
 246 150 238 138 237 116 c 0
EndSplineSet
Validated: 1
EndChar

StartChar: A
Encoding: 65 65 11
Width: 365
Flags: HMW
HStem: 385 46
VStem: -0.9034 58 269.097 44 281.097 38
LayerCount: 2
Fore
SplineSet
257.096679688 625 m 0xd0
 234.096679688 545 232.096679688 497 211.096679688 417 c 0
 204.890625 392.952148438 174.012695312 368.302734375 174.012695312 352.387695312 c 0
 174.012695312 347.786132812 176.592773438 343.915039062 183.096679688 341 c 0
 188.26953125 338.701171875 193.090820312 337.681640625 197.653320312 337.681640625 c 0
 224.845703125 337.681640625 242.837890625 373.874023438 271.096679688 391 c 0
 280.096679688 396 292.096679688 396 293.096679688 407 c 0
 293.44921875 412.639648438 293.608398438 417.975585938 293.608398438 423.080078125 c 0
 293.608398438 461.413085938 284.626953125 486.639648438 281.096679688 529 c 0
 277.096679688 570 283.096679688 595 273.096679688 635 c 0
 271.096679688 642 259.096679688 632 257.096679688 625 c 0xd0
175.096679688 475 m 0
 152.096679688 428 147.096679688 398 129.096679688 349 c 0
 109.096679688 294 88.0966796875 265 79.0966796875 207 c 0
 78.9404296875 206.112304688 78.865234375 205.36328125 78.865234375 204.744140625 c 0
 78.865234375 203.0859375 79.400390625 202.352539062 80.3388671875 202.352539062 c 0
 85.76171875 202.352539062 104.631835938 226.87890625 111.096679688 239 c 0
 114.596679688 245.5 114.846679688 251.5 114.846679688 257.625 c 0
 114.846679688 258.645507812 114.83984375 259.669921875 114.83984375 260.701171875 c 0
 114.83984375 265.854492188 115.013671875 271.166992188 117.096679688 277 c 0
 120.096679688 288 127.096679688 293 131.096679688 303 c 0
 140.096679688 324 144.096679688 337 151.096679688 359 c 0
 164.096679688 399 175.096679688 420 183.096679688 461 c 0
 184.096679688 467 178.096679688 481 175.096679688 475 c 0
279.096679688 333 m 0
 279.096679688 341 268.096679688 347 261.096679688 343 c 0
 218.096679688 320 194.096679688 304 159.096679688 269 c 0
 144.096679688 254 148.096679688 238 139.096679688 219 c 0
 108.096679688 157 92.0966796875 121 57.0966796875 61 c 0
 49.0966796875 47 43.0966796875 39 29.0966796875 31 c 0
 23.0966796875 27 16.0966796875 30 11.0966796875 35 c 0
 3.0966796875 42 -0.9033203125 49 -0.9033203125 59 c 0
 -0.96875 60.1123046875 -1 61.1904296875 -1 62.2392578125 c 0
 -1 77.2080078125 5.3583984375 86.046875 9.0966796875 101 c 0
 20.0966796875 143 26.0966796875 167 37.0966796875 209 c 0
 45.0966796875 238 47.0966796875 255 57.0966796875 283 c 0
 71.0966796875 322 83.0966796875 343 99.0966796875 381 c 0
 116.096679688 423 125.096679688 447 141.096679688 489 c 0
 156.096679688 529 162.096679688 552 177.096679688 593 c 0
 185.096679688 614 191.096679688 625 199.096679688 645 c 0
 215.096679688 683 221.096679688 706 239.096679688 743 c 0
 243.096679688 750 246.096679688 756 253.096679688 759 c 0
 264.096679688 763 276.096679688 769 283.096679688 759 c 0
 299.096679688 738 296.096679688 720 301.096679688 695 c 0
 310.096679688 652 315.096679688 627 319.096679688 583 c 0
 319.9453125 571.967773438 320.233398438 562.295898438 320.233398438 553.215820312 c 0
 320.233398438 533.923828125 318.931640625 517.297851562 318.931640625 495.9609375 c 0
 318.931640625 491.833984375 318.98046875 487.532226562 319.096679688 483 c 0xd0
 319.158203125 481.709960938 319.185546875 480.442382812 319.185546875 479.196289062 c 0
 319.185546875 468.641601562 317.216796875 459.559570312 317.216796875 450.685546875 c 0
 317.216796875 443.54296875 318.4921875 436.534179688 323.096679688 429 c 0
 328.096679688 420 339.096679688 432 349.096679688 431 c 0
 360.096679688 430 370.096679688 432 375.096679688 423 c 0
 378.596679688 417.5 380.346679688 411.75 380.346679688 406 c 0
 380.346679688 400.25 378.596679688 394.5 375.096679688 389 c 0
 370.096679688 381 360.096679688 388 351.096679688 385 c 0
 341.096679688 382 328.096679688 383 327.096679688 373 c 0
 313.096679688 265 326.096679688 201 313.096679688 93 c 0
 311.096679688 79 305.096679688 69 291.096679688 65 c 0
 281.096679688 62 271.096679688 69 269.096679688 79 c 0xe0
 266.86328125 91.1259765625 266.0546875 101.723632812 266.0546875 111.801757812 c 0
 266.0546875 133.307617188 269.734375 152.444335938 271.096679688 179 c 0
 272.768554688 229.161132812 280.032226562 261.149414062 280.032226562 305.350585938 c 0
 280.032226562 314.020507812 279.752929688 323.161132812 279.096679688 333 c 0
EndSplineSet
Validated: 1
EndChar

StartChar: B
Encoding: 66 66 12
Width: 490
Flags: HMW
HStem: 601 92
VStem: 6.189 96<81 119 81 119> 18.189 66
LayerCount: 2
Fore
SplineSet
136.189453125 641 m 0x80
 144.189453125 667 160.189453125 677 182.189453125 693 c 0
 190.189453125 699 199.189453125 690 208.189453125 695 c 0
 225.189453125 705 228.189453125 720 246.189453125 729 c 0
 271.189453125 742 286.189453125 745 314.189453125 751 c 0
 347.823242188 758.567382812 369.438476562 770.377929688 399.841796875 770.377929688 c 0
 405.595703125 770.377929688 411.6640625 769.955078125 418.189453125 769 c 0
 446.189453125 765 459.189453125 750 478.189453125 729 c 0
 493.189453125 713 498.189453125 699 500.189453125 677 c 0
 500.400390625 674.677734375 500.5 672.465820312 500.5 670.345703125 c 0
 500.5 652.376953125 493.344726562 640.888671875 486.189453125 623 c 0
 476.189453125 595 469.189453125 578 454.189453125 553 c 0
 438.189453125 526 428.189453125 512 406.189453125 489 c 0
 402.189453125 484 389.189453125 491 390.189453125 485 c 0
 391.189453125 475 399.189453125 471 408.189453125 465 c 0
 424.189453125 455 436.189453125 457 452.189453125 447 c 0
 470.189453125 436 485.189453125 431 494.189453125 413 c 0
 499.951171875 401.4765625 501.323242188 391.598632812 501.323242188 381.35546875 c 0
 501.323242188 372.04296875 500.189453125 362.428710938 500.189453125 351 c 0
 500.189453125 339.799804688 500.668945312 330.360351562 500.668945312 321.3359375 c 0
 500.668945312 307.799804688 499.588867188 295.200195312 494.189453125 279 c 0
 486.189453125 255 474.189453125 244 456.189453125 225 c 0
 436.189453125 203 422.189453125 193 398.189453125 175 c 0
 370.189453125 153 355.189453125 140 324.189453125 123 c 0
 304.189453125 112 289.189453125 114 270.189453125 103 c 0
 258.189453125 96 259.189453125 81 246.189453125 77 c 0
 224.446289062 69.7529296875 208.482421875 64.6064453125 189.540039062 64.6064453125 c 0
 182.345703125 64.6064453125 174.721679688 65.3486328125 166.189453125 67 c 0
 156.189453125 69 155.189453125 84 160.189453125 93 c 0
 169.189453125 109 182.189453125 111 198.189453125 121 c 0
 221.189453125 135 236.189453125 139 258.189453125 153 c 0
 283.189453125 169 294.189453125 182 318.189453125 197 c 0
 333.189453125 206 344.189453125 205 358.189453125 215 c 0
 377.189453125 229 385.189453125 240 400.189453125 257 c 0
 410.189453125 268 414.189453125 274 422.189453125 287 c 0
 434.189453125 307 448.189453125 317 450.189453125 341 c 0
 450.412109375 343.459960938 450.5234375 345.83203125 450.5234375 348.12890625 c 0
 450.5234375 366.37890625 443.51171875 379.900390625 430.189453125 395 c 0
 415.189453125 411 400.189453125 416 378.189453125 419 c 0
 373.984375 419.6640625 370.123046875 419.985351562 366.474609375 419.985351562 c 0
 353.633789062 419.985351562 343.426757812 416.008789062 330.189453125 409 c 0
 318.189453125 403 320.189453125 389 308.189453125 383 c 0
 299.30859375 378.217773438 290.89453125 373.436523438 282.309570312 373.436523438 c 0
 278.327148438 373.436523438 274.30859375 374.46484375 270.189453125 377 c 0
 251.189453125 388 239.189453125 401 238.189453125 423 c 0
 238.163085938 423.356445312 238.151367188 423.704101562 238.151367188 424.04296875 c 0
 238.151367188 437.006835938 256.443359375 437.254882812 266.189453125 447 c 0
 281.189453125 462 287.189453125 471 302.189453125 487 c 0
 321.189453125 508 333.189453125 518 352.189453125 539 c 0
 366.189453125 554 373.189453125 563 386.189453125 579 c 0
 398.189453125 595 404.189453125 605 416.189453125 621 c 0
 421.189453125 628 428.189453125 631 430.189453125 639 c 0
 432.383789062 647.228515625 433.975585938 653.953125 433.975585938 660.823242188 c 0
 433.975585938 666.4765625 432.897460938 672.228515625 430.189453125 679 c 0
 425.189453125 690 417.189453125 695 406.189453125 699 c 0
 393.919921875 702.874023438 384.15234375 705.081054688 373.38671875 705.081054688 c 0
 367.48046875 705.081054688 361.274414062 704.416992188 354.189453125 703 c 0
 329.189453125 698 316.189453125 689 294.189453125 677 c 0
 274.189453125 667 264.189453125 661 246.189453125 647 c 0
 231.189453125 635 225.189453125 625 210.189453125 613 c 0
 202.189453125 607 196.189453125 600 186.189453125 601 c 0
 173.189453125 602 168.189453125 609 158.189453125 617 c 0
 149.263671875 624.139648438 135.559570312 628.09375 135.559570312 637.391601562 c 0
 135.559570312 638.51171875 135.758789062 639.709960938 136.189453125 641 c 0x80
26.189453125 649 m 0
 27.189453125 665 35.189453125 674 48.189453125 683 c 0
 58.189453125 690 67.189453125 692 78.189453125 687 c 0
 91.189453125 681 98.189453125 673 102.189453125 659 c 0xc0
 105.189453125 649 96.189453125 643 94.189453125 633 c 0
 89.189453125 614 85.189453125 604 84.189453125 585 c 0
 83.9365234375 580.333007812 83.8271484375 575.904296875 83.8271484375 571.654296875 c 0
 83.8271484375 544.479492188 88.287109375 524.600585938 88.287109375 496.27734375 c 0
 88.287109375 493.913085938 88.255859375 491.490234375 88.189453125 489 c 0
 87.189453125 442 81.189453125 416 80.189453125 369 c 0
 80.09765625 365.36328125 80.056640625 361.875976562 80.056640625 358.509765625 c 0
 80.056640625 324.8515625 84.189453125 303.36328125 84.189453125 267 c 0xa0
 84.189453125 248.538085938 81.23046875 235.994140625 81.23046875 220.263671875 c 0
 81.23046875 215.543945312 81.4970703125 210.538085938 82.189453125 205 c 0
 86.189453125 171 96.189453125 153 102.189453125 119 c 0
 103.421875 109.754882812 105.793945312 102.409179688 105.793945312 95.08984375 c 0
 105.793945312 90.5341796875 104.875 85.9873046875 102.189453125 81 c 0
 87.189453125 54 78.189453125 31 48.189453125 23 c 0
 45.978515625 22.447265625 43.8408203125 22.1875 41.77734375 22.1875 c 0
 25.1669921875 22.1875 13.3046875 38.9892578125 6.189453125 55 c 0
 2.326171875 63.884765625 1 71.724609375 1 79.44140625 c 0
 1 91.7041015625 4.34765625 103.657226562 6.189453125 119 c 0xc0
 8.189453125 132 18.189453125 138 18.189453125 151 c 0xa0
 20.4375 213.305664062 20.931640625 266.947265625 20.931640625 317.489257812 c 0
 20.931640625 357.211914062 20.6259765625 395.020507812 20.6259765625 433.6171875 c 0
 20.6259765625 498.821289062 21.498046875 566.2734375 26.189453125 649 c 0
EndSplineSet
Validated: 1
EndChar

StartChar: C
Encoding: 67 67 13
Width: 600
Flags: HMW
HStem: 39 60
LayerCount: 2
Fore
SplineSet
447.268554688 783 m 0
 471.268554688 775 488.268554688 763 492.268554688 738 c 0
 492.47265625 736.56640625 492.5703125 735.198242188 492.5703125 733.887695312 c 0
 492.5703125 715.998046875 474.380859375 708.83984375 462.268554688 693 c 0
 452.7421875 680.875976562 448.465820312 658.251953125 437.749023438 658.251953125 c 0
 436.090820312 658.251953125 434.278320312 658.793945312 432.268554688 660 c 0
 428.149414062 662.517578125 426.701171875 666.133789062 426.701171875 670.34765625 c 0
 426.701171875 680.333007812 434.8359375 693.666992188 434.8359375 703.65234375 c 0
 434.8359375 707.866210938 433.387695312 711.482421875 429.268554688 714 c 0
 422.7265625 718.163085938 416.272460938 719.850585938 409.828125 719.850585938 c 0
 394.6015625 719.850585938 379.428710938 710.431640625 363.268554688 702 c 0
 303.268554688 670 268.268554688 651 219.268554688 603 c 0
 179.268554688 564 168.268554688 532 141.268554688 483 c 0
 119.268554688 444 108.268554688 421 93.2685546875 378 c 0
 81.2685546875 344 81.2685546875 323 72.2685546875 288 c 0
 68.4765625 273.780273438 60.19140625 265.8515625 60.19140625 251.434570312 c 0
 60.19140625 250.643554688 60.216796875 249.83203125 60.2685546875 249 c 0
 62.2685546875 225 71.2685546875 213 81.2685546875 192 c 0
 89.2685546875 175 95.2685546875 167 108.268554688 153 c 0
 124.268554688 136 132.268554688 124 153.268554688 114 c 0
 175.268554688 104 190.268554688 108 213.268554688 105 c 0
 241.268554688 102 257.268554688 99 285.268554688 99 c 0
 318.268554688 99 337.268554688 99 369.268554688 105 c 0
 393.268554688 110 407.268554688 116 429.268554688 126 c 0
 450.268554688 136 460.268554688 144 480.268554688 156 c 0
 493.268554688 164 504.268554688 165 513.268554688 177 c 0
 531.268554688 200 521.268554688 232 549.268554688 243 c 0
 553.71875 244.741210938 558.16796875 245.546875 562.53125 245.546875 c 0
 580.71875 245.546875 597.396484375 231.549804688 606.268554688 213 c 0
 609.165039062 206.627929688 610.467773438 200.422851562 610.467773438 194.38671875 c 0
 610.467773438 179.58203125 602.633789062 165.786132812 591.268554688 153 c 0
 559.268554688 117 534.268554688 100 489.268554688 81 c 0
 427.268554688 55 389.268554688 45 321.268554688 39 c 0
 301.768554688 37.2001953125 284.698242188 36.2998046875 268.600585938 36.2998046875 c 0
 231.038085938 36.2998046875 198.768554688 41.2001953125 153.268554688 51 c 0
 118.268554688 59 99.2685546875 69 72.2685546875 93 c 0
 41.2685546875 120 23.2685546875 138 9.2685546875 177 c 0
 3.724609375 191.924804688 2 204.848632812 2 217.633789062 c 0
 2 234.83203125 5.12109375 251.77734375 6.2685546875 273 c 0
 8.2685546875 307 12.2685546875 327 21.2685546875 360 c 0
 32.2685546875 397 41.2685546875 418 57.2685546875 453 c 0
 69.2685546875 481 78.2685546875 495 93.2685546875 522 c 0
 103.268554688 540 108.268554688 549 120.268554688 567 c 0
 138.268554688 594 147.268554688 611 168.268554688 636 c 0
 193.268554688 665 207.268554688 681 237.268554688 705 c 0
 265.268554688 728 282.268554688 740 315.268554688 756 c 0
 339.268554688 768 355.268554688 769 381.268554688 774 c 0
 400.309570312 777.80859375 414.129882812 785.677734375 430.682617188 785.677734375 c 0
 435.862304688 785.677734375 441.309570312 784.907226562 447.268554688 783 c 0
EndSplineSet
Validated: 1
EndChar

StartChar: D
Encoding: 68 68 14
Width: 529
Flags: HMW
VStem: 11.1681 58 69.1681 62
LayerCount: 2
Fore
SplineSet
69.16796875 51 m 0x80
 65.16796875 35 58.16796875 26 45.16796875 15 c 0
 39.16796875 10 31.16796875 8 25.16796875 13 c 0
 15.16796875 22 13.16796875 32 11.16796875 45 c 0x80
 5.583984375 77.70703125 0 99.5947265625 0 127.92578125 c 0
 0 135.109375 0.359375 142.70703125 1.16796875 151 c 0
 2.16796875 159 18.16796875 137 21.16796875 145 c 0
 37.16796875 181 36.16796875 206 43.16796875 245 c 0
 46.16796875 261 44.16796875 271 47.16796875 287 c 0
 51.16796875 308 57.16796875 319 59.16796875 341 c 0
 66.16796875 426 63.16796875 474 69.16796875 559 c 0
 70.16796875 577 70.16796875 589 79.16796875 605 c 0
 84.16796875 614 95.16796875 623 103.16796875 617 c 0
 118.16796875 607 116.16796875 592 121.16796875 575 c 0
 127.16796875 554 131.16796875 541 131.16796875 519 c 0x40
 130.16796875 474 124.16796875 448 119.16796875 403 c 0
 112.16796875 336 108.16796875 298 99.16796875 231 c 0
 89.16796875 161 86.16796875 120 69.16796875 51 c 0x80
69.16796875 763 m 0x40
 93.16796875 753 93.16796875 724 119.16796875 719 c 0
 152.48046875 712.564453125 180.633789062 711.001953125 207.642578125 711.001953125 c 0
 233.161132812 711.001953125 257.658203125 712.397460938 284.518554688 712.397460938 c 0
 304.330078125 712.397460938 325.426757812 711.637695312 349.16796875 709 c 0
 385.16796875 705 405.16796875 699 437.16796875 683 c 0
 465.16796875 669 481.16796875 657 501.16796875 633 c 0
 522.16796875 608 529.16796875 590 539.16796875 559 c 0
 543.146484375 545.928710938 544.217773438 535.440429688 544.217773438 524.416015625 c 0
 544.217773438 516.04296875 543.599609375 507.360351562 543.16796875 497 c 0
 542.16796875 466 542.16796875 447 533.16796875 417 c 0
 519.16796875 374 509.16796875 349 485.16796875 311 c 0
 449.16796875 254 426.16796875 225 381.16796875 175 c 0
 363.16796875 155 350.16796875 149 327.16796875 135 c 0
 289.16796875 112 267.16796875 101 227.16796875 83 c 0
 218.16796875 79 210.16796875 84 201.16796875 79 c 0
 184.16796875 68 183.16796875 46 163.16796875 43 c 0
 160.577148438 42.5908203125 157.94921875 42.38671875 155.33203125 42.38671875 c 0
 138.756835938 42.38671875 122.623046875 50.5908203125 119.16796875 67 c 0
 118.379882812 70.28515625 118.0234375 73.3623046875 118.0234375 76.2802734375 c 0
 118.0234375 95.5712890625 133.61328125 107.890625 143.16796875 127 c 0
 151.16796875 144 150.16796875 164 169.16796875 167 c 0
 169.743164062 167.123046875 170.278320312 167.182617188 170.776367188 167.182617188 c 0
 182.38671875 167.182617188 173.743164062 135 187.16796875 135 c 0
 212.16796875 135 221.16796875 155 243.16796875 167 c 0
 269.16796875 181 285.16796875 186 309.16796875 203 c 0
 327.16796875 215 334.16796875 225 349.16796875 241 c 0
 373.16796875 266 387.16796875 280 409.16796875 307 c 0
 426.16796875 329 437.16796875 342 449.16796875 367 c 0
 463.16796875 397 472.16796875 415 477.16796875 447 c 0
 482.501953125 479 490.946289062 503.444335938 490.946289062 529.518554688 c 0
 490.946289062 542.555664062 488.834960938 556 483.16796875 571 c 0
 470.16796875 606 442.16796875 618 407.16796875 631 c 0
 359.16796875 649 328.16796875 642 277.16796875 647 c 0
 215.16796875 653 179.16796875 650 117.16796875 659 c 0
 93.16796875 663 77.16796875 665 57.16796875 679 c 0
 40.16796875 691 32.16796875 703 27.16796875 723 c 0
 26.50390625 725.655273438 26.18359375 728.1640625 26.18359375 730.557617188 c 0
 26.18359375 738.983398438 30.1591796875 745.991210938 37.16796875 753 c 0
 43.91796875 759.75 51.79296875 764.8125 60.37109375 764.8125 c 0
 63.23046875 764.8125 66.16796875 764.25 69.16796875 763 c 0x40
EndSplineSet
Validated: 1
EndChar

StartChar: E
Encoding: 69 69 15
Width: 630
Flags: HMW
VStem: 180.313 68
LayerCount: 2
Fore
SplineSet
180.313476562 740 m 0
 181.313476562 746 186.313476562 749 192.313476562 751 c 0
 202.313476562 754 209.313476562 756 219.313476562 752 c 0
 233.313476562 746 245.313476562 741 248.313476562 727 c 0
 249.639648438 721.47265625 250.184570312 716.43359375 250.184570312 711.65625 c 0
 250.184570312 694.829101562 243.428710938 681.250976562 240.313476562 661 c 0
 234.313476562 628 231.313476562 610 222.313476562 578 c 0
 213.313476562 545 206.313476562 527 194.313476562 494 c 0
 174.313476562 437 160.313476562 407 141.313476562 349 c 0
 126.313476562 304 122.313476562 278 108.313476562 233 c 0
 100.313476562 209 93.3134765625 196 84.3134765625 172 c 0
 77.3134765625 152 73.3134765625 141 66.3134765625 121 c 0
 63.3134765625 113 60.3134765625 109 59.3134765625 100 c 0
 58.3134765625 91 54.3134765625 80 63.3134765625 77 c 0
 67.6884765625 75.712890625 71.6669921875 75.1552734375 75.4521484375 75.1552734375 c 0
 86.373046875 75.1552734375 95.6884765625 79.8017578125 108.313476562 85 c 0
 178.313476562 112 216.313476562 134 285.313476562 163 c 0
 337.313476562 185 368.313476562 193 419.313476562 217 c 0
 426.313476562 220 424.313476562 230 431.313476562 233 c 0
 442.313476562 238 451.313476562 241 462.313476562 236 c 0
 473.313476562 231 478.313476562 223 482.313476562 211 c 0
 484.313476562 204.5 485.813476562 198.75 485.813476562 193.125 c 0
 485.813476562 187.5 484.313476562 182 480.313476562 176 c 0
 474.313476562 167 463.313476562 171 452.313476562 167 c 0
 314.313476562 110 239.313476562 70 98.3134765625 19 c 0
 93.927734375 17.35546875 89.9169921875 16.6875 86.09765625 16.6875 c 0
 75.982421875 16.6875 67.201171875 21.3701171875 56.3134765625 25 c 0
 41.3134765625 30 33.3134765625 33 21.3134765625 43 c 0
 10.3134765625 52 1.3134765625 59 0.3134765625 73 c 0
 0.099609375 75.7783203125 0 78.4189453125 0 80.9521484375 c 0
 0 102.12890625 6.9541015625 115.778320312 12.3134765625 139 c 0
 19.3134765625 165 24.3134765625 179 33.3134765625 205 c 0
 44.3134765625 239 53.3134765625 258 63.3134765625 293 c 0
 68.3134765625 310 66.3134765625 320 72.3134765625 337 c 0
 84.3134765625 372 95.3134765625 391 108.313476562 425 c 0
 121.313476562 458 127.313476562 477 138.313476562 511 c 0
 155.313476562 563 170.313476562 592 180.313476562 646 c 0
 182.0859375 655.116210938 182.704101562 663.333984375 182.704101562 671.109375 c 0
 182.704101562 689.055664062 179.41015625 704.641601562 179.41015625 723.45703125 c 0
 179.41015625 728.682617188 179.6640625 734.15625 180.313476562 740 c 0
170.313476562 396 m 0
 179.313476562 405 185.313476562 408 198.313476562 412 c 0
 209.313476562 416 213.313476562 401 224.313476562 398 c 0
 245.264648438 392.76171875 258.595703125 389.810546875 277.611328125 389.810546875 c 0
 280.377929688 389.810546875 283.264648438 389.873046875 286.313476562 390 c 0
 312.313476562 391 326.313476562 397 352.313476562 404 c 0
 387.313476562 413 407.313476562 418 442.313476562 430 c 0
 457.313476562 435 465.313476562 439 478.313476562 446 c 0
 486.313476562 450 488.313476562 458 496.313476562 460 c 0
 505.638671875 462.194335938 513.159179688 463.787109375 520.690429688 463.787109375 c 0
 526.88671875 463.787109375 533.090820312 462.708984375 540.313476562 460 c 0
 550.313476562 456 552.313476562 448 554.313476562 438 c 0
 555.313476562 430 550.313476562 427 546.313476562 420 c 0
 539.313476562 409 538.313476562 399 526.313476562 392 c 0
 509.313476562 382 497.313476562 386 478.313476562 380 c 0
 442.313476562 369 423.313476562 360 386.313476562 350 c 0
 358.313476562 343 342.313476562 339 314.313476562 336 c 0
 289.014648438 333.469726562 270.516601562 330.940429688 249.963867188 330.940429688 c 0
 238.020507812 330.940429688 225.3828125 331.794921875 210.313476562 334 c 0
 195.313476562 336 186.313476562 343 178.313476562 356 c 0
 172.1328125 364.926757812 165.481445312 375.267578125 165.481445312 384.43359375 c 0
 165.481445312 388.616210938 166.866210938 392.553710938 170.313476562 396 c 0
260.313476562 686 m 0
 274.313476562 701 296.313476562 689 312.313476562 700 c 0
 358.313476562 732 391.313476562 739 444.313476562 756 c 0
 486.313476562 770 511.313476562 773 554.313476562 780 c 0
 566.096679688 781.963867188 574.880859375 783.927734375 584.873046875 783.927734375 c 0
 590.14453125 783.927734375 595.751953125 783.381835938 602.313476562 782 c 0
 619.313476562 778 630.313476562 774 642.313476562 760 c 0
 648.313476562 752 647.313476562 743 642.313476562 734 c 0
 637.313476562 725 631.313476562 719 620.313476562 718 c 0
 619.1875 717.881835938 618.092773438 717.826171875 617.026367188 717.826171875 c 0
 602.110351562 717.826171875 592.643554688 728.64453125 578.377929688 728.64453125 c 0
 576.452148438 728.64453125 574.439453125 728.447265625 572.313476562 728 c 0
 521.313476562 719 493.313476562 706 446.313476562 686 c 0
 393.313476562 663 367.313476562 652 314.313476562 618 c 0
 309.821289062 615.141601562 305.49609375 613.950195312 301.201171875 613.950195312 c 0
 294.979492188 613.950195312 288.821289062 616.450195312 282.313476562 620 c 0
 270.313476562 626 264.313476562 633 260.313476562 646 c 0
 257.385742188 654.783203125 254.115234375 663.22265625 254.115234375 670.918945312 c 0
 254.115234375 676.366210938 255.75390625 681.440429688 260.313476562 686 c 0
EndSplineSet
Validated: 1
EndChar

StartChar: F
Encoding: 70 70 16
Width: 471
Flags: W
HStem: 702 63.1338<384.505 419.996>
VStem: 9.32031 60<33.0562 165.504> 66.6934 50.627<399.744 609.54>
LayerCount: 2
Fore
SplineSet
4.3203125 643 m 0xa0
 1.3203125 651 -3.6796875 662 4.3203125 665 c 0
 100.3203125 704 158.3203125 715 257.3203125 746 c 0
 280.3203125 753 292.3203125 760 316.3203125 762 c 0
 333.03125 763.56640625 346.197265625 765.133789062 359.37890625 765.133789062 c 0
 371.4375 765.133789062 383.508789062 763.822265625 398.3203125 760 c 0
 413.3203125 756 418.3203125 745 427.3203125 733 c 0
 431.3203125 728 432.3203125 723 430.3203125 717 c 0
 429.3203125 711 425.3203125 709 420.3203125 706 c 0
 414.3203125 703 410.3203125 702 404.3203125 702 c 0
 399.3203125 702 396.3203125 704 392.3203125 707 c 0
 388.3203125 710 388.3203125 714 384.3203125 716 c 0
 380.3203125 718 377.3203125 718 372.3203125 717 c 0
 345.3203125 713 331.3203125 710 304.3203125 703 c 0
 269.3203125 694 250.3203125 688 215.3203125 678 c 0
 183.3203125 669 165.3203125 663 133.3203125 653 c 0
 129.3203125 652 125.3203125 651 122.3203125 648 c 0
 119.3203125 644 119.3203125 641 118.3203125 636 c 0
 117.3203125 629 117.3203125 625 117.3203125 618 c 0
 117.3203125 595 118.3203125 581 118.3203125 558 c 0
 118.3203125 540 119.3203125 530 119.3203125 512 c 0
 119.3203125 499 119.3203125 492 117.3203125 480 c 0xa0
 115.3203125 464 112.3203125 455 109.3203125 439 c 0
 106.3203125 423 106.3203125 415 102.3203125 399 c 0
 101.3203125 396 98.3203125 396 97.3203125 393 c 0
 96.3203125 389 94.3203125 385 97.3203125 382 c 0
 100.3203125 379 104.3203125 379 109.3203125 380 c 0
 122.3203125 381 129.3203125 383 142.3203125 387 c 0
 164.3203125 393 176.3203125 397 197.3203125 405 c 0
 233.3203125 420 252.3203125 429 287.3203125 446 c 0
 312.3203125 458 325.3203125 466 350.3203125 480 c 0
 363.3203125 487 370.3203125 492 383.3203125 500 c 0
 407.3203125 514 420.3203125 523 446.3203125 536 c 0
 451.3203125 538 454.3203125 538 459.3203125 537 c 0
 463.3203125 536 464.3203125 533 468.3203125 530 c 0
 472.3203125 526 474.3203125 525 477.3203125 520 c 0
 481.3203125 513 485.3203125 509 486.3203125 501 c 0
 487.3203125 495 485.3203125 492 482.3203125 487 c 0
 479.3203125 481 477.3203125 476 471.3203125 473 c 0
 406.3203125 439 367.3203125 425 300.3203125 393 c 0
 256.3203125 372 234.3203125 353 187.3203125 339 c 0
 177.145507812 335.916992188 168.016601562 335.01953125 159.2890625 335.01953125 c 0
 147.149414062 335.01953125 135.786132812 336.754882812 123.462890625 336.754882812 c 0
 115.909179688 336.754882812 107.994140625 336.102539062 99.3203125 334 c 0
 92.3203125 332 93.3203125 323 91.3203125 316 c 0
 87.3203125 301 87.3203125 292 83.3203125 276 c 2
 73.3203125 236 l 1
 73.3203125 221 l 1
 77.3203125 217 l 1
 84.3203125 223 l 1
 90.3203125 238 l 1
 98.3203125 243 l 1
 104.3203125 236 l 1
 105.3203125 212 l 1
 101.3203125 192 l 1
 93.3203125 177 l 1
 89.3203125 156 l 2
 85.3203125 132 83.3203125 118 79.3203125 94 c 0
 76.3203125 76 75.3203125 64 69.3203125 47 c 0
 67.3203125 40 65.3203125 35 58.3203125 32 c 0
 49.3203125 28 43.3203125 30 34.3203125 32 c 0
 26.3203125 34 22.3203125 38 15.3203125 42 c 0
 12.3203125 44 9.3203125 45 9.3203125 48 c 0xc0
 7.41796875 61.947265625 6.7216796875 71.8759765625 6.7216796875 82.880859375 c 0
 6.7216796875 89.234375 6.9541015625 95.947265625 7.3203125 104 c 0
 9.3203125 143 11.3203125 165 16.3203125 204 c 0
 19.3203125 229 21.3203125 242 26.3203125 267 c 0
 27.3203125 272 31.3203125 274 32.3203125 279 c 0
 35.3203125 295 34.3203125 304 37.3203125 320 c 0
 40.05078125 331.833984375 48.58203125 338.696289062 48.58203125 348.883789062 c 0
 48.58203125 349.887695312 48.4990234375 350.923828125 48.3203125 352 c 0
 47.3203125 359 36.3203125 351 30.3203125 355 c 0
 27.3203125 358 29.3203125 362 29.3203125 366 c 0
 29.3203125 372 26.3203125 376 28.3203125 382 c 0
 31.3203125 389 36.3203125 390 41.3203125 395 c 0
 43.3203125 397 47.3203125 396 47.3203125 399 c 0
 54.3203125 458 56.3203125 491 60.3203125 550 c 0
 61.673828125 565.569335938 66.693359375 577.931640625 66.693359375 590.80859375 c 0
 66.693359375 596.953125 65.55078125 603.215820312 62.3203125 610 c 0
 57.3203125 620 44.3203125 605 33.3203125 608 c 0
 26.3203125 610 25.3203125 617 20.3203125 622 c 0
 13.3203125 630 8.3203125 633 4.3203125 643 c 0xa0
EndSplineSet
Validated: 1
EndChar

StartChar: G
Encoding: 71 71 17
Width: 509
Flags: W
HStem: 14.3125 52.666<84.8099 212.021> 772.903 20G<301.637 308.547 351.092 356.889>
VStem: 2 54.1113<95.1406 307.93> 461.201 62.2227<328.062 390.859>
LayerCount: 2
Fore
SplineSet
310.201171875 729 m 0
 288.201171875 712 276.201171875 703 257.201171875 683 c 0
 240.201171875 665 233.201171875 653 219.201171875 633 c 0
 207.201171875 617 201.201171875 607 191.201171875 590 c 0
 177.201171875 566 170.201171875 552 157.201171875 528 c 0
 145.201171875 505 137.201171875 493 126.201171875 469 c 0
 112.201171875 439 105.201171875 421 95.201171875 389 c 0
 86.201171875 360 82.201171875 342 76.201171875 312 c 0
 67.201171875 268 63.201171875 243 58.201171875 199 c 0
 56.96484375 189.111328125 56.111328125 182.278320312 56.111328125 174.724609375 c 0
 56.111328125 170.055664062 56.4375 165.111328125 57.201171875 159 c 0
 59.201171875 141 61.201171875 130 67.201171875 113 c 0
 71.201171875 103 75.201171875 97 83.201171875 90 c 0
 94.201171875 80 100.201171875 73 114.201171875 69 c 0
 118.727539062 67.4912109375 122.826171875 66.978515625 126.874023438 66.978515625 c 0
 133.559570312 66.978515625 140.104492188 68.376953125 148.201171875 69 c 0
 164.201171875 71 173.201171875 70 188.201171875 76 c 0
 207.201171875 84 215.201171875 91 231.201171875 103 c 0
 252.201171875 118 262.201171875 127 281.201171875 144 c 0
 304.201171875 164 316.201171875 177 337.201171875 199 c 0
 359.201171875 223 371.201171875 238 392.201171875 264 c 0
 409.201171875 285 421.201171875 296 436.201171875 318 c 0
 446.201171875 332 450.201171875 341 456.201171875 357 c 0
 460.201171875 366 462.201171875 370 461.201171875 379 c 0
 460.201171875 385 458.201171875 388 453.201171875 391 c 0
 449.201171875 394 444.201171875 393 439.201171875 394 c 0
 426.201171875 397 419.201171875 399 406.201171875 402 c 0
 396.526367188 403.612304688 390.102539062 407.825195312 381.6875 407.825195312 c 0
 379.6640625 407.825195312 377.526367188 407.581054688 375.201171875 407 c 0
 365.201171875 404 365.201171875 396 358.201171875 389 c 0
 350.201171875 381 346.201171875 376 338.201171875 369 c 0
 328.201171875 360 321.201171875 355 310.201171875 348 c 0
 304.201171875 344 300.201171875 341 293.201171875 340 c 0
 282.201171875 339 276.201171875 340 266.201171875 343 c 0
 259.201171875 345 254.201171875 348 250.201171875 354 c 0
 247.201171875 359 247.201171875 363 248.201171875 369 c 0
 249.201171875 375 252.201171875 378 256.201171875 383 c 0
 264.201171875 394 270.201171875 398 279.201171875 408 c 0
 291.201171875 421 295.201171875 432 310.201171875 442 c 0
 327.201171875 454 339.201171875 459 359.201171875 464 c 0
 371.201171875 467 378.201171875 466 389.201171875 463 c 0
 406.201171875 458 414.201171875 451 431.201171875 444 c 0
 442.201171875 439 448.201171875 436 459.201171875 433 c 0
 470.201171875 430 477.201171875 433 487.201171875 428 c 0
 501.201171875 421 513.201171875 419 520.201171875 404 c 0
 522.534179688 398.666992188 523.423828125 393.888671875 523.423828125 389.295898438 c 0
 523.423828125 380.111328125 519.868164062 371.666992188 517.201171875 361 c 0
 514.201171875 349 509.201171875 344 504.201171875 333 c 0
 490.201171875 306 485.201171875 290 468.201171875 265 c 0
 447.201171875 234 431.201171875 219 406.201171875 191 c 0
 389.201171875 172 380.201171875 161 361.201171875 144 c 0
 334.201171875 120 317.201171875 108 288.201171875 85 c 0
 267.201171875 69 258.201171875 57 235.201171875 45 c 0
 209.201171875 31 193.201171875 25 164.201171875 19 c 0
 150.451171875 15.875 139.435546875 14.3125 127.4921875 14.3125 c 0
 120.326171875 14.3125 112.826171875 14.875 104.201171875 16 c 0
 87.201171875 19 77.201171875 24 62.201171875 34 c 0
 49.201171875 43 43.201171875 51 33.201171875 63 c 0
 23.201171875 75 16.201171875 82 9.201171875 97 c 0
 4.201171875 107 3.201171875 114 2.201171875 125 c 0
 2.0615234375 127.234375 2 129.331054688 2 131.330078125 c 0
 2 143.649414062 4.3408203125 152.234375 5.201171875 166 c 0
 6.201171875 177 5.201171875 183 6.201171875 194 c 0
 7.201171875 213 8.201171875 224 11.201171875 243 c 0
 15.201171875 268 17.201171875 282 23.201171875 307 c 0
 26.201171875 318 29.201171875 324 32.201171875 335 c 0
 38.201171875 361 38.201171875 376 45.201171875 401 c 0
 54.201171875 434 61.201171875 451 74.201171875 482 c 0
 89.201171875 517 99.201171875 536 117.201171875 569 c 0
 129.201171875 592 138.201171875 603 152.201171875 625 c 0
 170.201171875 654 181.201171875 671 200.201171875 700 c 0
 214.201171875 720 220.201171875 734 237.201171875 752 c 0
 254.201171875 770 265.201171875 781 288.201171875 790 c 0
 293.99609375 792.172851562 299.133789062 792.903320312 304.139648438 792.903320312 c 0
 312.955078125 792.903320312 321.357421875 790.637695312 332.201171875 790 c 0
 334.201171875 789.875 336.123046875 789.828125 337.984375 789.828125 c 0
 343.568359375 789.828125 348.607421875 790.25 353.576171875 790.25 c 0
 360.201171875 790.25 366.701171875 789.5 374.201171875 786 c 0
 386.201171875 781 391.201171875 773 397.201171875 761 c 0
 400.201171875 755 397.201171875 749 397.201171875 742 c 0
 397.201171875 736 397.201171875 732 396.201171875 726 c 0
 395.201171875 717 396.201171875 712 393.201171875 703 c 0
 391.201171875 695 388.201171875 692 383.201171875 686 c 0
 379.201171875 682 376.201171875 681 371.201171875 680 c 0
 366.201171875 679 362.201171875 678 359.201171875 681 c 0
 355.201171875 685 359.201171875 688 358.201171875 693 c 0
 357.201171875 701 355.201171875 706 353.201171875 714 c 0
 351.201171875 722 355.201171875 729 349.201171875 734 c 0
 342.201171875 740 336.201171875 737 327.201171875 736 c 0
 320.201171875 735 316.201171875 734 310.201171875 729 c 0
EndSplineSet
Validated: 1
EndChar

StartChar: H
Encoding: 72 72 18
Width: 468
Flags: HMW
HStem: 501 54<159.173 187.173>
VStem: 8.67272 55 265.673 49<47 115> 375.673 51 424.673 59
LayerCount: 2
Fore
SplineSet
74.6728515625 575 m 0xf0
 95.6728515625 651 106.672851562 696 131.672851562 771 c 0
 135.672851562 782 140.672851562 788 149.672851562 796 c 0
 154.672851562 800 159.672851562 798 166.672851562 799 c 0
 172.672851562 800 175.672851562 799 181.672851562 799 c 0
 185.672851562 799 188.672851562 800 192.672851562 798 c 0
 195.672851562 796 197.672851562 794 198.672851562 791 c 0
 200.672851562 787 199.672851562 785 200.672851562 781 c 0
 201.672851562 777 202.672851562 775 201.672851562 771 c 0
 199.672851562 767 195.672851562 766 193.672851562 763 c 0
 190.672851562 759 189.672851562 757 188.672851562 753 c 0
 187.672851562 748 184.672851562 746 186.672851562 741 c 0
 189.672851562 735 197.672851562 735 200.672851562 729 c 0
 203.672851562 722 201.672851562 717 201.672851562 709 c 0
 201.672851562 702 203.672851562 697 198.672851562 692 c 0
 191.672851562 686 185.672851562 689 176.672851562 688 c 0
 172.672851562 688 170.672851562 690 166.672851562 690 c 0
 162.672851562 690 158.672851562 691 156.672851562 687 c 0
 152.672851562 680 154.672851562 674 152.672851562 666 c 0
 149.672851562 654 147.672851562 647 143.672851562 635 c 0
 134.672851562 609 127.672851562 595 118.672851562 569 c 0
 117.672851562 567 116.672851562 564 118.672851562 563 c 0
 127.672851562 558 133.672851562 556 142.672851562 555 c 0
 157.887695312 554.154296875 170.245117188 553.845703125 182.16015625 553.845703125 c 0
 198.436523438 553.845703125 213.887695312 554.422851562 234.672851562 555 c 0
 247.672851562 555 254.672851562 555 267.672851562 557 c 0
 296.672851562 562 312.672851562 566 340.672851562 573 c 0
 351.672851562 576 358.672851562 577 368.672851562 583 c 0
 372.672851562 586 374.672851562 589 375.672851562 594 c 0xf0
 376.225585938 597.592773438 376.396484375 600.727539062 376.396484375 603.657226562 c 0
 376.396484375 608.3984375 375.94921875 612.6015625 375.94921875 617.342773438 c 0
 375.94921875 620.272460938 376.120117188 623.407226562 376.672851562 627 c 0
 381.672851562 654 388.672851562 669 394.672851562 696 c 0
 396.672851562 704 395.672851562 709 397.672851562 717 c 0
 399.672851562 723 401.672851562 725 404.672851562 730 c 0
 409.672851562 739 412.672851562 744 416.672851562 753 c 0
 420.672851562 762 422.672851562 768 424.672851562 777 c 0xe8
 425.672851562 783 422.672851562 787 426.672851562 792 c 0xf0
 430.672851562 798 434.672851562 799 441.672851562 801 c 0
 445.672851562 802 447.672851562 800 451.672851562 800 c 0
 460.672851562 799 466.672851562 802 474.672851562 797 c 0
 480.672851562 793 483.672851562 788 483.672851562 781 c 0xe8
 484.672851562 770 480.672851562 764 476.672851562 753 c 0
 460.672851562 705 450.672851562 679 432.672851562 631 c 0
 430.672851562 627 427.672851562 625 426.672851562 621 c 0
 425.672851562 618 426.672851562 616 426.672851562 613 c 0
 426.672851562 610 425.672851562 608 426.672851562 605 c 0
 427.672851562 599 428.672851562 596 430.672851562 590 c 0
 431.672851562 586 433.672851562 583 434.672851562 579 c 0
 435.672851562 573 436.672851562 569 434.672851562 563 c 0
 431.672851562 554 426.672851562 551 421.672851562 543 c 0
 415.672851562 534 409.672851562 529 406.672851562 519 c 0
 393.672851562 482 393.672851562 458 380.672851562 421 c 0
 378.672851562 415 369.672851562 416 367.672851562 410 c 0
 361.672851562 394 364.672851562 383 360.672851562 366 c 0
 357.672851562 351 352.672851562 343 348.672851562 329 c 0
 342.672851562 306 340.672851562 292 336.672851562 269 c 0
 331.672851562 241 328.672851562 224 324.672851562 196 c 0
 322.672851562 182 322.672851562 174 320.672851562 160 c 0
 319.672851562 151 317.672851562 147 316.672851562 138 c 0
 315.672851562 129 314.672851562 124 314.672851562 115 c 0
 314.672851562 108 312.672851562 103 314.672851562 96 c 0
 316.672851562 90 319.672851562 87 324.672851562 83 c 0
 328.672851562 80 331.672851562 80 336.672851562 78 c 0
 341.672851562 76 346.672851562 76 350.672851562 73 c 0
 354.672851562 70 356.672851562 67 357.672851562 62 c 0
 358.672851562 56 355.672851562 53 354.672851562 48 c 0
 352.672851562 42 351.672851562 39 349.672851562 34 c 0
 346.672851562 25 346.672851562 20 340.672851562 12 c 0
 338.672851562 9 334.672851562 10 330.672851562 9 c 0
 325.672851562 8 321.672851562 6 316.672851562 6 c 0
 308.672851562 6 303.672851562 6 296.672851562 10 c 0
 284.672851562 16 275.672851562 19 267.672851562 30 c 0
 262.672851562 37 265.672851562 43 265.672851562 51 c 0
 268.672851562 120 270.672851562 158 276.672851562 227 c 0
 277.672851562 236 280.672851562 240 282.672851562 249 c 0
 286.672851562 269 284.672851562 280 289.672851562 300 c 0
 298.672851562 340 307.672851562 362 317.672851562 401 c 0
 323.672851562 425 324.672851562 439 330.672851562 463 c 0
 335.672851562 482 341.672851562 492 344.672851562 511 c 0
 345.672851562 515 344.672851562 518 340.672851562 520 c 0
 334.672851562 523 330.672851562 523 323.672851562 521 c 0
 297.672851562 514 284.672851562 501 258.672851562 498 c 0
 251.1171875 497.111328125 244.252929688 496.765625 237.76171875 496.765625 c 0
 215.04296875 496.765625 196.89453125 501 169.672851562 501 c 0
 159.172851562 501 151.172851562 501.25 143.172851562 501.25 c 0
 135.172851562 501.25 127.172851562 501 116.672851562 500 c 0
 111.672851562 499 108.672851562 498 106.672851562 494 c 0
 94.6728515625 463 90.6728515625 446 83.6728515625 413 c 0
 81.6728515625 404 81.4228515625 397 81.4228515625 390 c 0
 81.4228515625 387.666992188 81.4501953125 385.333007812 81.4501953125 382.92578125 c 0
 81.4501953125 378.111328125 81.33984375 373 80.6728515625 367 c 0
 79.6728515625 354 78.6728515625 347 76.6728515625 335 c 0
 75.6728515625 326 72.6728515625 322 71.6728515625 313 c 0
 69.6728515625 292 68.6728515625 279 67.6728515625 258 c 0
 67.4619140625 252.716796875 67.3837890625 247.924804688 67.3837890625 243.416992188 c 0
 67.3837890625 231.099609375 67.9619140625 220.900390625 67.9619140625 208.583007812 c 0
 67.9619140625 204.075195312 67.8837890625 199.283203125 67.6728515625 194 c 0
 67.6728515625 189 64.6728515625 186 63.6728515625 181 c 0
 62.6728515625 175 63.6728515625 171 63.6728515625 165 c 2
 63.6728515625 155 l 2
 63.6728515625 150 61.6728515625 147 63.6728515625 142 c 0
 67.6728515625 131 76.6728515625 128 78.6728515625 117 c 0
 79.6728515625 111 75.6728515625 106 70.6728515625 103 c 0
 60.6728515625 96 54.6728515625 93 42.6728515625 92 c 0
 34.6728515625 91 28.6728515625 93 23.6728515625 99 c 0
 11.6728515625 114 7.6728515625 125 2.6728515625 143 c 0
 0.6728515625 152 3.6728515625 157 4.6728515625 166 c 0
 5.6728515625 180 7.6728515625 188 8.6728515625 202 c 0
 9.6728515625 227 8.6728515625 240 10.6728515625 265 c 0
 14.6728515625 307 17.6728515625 330 24.6728515625 372 c 0
 28.6728515625 398 33.6728515625 413 39.6728515625 439 c 0
 52.6728515625 492 59.6728515625 522 74.6728515625 575 c 0xf0
EndSplineSet
Validated: 1
EndChar

StartChar: I
Encoding: 73 73 19
Width: 581
Flags: HMW
HStem: 0 62 73 25 694 60 748 40
VStem: 251.309 74 269.309 54
LayerCount: 2
Fore
SplineSet
46.3095703125 762 m 0xe8
 52.3095703125 770 58.3095703125 773 68.3095703125 776 c 0
 79.3095703125 779 87.3095703125 780 97.3095703125 776 c 0
 104.309570312 774 104.309570312 767 109.309570312 762 c 0
 113.309570312 759 116.309570312 756 121.309570312 756 c 0
 146.66796875 754.09765625 164.79296875 753.40234375 184.85546875 753.40234375 c 0
 196.438476562 753.40234375 208.66796875 753.633789062 223.309570312 754 c 0xe8
 237.309570312 754 244.309570312 759 257.309570312 761 c 0
 278.309570312 763 290.309570312 761 311.309570312 764 c 0
 330.309570312 766 340.309570312 770 359.309570312 774 c 0
 377.309570312 778 386.309570312 781 404.309570312 784 c 0
 421.309570312 787 431.309570312 787 449.309570312 788 c 0
 481.734375 789.379882812 504.165039062 791.711914062 530.390625 791.711914062 c 0
 542.1796875 791.711914062 554.734375 791.240234375 569.309570312 790 c 0
 579.309570312 789 586.309570312 785 591.309570312 776 c 0
 596.309570312 767 601.309570312 755 592.309570312 750 c 0
 585.770507812 746.154296875 579.67578125 744.970703125 573.513671875 744.970703125 c 0
 563.65234375 744.970703125 553.6171875 748 541.309570312 748 c 0
 526.109375 748 516.029296875 749.280273438 502.876953125 749.280273438 c 0
 499.58984375 749.280273438 496.109375 749.200195312 492.309570312 749 c 0
 476.309570312 748 468.309570312 744 452.309570312 741 c 0
 438.309570312 738 431.309570312 737 417.309570312 734 c 0
 406.309570312 732 400.309570312 731 389.309570312 728 c 0
 379.309570312 725 374.309570312 722 364.309570312 720 c 0
 354.309570312 718 348.309570312 717 337.309570312 716 c 0
 329.309570312 715 323.309570312 720 317.309570312 715 c 0
 313.309570312 712 320.309570312 707 321.309570312 702 c 0
 323.309570312 689 325.309570312 681 325.309570312 668 c 0xd8
 325.67578125 648.966796875 325.907226562 632.880859375 325.907226562 617.584960938 c 0
 325.907226562 591.090820312 325.2109375 566.966796875 323.309570312 534 c 0xd4
 322.309570312 514 319.309570312 502 316.309570312 482 c 0
 313.309570312 465 311.309570312 455 309.309570312 438 c 0
 306.309570312 416 305.309570312 404 303.309570312 382 c 0
 301.309570312 362 300.309570312 352 297.309570312 332 c 0
 295.309570312 316 293.309570312 308 290.309570312 292 c 0
 285.309570312 269 282.309570312 255 277.309570312 232 c 0
 273.309570312 217 269.309570312 209 267.309570312 194 c 0
 265.309570312 180 265.309570312 172 265.309570312 158 c 0
 265.309570312 148 264.865234375 141.111328125 264.865234375 133.185546875 c 0
 264.865234375 129.22265625 264.975585938 125 265.309570312 120 c 0
 266.309570312 111 267.309570312 106 271.309570312 98 c 0
 273.309570312 95 275.309570312 92 279.309570312 92 c 0
 297.309570312 92 307.309570312 93 325.309570312 97 c 0xd8
 338.309570312 100 344.309570312 107 357.309570312 110 c 0
 377.309570312 115 388.309570312 114 408.309570312 118 c 0
 422.309570312 121 429.309570312 123 443.309570312 126 c 0
 464.309570312 130 476.309570312 133 497.309570312 137 c 0
 507.309570312 139 513.309570312 138 523.309570312 141 c 0
 528.309570312 143 528.309570312 147 533.309570312 150 c 0
 537.309570312 153 539.309570312 155 543.309570312 156 c 0
 551.309570312 158 556.309570312 161 565.309570312 158 c 0
 571.309570312 156 571.309570312 151 575.309570312 146 c 0
 578.309570312 142 580.309570312 139 581.309570312 134 c 0
 582.309570312 131 583.309570312 128 581.309570312 125 c 0
 577.309570312 118 573.309570312 115 567.309570312 110 c 0
 557.309570312 102 552.309570312 99 540.309570312 93 c 0
 531.309570312 88 525.309570312 86 515.309570312 83 c 0
 498.309570312 77 488.309570312 74 471.309570312 70 c 0
 456.309570312 66 447.309570312 67 431.309570312 63 c 0
 415.309570312 59 406.309570312 54 390.309570312 49 c 0
 377.309570312 45 370.309570312 44 357.309570312 42 c 0
 343.309570312 39 335.309570312 38 321.309570312 36 c 0
 307.309570312 34 298.309570312 33 284.309570312 30 c 0
 274.309570312 28 269.309570312 26 259.309570312 23 c 0
 250.309570312 20 244.309570312 19 235.309570312 16 c 0
 230.309570312 15 228.309570312 13 223.309570312 12 c 0
 209.309570312 9 201.309570312 5 187.309570312 4 c 0
 159.423828125 1.67578125 141.138671875 -0.6474609375 117.581054688 -0.6474609375 c 0
 110.725585938 -0.6474609375 103.423828125 -0.451171875 95.3095703125 0 c 0
 84.3095703125 1 80.3095703125 8 69.3095703125 10 c 0
 58.3095703125 12 52.3095703125 10 41.3095703125 12 c 0
 31.3095703125 14 25.3095703125 16 17.3095703125 22 c 0
 9.3095703125 28 4.3095703125 33 1.3095703125 43 c 0
 -0.380859375 48.072265625 -1 52.4287109375 -1 56.7509765625 c 0
 -1 62.6552734375 0.154296875 68.494140625 1.3095703125 76 c 0
 2.3095703125 84 4.3095703125 88 9.3095703125 94 c 0
 14.3095703125 100 19.3095703125 103 27.3095703125 104 c 0
 34.0810546875 105.354492188 39.62890625 105.893554688 45.05859375 105.893554688 c 0
 51.6572265625 105.893554688 58.0810546875 105.096679688 66.3095703125 104 c 0
 71.3095703125 103 73.3095703125 100 78.3095703125 98 c 0
 83.3095703125 96 87.3095703125 95 92.3095703125 92 c 0
 95.3095703125 90 97.3095703125 89 98.3095703125 86 c 0
 100.309570312 82 102.309570312 79 99.3095703125 76 c 0
 95.3095703125 72 90.3095703125 73 84.3095703125 73 c 0
 79.3095703125 73 77.3095703125 75 72.3095703125 75 c 0
 69.3095703125 75 65.3095703125 75 65.3095703125 72 c 0
 65.3095703125 68 68.3095703125 65 71.3095703125 64 c 0
 78.3095703125 61 82.3095703125 62 89.3095703125 62 c 0
 127.309570312 63 149.309570312 63 187.309570312 66 c 0
 195.309570312 67 204.309570312 65 206.309570312 72 c 0
 216.309570312 120 210.309570312 149 215.309570312 198 c 0
 218.309570312 229 223.309570312 247 228.309570312 278 c 0
 231.309570312 299 235.309570312 311 237.309570312 332 c 0
 242.309570312 374 241.309570312 397 247.309570312 439 c 0
 251.309570312 466 255.309570312 480 263.309570312 507 c 0
 264.309570312 511 269.309570312 512 269.309570312 516 c 0
 270.524414062 545.166015625 272.478515625 566.948242188 272.478515625 590.319335938 c 0
 272.478515625 605.411132812 271.6640625 621.166015625 269.309570312 640 c 0xd4
 268.309570312 651 255.309570312 651 251.309570312 662 c 0
 250.591796875 664.010742188 250.306640625 666.08203125 250.306640625 668.177734375 c 0
 250.306640625 676.245117188 254.530273438 684.659179688 254.530273438 691.223632812 c 0
 254.530273438 694.828125 253.255859375 697.875 249.309570312 700 c 0
 241.688476562 704.502929688 234.547851562 706.006835938 227.430664062 706.006835938 c 0
 213.999023438 706.006835938 200.649414062 700.653320312 184.309570312 700 c 0
 181.309570312 700 180.309570312 698 177.309570312 697 c 0
 168.309570312 695 162.309570312 693 153.309570312 694 c 0
 150.309570312 694 152.309570312 699 149.309570312 700 c 0
 145.008789062 700.806640625 141.142578125 701.03515625 137.495117188 701.03515625 c 0
 132.727539062 701.03515625 128.3359375 700.64453125 123.841796875 700.64453125 c 0
 118.984375 700.64453125 114.0078125 701.100585938 108.309570312 703 c 0
 94.3095703125 707 87.3095703125 713 75.3095703125 722 c 0
 63.3095703125 731 56.3095703125 737 47.3095703125 750 c 0
 44.3095703125 754 43.3095703125 758 46.3095703125 762 c 0xe8
EndSplineSet
Validated: 1
EndChar

StartChar: J
Encoding: 74 74 20
Width: 631
Flags: HMW
HStem: 687 87 739 37 739 47
VStem: 335.255 71
LayerCount: 2
Fore
SplineSet
1.2548828125 732 m 0x90
 1.0830078125 733.458007812 1 734.857421875 1 736.203125 c 0
 1 750.543945312 10.4560546875 758.772460938 23.2548828125 767 c 0
 33.2548828125 773 41.2548828125 766 53.2548828125 763 c 0
 63.2548828125 761 69.2548828125 757 79.2548828125 754 c 0
 104.254882812 747 118.254882812 742 143.254882812 736 c 0
 153.952148438 733.53125 161.263671875 731.740234375 170.76171875 731.740234375 c 0
 172.806640625 731.740234375 174.952148438 731.823242188 177.254882812 732 c 0
 198.254882812 734 209.254882812 738 229.254882812 744 c 0
 247.254882812 749 258.254882812 752 275.254882812 760 c 0
 283.254882812 764 284.254882812 773 292.254882812 774 c 0x90
 294.1640625 774.318359375 295.947265625 774.458984375 297.64453125 774.458984375 c 0
 306.609375 774.458984375 313.1640625 770.522460938 323.254882812 768 c 0
 333.254882812 765 337.254882812 759 347.254882812 758 c 0
 359.301757812 757.073242188 368.986328125 756.361328125 378.59765625 756.361328125 c 0
 389.73046875 756.361328125 400.804418099 757.109907057 415.254882812 760 c 0
 430.254882812 763 436.965160649 768.179786232 452 771 c 0
 455.883789062 771.728515625 460.637695312 773 464 773 c 4
 472.051757812 773 478.173828125 775.512695312 486.85546875 775.512695312 c 0
 489.485351562 775.512695312 492.26171875 775.647460938 495.254882812 776 c 0x50
 517.254882812 778 529.254882812 785 551.254882812 787 c 0
 557.366210938 787.763671875 562.456054688 788.08984375 567.305664062 788.08984375 c 0
 575.151367188 788.08984375 582.366210938 787.236328125 592.254882812 786 c 0
 596.504882812 785.5 600.504882812 785.4375 604.317382812 785.4375 c 0
 605.587890625 785.4375 606.837890625 785.444335938 608.069335938 785.444335938 c 0
 617.921875 785.444335938 626.587890625 785 635.254882812 777 c 0
 641.661132812 771.234375 646.8359375 761.774414062 646.8359375 753.879882812 c 0
 646.8359375 749.452148438 645.208007812 745.515625 641.254882812 743 c 0
 632.474609375 737.87890625 624.364257812 736.370117188 616.286132812 736.370117188 c 0
 604.711914062 736.370117188 593.205078125 739.466796875 579.892578125 739.466796875 c 0
 577.098632812 739.466796875 574.225585938 739.330078125 571.254882812 739 c 0x30
 543.254882812 736 528.254882812 733 500.254882812 728 c 0
 478.254882812 724 465.254882812 723 443.254882812 718 c 0
 425.254882812 714 416.254882812 711 398.254882812 707 c 0
 388.254882812 705 378.254882812 710 372.254882812 702 c 0
 367.254882812 696 378.254882812 693 381.254882812 686 c 0
 386.254882812 673 389.254882812 665 391.254882812 652 c 0
 391.807617188 648.68359375 391.978515625 645.671875 391.978515625 642.797851562 c 0
 391.978515625 638.146484375 391.53125 633.853515625 391.53125 629.202148438 c 0
 391.53125 626.328125 391.702148438 623.31640625 392.254882812 620 c 0
 395.254882812 606 402.254882812 599 403.254882812 584 c 0
 406.213867188 543.760742188 407.071289062 514.02734375 407.071289062 482.365234375 c 0
 407.071289062 460.521484375 406.663085938 437.760742188 406.254882812 410 c 0
 406.254882812 384 406.254882812 369 399.254882812 344 c 0
 396.254882812 334 384.254882812 334 381.254882812 324 c 0
 373.254882812 298 377.254882812 283 371.254882812 256 c 0
 367.254882812 236 361.254882812 226 355.254882812 206 c 0
 349.254882812 187 346.254882812 177 340.254882812 158 c 0
 334.254882812 141 330.254882812 132 324.254882812 116 c 0
 320.254882812 104 320.254882812 98 315.254882812 86 c 0
 310.254882812 74 306.254882812 68 299.254882812 58 c 0
 291.254882812 47 287.254882812 41 277.254882812 32 c 0
 266.254882812 22 261.254882812 11 246.254882812 8 c 0
 233.209960938 5.314453125 222.079101562 4.3955078125 211.336914062 4.3955078125 c 0
 194.080078125 4.3955078125 177.826171875 6.767578125 156.254882812 8 c 0
 141.254882812 9 132.254882812 9 118.254882812 17 c 0
 101.254882812 26 94.2548828125 36 81.2548828125 50 c 0
 68.2548828125 64 63.2548828125 74 53.2548828125 90 c 0
 49.2548828125 97 45.2548828125 100 44.2548828125 108 c 0
 43.4267578125 118.76953125 42.94140625 127.651367188 42.94140625 136.28125 c 0
 42.94140625 148.485351562 43.912109375 160.18359375 46.2548828125 176 c 0
 47.2548828125 180 52.2548828125 180 56.2548828125 180 c 0
 63.2548828125 180 66.2548828125 180 73.2548828125 178 c 0
 76.2548828125 177 78.2548828125 175 80.2548828125 172 c 0
 85.2548828125 164 85.2548828125 158 91.2548828125 150 c 0
 98.2548828125 141 103.254882812 137 112.254882812 130 c 0
 120.254882812 123 127.254882812 121 135.254882812 114 c 0
 143.254882812 107 147.254882812 103 155.254882812 96 c 0
 160.254882812 92 162.254882812 90 167.254882812 86 c 0
 170.254882812 83 171.254882812 78 175.254882812 78 c 0
 184.374023438 77.1318359375 191.796875 76.451171875 198.9140625 76.451171875 c 0
 208.185546875 76.451171875 216.940429688 77.60546875 228.254882812 81 c 0
 237.254882812 84 238.254882812 92 243.254882812 100 c 0
 250.254882812 110 256.254882812 115 260.254882812 126 c 0
 264.254882812 137 261.254882812 144 265.254882812 156 c 0
 271.254882812 177 277.254882812 188 284.254882812 208 c 0
 289.254882812 223 292.254882812 231 297.254882812 246 c 0
 311.254882812 290 321.254882812 315 331.254882812 360 c 0
 335.254882812 378 334.254882812 389 335.254882812 408 c 0
 337.934570312 462.482421875 341.411132812 495.42578125 341.411132812 545.305664062 c 0
 341.411132812 551.272460938 341.361328125 557.482421875 341.254882812 564 c 0
 341.254882812 580 334.254882812 588 332.254882812 603 c 0
 331.254882812 609.333007812 331.032226562 614.888671875 331.032226562 620.185546875 c 0
 331.032226562 624.421875 331.174804688 628.493164062 331.174804688 632.6640625 c 0
 331.174804688 638.919921875 330.854492188 645.400390625 329.254882812 653 c 0
 326.254882812 665 322.254882812 670 315.254882812 680 c 0
 312.254882812 684 309.254882812 687 304.254882812 687 c 0
 279.254882812 687 264.254882812 683 239.254882812 680 c 0
 212.254882812 677 196.254882812 672 169.254882812 670 c 0
 165.50390625 669.732421875 162.182617188 669.607421875 159.0625 669.607421875 c 0
 150.537109375 669.607421875 143.50390625 670.536132812 133.254882812 672 c 0
 111.254882812 674 98.2548828125 676 76.2548828125 680 c 0
 69.2548828125 681 66.2548828125 684 60.2548828125 686 c 0
 49.2548828125 691 41.2548828125 691 31.2548828125 698 c 0
 17.2548828125 709 3.2548828125 714 1.2548828125 732 c 0x90
EndSplineSet
Validated: 524289
EndChar

StartChar: K
Encoding: 75 75 21
Width: 462
Flags: HMW
VStem: 1.0334 36 157.033 67
LayerCount: 2
Fore
SplineSet
73.033203125 375 m 0
 78.033203125 401 74.033203125 416 78.033203125 442 c 0
 80.033203125 456 84.033203125 465 88.033203125 479 c 0
 92.033203125 491 95.033203125 498 98.033203125 511 c 0
 103.033203125 533 105.033203125 545 110.033203125 567 c 0
 115.033203125 591 118.033203125 605 124.033203125 629 c 0
 130.033203125 653 134.033203125 667 140.033203125 691 c 0
 147.033203125 721 144.033203125 739 157.033203125 767 c 0
 164.033203125 781 173.033203125 787 187.033203125 793 c 0
 197.033203125 797 206.033203125 796 214.033203125 789 c 0
 221.670898438 781.362304688 224.267578125 773.724609375 224.267578125 764.25390625 c 0
 224.267578125 762.564453125 224.184570312 760.81640625 224.033203125 759 c 0
 222.033203125 742 213.033203125 735 207.033203125 719 c 0
 194.033203125 681 186.033203125 660 177.033203125 622 c 0
 173.033203125 604 176.033203125 593 172.033203125 575 c 0
 168.033203125 557 162.033203125 549 156.033203125 532 c 0
 146.033203125 505 138.033203125 491 132.033203125 464 c 0
 130.174804688 455.44921875 129.8359375 448.004882812 129.8359375 440.84375 c 0
 129.8359375 436.740234375 129.947265625 432.73046875 129.947265625 428.659179688 c 0
 129.947265625 420.721679688 129.524414062 412.55078125 127.033203125 403 c 0
 125.033203125 396 117.033203125 396 114.033203125 389 c 0
 113.033203125 386 115.033203125 382 118.033203125 381 c 0
 125.033203125 378 129.033203125 376 135.033203125 379 c 0
 139.033203125 381 136.033203125 387 139.033203125 390 c 0
 168.033203125 420 186.033203125 436 217.033203125 465 c 0
 239.033203125 485 253.033203125 495 274.033203125 516 c 0
 310.033203125 551 328.033203125 574 364.033203125 609 c 0
 402.033203125 645 413.033203125 658 456.033203125 693 c 0
 458.172851562 694.833984375 460.381835938 695.639648438 462.547851562 695.639648438 c 0
 471.176757812 695.639648438 479.104492188 682.8359375 479.104492188 671.23046875 c 0
 479.104492188 666.69140625 477.891601562 662.334960938 475.033203125 659 c 0
 423.033203125 599 381.033203125 562 331.033203125 489 c 0
 324.091796875 479.166015625 322.169921875 469.666992188 322.169921875 459.340820312 c 0
 322.169921875 451.81640625 323.190429688 443.852539062 324.033203125 435 c 0
 327.033203125 409 336.033203125 397 343.033203125 369 c 0
 355.033203125 320 349.033203125 291 361.033203125 243 c 0
 374.033203125 191 385.033203125 163 406.033203125 114 c 0
 410.033203125 105 424.033203125 106 424.033203125 96 c 0
 424.033203125 87 415.033203125 83 406.033203125 81 c 0
 395.033203125 79 386.033203125 79 379.033203125 87 c 0
 352.033203125 116 338.033203125 135 322.033203125 171 c 0
 303.033203125 213 303.033203125 239 295.033203125 285 c 0
 288.033203125 323 287.033203125 345 283.033203125 384 c 0
 282.666015625 387.0625 282.5234375 390.065429688 282.5234375 393.008789062 c 0
 282.5234375 403.135742188 284.209960938 412.552734375 284.209960938 421.2578125 c 0
 284.209960938 430.669921875 282.23828125 439.250976562 274.033203125 447 c 0
 271.94140625 448.916992188 269.94140625 449.741210938 268 449.741210938 c 0
 258.8046875 449.741210938 250.94140625 431.256835938 241.033203125 423 c 0
 205.033203125 393 181.033203125 380 151.033203125 345 c 0
 136.033203125 327 145.033203125 304 127.033203125 288 c 0
 118.033203125 280 111.033203125 303 100.033203125 300 c 0
 91.033203125 298 90.033203125 288 88.033203125 279 c 0
 87.3046875 275.359375 87.0478515625 272.071289062 87.0478515625 268.965820312 c 0
 87.0478515625 261.530273438 88.5205078125 255.13671875 88.5205078125 247.430664062 c 0
 88.5205078125 245.095703125 88.3857421875 242.640625 88.033203125 240 c 0
 83.033203125 207 79.033203125 188 70.033203125 156 c 0
 62.033203125 126 51.033203125 111 43.033203125 81 c 0
 38.033203125 60 43.033203125 45 37.033203125 24 c 0
 34.033203125 13 30.033203125 -3 19.033203125 0 c 0
 5.033203125 4 3.033203125 18 1.033203125 33 c 0
 0.3173828125 38.490234375 0 43.4677734375 0 48.1767578125 c 0
 0 63.1962890625 3.2265625 75.490234375 7.033203125 93 c 0
 30.033203125 204 50.033203125 264 73.033203125 375 c 0
EndSplineSet
Validated: 1
EndChar

StartChar: a
Encoding: 97 97 22
Width: 426
Flags: HMW
HStem: 119.286 0.297432G<124.963 126.243> 127.501 0.637353 127.657 0.793151
VStem: 118.14 11.2589<122.289 122.544> 118.651 13.9883 118.822 15.0119
LayerCount: 2
Fore
SplineSet
302.494140625 199.540039062 m 0xb0
 293.793945312 190.299804688 289.444335938 183.370117188 279.874023438 174.900390625 c 0
 268.564453125 164.120117188 263.34375 157.959960938 249.423828125 149.490234375 c 0
 235.50390625 141.01953125 225.934570312 138.709960938 210.274414062 131.780273438 c 0
 195.484375 124.849609375 187.654296875 119.459960938 171.994140625 114.83984375 c 0
 151.984375 108.6796875 139.803710938 107.139648438 119.793945312 104.830078125 c 0
 111.97265625 104.137695312 105.557617188 103.756835938 99.28515625 103.756835938 c 0
 91.6025390625 103.756835938 84.1328125 104.328125 74.5537109375 105.599609375 c 0
 64.984375 107.139648438 59.763671875 110.219726562 51.9345703125 114.0703125 c 0
 41.494140625 119.459960938 34.5341796875 122.540039062 25.833984375 131.009765625 c 0
 16.263671875 140.25 10.173828125 145.639648438 4.9541015625 157.190429688 c 0
 2.537109375 162.323242188 2 166.505859375 2 170.926757812 c 0
 2 174.462890625 2.34375 178.151367188 2.34375 182.599609375 c 0
 2.34375 196.459960938 4.083984375 204.9296875 6.6943359375 218.790039062 c 0
 9.3037109375 231.110351562 9.3037109375 238.040039062 14.5244140625 249.58984375 c 0
 19.744140625 262.6796875 25.833984375 269.610351562 32.7939453125 281.9296875 c 0
 39.75390625 294.25 41.494140625 301.950195312 49.32421875 313.5 c 0
 55.4140625 321.969726562 61.50390625 325.8203125 67.59375 334.290039062 c 0
 76.2939453125 345.83984375 77.1640625 353.540039062 86.734375 365.08984375 c 0
 101.524414062 383.5703125 111.09375 392.809570312 127.624023438 409.75 c 0
 136.32421875 418.990234375 142.4140625 423.610351562 152.854492188 431.309570312 c 0
 171.124023438 445.940429688 181.564453125 453.639648438 199.833984375 467.5 c 0
 216.364257812 479.8203125 225.064453125 488.290039062 242.463867188 499.0703125 c 0
 253.774414062 506 260.734375 507.540039062 272.9140625 512.9296875 c 0
 282.484375 517.549804688 287.704101562 522.940429688 298.14453125 525.25 c 0
 308.583984375 527.559570312 314.673828125 526.01953125 325.114257812 526.01953125 c 0xb0
 332.421875 526.01953125 337.850585938 526.8515625 343.467773438 526.8515625 c 0
 347.211914062 526.8515625 351.040039062 526.482421875 355.564453125 525.25 c 0
 361.654296875 523.709960938 362.524414062 516.780273438 367.744140625 514.469726562 c 0
 375.57421875 510.620117188 380.793945312 510.620117188 388.624023438 509.080078125 c 0
 398.194335938 507.540039062 405.154296875 512.16015625 412.984375 507.540039062 c 0
 419.07421875 503.690429688 419.07421875 497.530273438 418.204101562 491.370117188 c 0
 417.333984375 486.75 414.723632812 483.669921875 410.374023438 480.58984375 c 0
 404.284179688 476.740234375 400.803710938 474.4296875 392.973632812 474.4296875 c 0xc8
 380.793945312 474.4296875 374.704101562 478.280273438 362.524414062 480.58984375 c 0
 353.82421875 482.129882812 348.604492188 483.669921875 339.034179688 482.900390625 c 0
 325.114257812 482.129882812 317.284179688 480.58984375 305.104492188 475.969726562 c 0
 283.354492188 467.5 271.173828125 462.110351562 252.034179688 449.790039062 c 0
 232.89453125 438.240234375 223.32421875 430.540039062 206.793945312 415.91015625 c 0
 187.654296875 398.969726562 178.083984375 388.190429688 161.553710938 369.709960938 c 0
 152.854492188 360.469726562 148.50390625 354.309570312 140.673828125 344.299804688 c 0
 133.713867188 335.830078125 129.364257812 331.98046875 123.274414062 322.740234375 c 0
 112.833984375 308.110351562 108.484375 298.870117188 99.7841796875 283.469726562 c 0
 90.2138671875 265.759765625 84.994140625 255.75 76.2939453125 238.040039062 c 0
 71.07421875 228.030273438 70.2041015625 221.099609375 64.1142578125 211.08984375 c 0
 62.3740234375 208.009765625 58.0244140625 208.009765625 57.154296875 204.9296875 c 0
 56.2841796875 199.924804688 55.6318359375 195.690429688 55.6318359375 191.55078125 c 0
 55.6318359375 187.412109375 56.2841796875 183.370117188 58.0244140625 178.75 c 0
 61.50390625 168.740234375 64.984375 163.349609375 74.5537109375 157.190429688 c 0
 83.25390625 151.799804688 90.2138671875 151.799804688 100.654296875 151.030273438 c 0
 105.970703125 150.44140625 110.526367188 150.190429688 114.90234375 150.190429688 c 0
 121.981445312 150.190429688 128.590820312 150.848632812 137.194335938 151.799804688 c 0
 145.89453125 152.5703125 149.374023438 155.650390625 157.204101562 158.73046875 c 0
 166.774414062 163.349609375 171.994140625 166.4296875 181.564453125 171.049804688 c 2
 204.184570312 181.059570312 l 2
 213.75390625 185.6796875 221.583984375 185.6796875 229.4140625 191.83984375 c 0
 241.59375 200.309570312 245.944335938 206.469726562 255.513671875 217.25 c 0
 263.34375 225.719726562 268.564453125 230.33984375 275.524414062 240.349609375 c 0
 281.614257812 249.58984375 283.354492188 255.75 287.704101562 264.990234375 c 0
 292.053710938 273.459960938 295.534179688 278.849609375 299.883789062 287.3203125 c 0
 305.104492188 298.099609375 307.713867188 304.259765625 311.194335938 315.040039062 c 0
 314.673828125 325.049804688 317.284179688 331.209960938 319.024414062 341.990234375 c 0
 319.458984375 344.877929688 319.622070312 347.4765625 319.622070312 349.930664062 c 0
 319.622070312 357.293945312 318.154296875 363.357421875 318.154296875 372.01953125 c 2
 318.154296875 398.969726562 l 2xa4
 318.154296875 409.049804688 316.313476562 415.872070312 316.313476562 424.174804688 c 0
 316.313476562 427.288085938 316.572265625 430.610351562 317.284179688 434.389648438 c 0
 319.024414062 441.3203125 322.50390625 445.940429688 328.59375 450.559570312 c 0
 337.293945312 456.719726562 343.383789062 460.5703125 353.82421875 461.33984375 c 0
 363.39453125 462.110351562 368.614257812 459.799804688 377.314453125 455.1796875 c 0
 383.404296875 452.099609375 386.013671875 449.01953125 388.624023438 443.629882812 c 0xa8
 392.973632812 432.080078125 393.84375 424.379882812 394.713867188 412.059570312 c 0xa4
 394.833007812 410.375976562 394.88671875 408.778320312 394.88671875 407.244140625 c 0
 394.88671875 397.548828125 392.736328125 390.356445312 391.234375 379.719726562 c 0
 389.494140625 361.240234375 388.624023438 350.459960938 386.013671875 331.98046875 c 0
 384.274414062 318.120117188 382.534179688 309.650390625 379.923828125 295.790039062 c 0
 377.314453125 281.9296875 372.963867188 275 371.223632812 261.139648438 c 0
 370.7890625 256.712890625 370.625976562 252.814453125 370.625976562 249.180664062 c 0
 370.625976562 238.280273438 372.09375 229.762695312 372.09375 216.48046875 c 2
 372.09375 174.129882812 l 1
 372.09375 135.629882812 l 2
 372.09375 127.416992188 369.774414062 121.256835938 369.774414062 114.640625 c 0
 369.774414062 111.33203125 370.354492188 107.91015625 372.09375 104.059570312 c 0
 373.833984375 99.4404296875 381.6640625 100.98046875 386.013671875 104.059570312 c 0
 392.973632812 108.6796875 392.973632812 114.0703125 397.32421875 120.23046875 c 0
 401.673828125 125.620117188 403.4140625 128.700195312 408.633789062 132.549804688 c 0
 412.984375 135.629882812 417.333984375 136.400390625 422.553710938 136.400390625 c 0
 428.64453125 136.400390625 433.864257812 135.629882812 436.473632812 131.780273438 c 0
 439.954101562 126.389648438 439.083984375 121 436.473632812 114.83984375 c 0
 428.64453125 95.58984375 420.814453125 85.580078125 409.50390625 67.8701171875 c 0
 404.284179688 59.400390625 400.803710938 54.009765625 392.973632812 47.080078125 c 0
 385.14453125 40.150390625 379.923828125 36.2998046875 369.484375 31.6796875 c 0
 363.39453125 28.599609375 359.043945312 27.830078125 352.954101562 27.830078125 c 0
 345.994140625 27.830078125 342.513671875 30.1396484375 335.553710938 32.4501953125 c 0
 327.723632812 34.759765625 319.89453125 33.2197265625 316.4140625 40.150390625 c 0
 314.095703125 45.1337890625 313.416015625 49.5595703125 313.416015625 53.9375 c 0
 313.416015625 60.12890625 314.774414062 66.224609375 314.774414062 73.6669921875 c 0
 314.774414062 74.7822265625 314.744140625 75.9287109375 314.673828125 77.1103515625 c 0
 313.803710938 94.0498046875 311.194335938 103.290039062 311.194335938 120.23046875 c 0
 311.194335938 134.860351562 312.934570312 142.559570312 313.803710938 157.190429688 c 0
 314.673828125 170.280273438 314.673828125 177.98046875 314.673828125 191.0703125 c 0
 314.673828125 196.459960938 317.284179688 200.309570312 314.673828125 204.9296875 c 0
 312.934570312 207.240234375 310.32421875 206.469726562 306.84375 204.9296875 c 0
 304.234375 203.389648438 304.234375 201.849609375 302.494140625 199.540039062 c 0xb0
EndSplineSet
Validated: 1
EndChar

StartChar: b
Encoding: 98 98 23
Width: 341
Flags: HMW
HStem: 412 38
VStem: 90.022 40 302.022 48<250 312>
LayerCount: 2
Fore
SplineSet
138.021484375 412 m 0
 126.021484375 411 115.021484375 409 110.021484375 398 c 0
 107.995117188 393.658203125 107.309570312 389.568359375 107.309570312 385.53515625 c 0
 107.309570312 377.086914062 110.319335938 368.890625 110.319335938 359.163085938 c 0
 110.319335938 357.490234375 110.23046875 355.772460938 110.021484375 354 c 0
 107.021484375 329 102.021484375 315 98.021484375 290 c 0
 94.021484375 265 93.021484375 251 88.021484375 226 c 0
 84.021484375 207 80.021484375 197 76.021484375 178 c 0
 74.021484375 167 76.021484375 161 74.021484375 150 c 0
 73.021484375 141 65.021484375 137 68.021484375 128 c 0
 72.021484375 114 76.021484375 103 90.021484375 98 c 0
 93.8818359375 96.712890625 97.412109375 96.1552734375 100.780273438 96.1552734375 c 0
 110.5 96.1552734375 118.881835938 100.801757812 130.021484375 106 c 0
 153.021484375 116 163.021484375 127 184.021484375 140 c 0
 201.021484375 151 211.021484375 156 226.021484375 168 c 0
 239.021484375 178 247.021484375 184 258.021484375 196 c 0
 267.021484375 206 270.021484375 214 278.021484375 226 c 0
 286.021484375 239 294.021484375 245 298.021484375 260 c 0
 301.592773438 272.142578125 302.103515625 281.224609375 302.103515625 291.982421875 c 0
 302.103515625 296.286132812 302.021484375 300.857421875 302.021484375 306 c 0
 302.021484375 318 304.021484375 325 298.021484375 336 c 0
 290.021484375 352 281.021484375 359 268.021484375 372 c 0
 256.021484375 385 250.021484375 395 234.021484375 402 c 0
 230.061523438 403.697265625 226.500976562 404.274414062 223.091796875 404.274414062 c 0
 215.850585938 404.274414062 209.290039062 401.669921875 201.025390625 401.669921875 c 0
 199.426757812 401.669921875 197.764648438 401.767578125 196.021484375 402 c 0
 174.224609375 403.895507812 162.307617188 412.077148438 141.544921875 412.077148438 c 0
 140.3984375 412.077148438 139.224609375 412.052734375 138.021484375 412 c 0
136.021484375 498 m 0
 134.021484375 486 127.021484375 480 130.021484375 468 c 0
 132.021484375 459 139.021484375 455 148.021484375 452 c 0
 153.427734375 450.198242188 158.0546875 449.6953125 162.510742188 449.6953125 c 0
 168.143554688 449.6953125 173.504882812 450.499023438 179.822265625 450.499023438 c 0
 182.372070312 450.499023438 185.078125 450.368164062 188.021484375 450 c 0
 208.021484375 447 219.021484375 446 238.021484375 440 c 0
 259.021484375 433 272.021484375 429 290.021484375 416 c 0
 306.021484375 404 312.021484375 394 324.021484375 378 c 0
 334.021484375 364 340.021484375 355 346.021484375 338 c 0
 351.021484375 322 349.021484375 312 350.021484375 296 c 0
 350.62890625 285.0625 351.606445312 277.079101562 351.606445312 268.459960938 c 0
 351.606445312 262.893554688 351.198242188 257.0625 350.021484375 250 c 0
 347.021484375 231 344.021484375 220 336.021484375 202 c 0
 328.021484375 185 320.021484375 177 308.021484375 162 c 0
 297.021484375 149 291.021484375 143 278.021484375 132 c 0
 263.021484375 120 254.021484375 114 238.021484375 104 c 0
 220.021484375 92 209.021484375 87 190.021484375 76 c 0
 169.021484375 65 159.021484375 55 136.021484375 48 c 0
 130.52734375 46.3095703125 125.747070312 45.6904296875 121.001953125 45.6904296875 c 0
 114.520507812 45.6904296875 108.104492188 46.845703125 100.021484375 48 c 0
 86.021484375 50 80.021484375 59 66.021484375 60 c 0
 59.021484375 61 55.021484375 57 50.021484375 52 c 0
 43.021484375 44 46.021484375 30 36.021484375 28 c 0
 26.021484375 26 25.021484375 39 18.021484375 46 c 0
 12.021484375 52 4.021484375 53 2.021484375 60 c 0
 0.5126953125 65.6572265625 0 70.4609375 0 75.109375 c 0
 0 82.7841796875 1.3984375 90.0341796875 2.021484375 100 c 0
 3.021484375 119 5.021484375 129 8.021484375 148 c 0
 11.021484375 164 13.021484375 174 16.021484375 190 c 0
 19.021484375 208 19.021484375 218 22.021484375 236 c 0
 24.021484375 251 25.021484375 259 28.021484375 274 c 0
 31.021484375 290 33.021484375 300 36.021484375 316 c 0
 39.021484375 332 39.021484375 340 42.021484375 356 c 0
 44.021484375 368 48.021484375 374 50.021484375 386 c 0
 51.021484375 393 53.021484375 398 50.021484375 404 c 0
 45.021484375 414 35.021484375 415 30.021484375 426 c 0
 25.021484375 435 19.021484375 444 26.021484375 452 c 0
 29.515625 456.3671875 33.771484375 457.301757812 38.4580078125 457.301757812 c 0
 41.9619140625 457.301757812 45.70703125 456.778320312 49.5537109375 456.778320312 c 0
 52.3408203125 456.778320312 55.1806640625 457.052734375 58.021484375 458 c 0
 65.021484375 460 72.021484375 461 74.021484375 468 c 0
 75.5302734375 471.62109375 76.037109375 474.969726562 76.037109375 478.237304688 c 0
 76.037109375 484.935546875 73.90625 491.29296875 73.90625 498.969726562 c 0
 73.90625 499.956054688 73.9423828125 500.965820312 74.021484375 502 c 0
 75.021484375 516 77.3828125 523.927734375 80.021484375 538 c 0
 83.021484375 554 85.21875 561.974609375 87 578 c 0
 87.5234375 582.708984375 88 590.099609375 88 594 c 4
 88 602.765625 89.8115234375 608.982421875 89.8115234375 618.36328125 c 0
 89.8115234375 620.763671875 89.87109375 623.291015625 90.021484375 626 c 0
 91.021484375 645 93.021484375 655 96.021484375 674 c 0
 98.021484375 690 100.021484375 698 104.021484375 714 c 0
 107.021484375 727 110.021484375 735 114.021484375 748 c 0
 117.021484375 757 114.021484375 766 122.021484375 772 c 0
 129.021484375 778 137.021484375 772 146.021484375 772 c 0
 155.021484375 772 162.021484375 777 168.021484375 770 c 0
 176.825195312 758.555664062 180.203125 747.885742188 180.203125 733.896484375 c 0
 180.203125 731.99609375 180.12890625 730.03515625 180.021484375 728 c 0
 179.021484375 709 174.212890625 698.954101562 170 680 c 0
 168.73046875 674.288085938 167 670.78125 167 666 c 0
 167 659.608398438 163.038085938 654.120117188 163.038085938 647.389648438 c 0
 163.038085938 643.288085938 162.796875 638.911132812 162.021484375 634 c 0
 159.021484375 615 155.021484375 605 150.021484375 586 c 0
 146.021484375 570 143.021484375 562 140.021484375 546 c 0
 137.021484375 527 138.021484375 517 136.021484375 498 c 0
EndSplineSet
Validated: 1
EndChar

StartChar: c
Encoding: 99 99 24
Width: 419
Flags: HMW
HStem: 102 110 472 64
VStem: 3.5485 64
LayerCount: 2
Fore
SplineSet
301.548828125 519 m 0
 310.548828125 512 303.548828125 502 300.548828125 492 c 0
 297.548828125 483 294.548828125 477 286.548828125 472 c 0
 277.548828125 467 271.548828125 469 261.548828125 470 c 0
 250.548828125 471 245.548828125 479 234.548828125 476 c 0
 218.548828125 472 212.548828125 465 199.548828125 454 c 0
 176.548828125 435 164.548828125 423 144.548828125 402 c 0
 130.548828125 388 121.548828125 380 111.548828125 363 c 0
 98.548828125 341 95.548828125 326 87.548828125 302 c 0
 81.548828125 286 79.548828125 276 75.548828125 260 c 0
 71.548828125 241 67.548828125 231 67.548828125 212 c 0
 67.548828125 191 69.548828125 180 73.548828125 159 c 0
 75.548828125 149 75.548828125 142 81.548828125 134 c 0
 93.548828125 118 102.548828125 109 118.548828125 98 c 0
 125.548828125 93 131.548828125 94 139.548828125 94 c 0
 159.548828125 95 171.548828125 97 190.548828125 102 c 0
 205.548828125 106 213.548828125 110 226.548828125 118 c 0
 254.548828125 134 267.548828125 146 294.548828125 164 c 0
 318.548828125 180 328.548828125 195 354.548828125 206 c 0
 367.21484375 211.333007812 377.21484375 214 388.400390625 214 c 0
 393.993164062 214 399.881835938 213.333007812 406.548828125 212 c 0
 417.548828125 209 424.548828125 202 426.548828125 190 c 0
 427.008789062 187.083984375 427.209960938 184.35546875 427.209960938 181.754882812 c 0
 427.209960938 167.411132812 421.087890625 156.9296875 418.548828125 140 c 0
 416.548828125 128 422.548828125 119 414.548828125 110 c 0
 406.548828125 101 396.548828125 100 385.548828125 102 c 0
 372.548828125 104 368.548828125 114 355.548828125 118 c 0
 348.548828125 120 343.548828125 119 337.548828125 116 c 0
 315.548828125 106 303.548828125 97 282.548828125 86 c 0
 254.548828125 72 240.548828125 62 211.548828125 50 c 0
 193.548828125 43 182.548828125 41 163.548828125 38 c 0
 146.163085938 35.8271484375 134.549804688 32.0791015625 120.346679688 32.0791015625 c 0
 114.942382812 32.0791015625 109.163085938 32.6220703125 102.548828125 34 c 0
 83.548828125 38 74.548828125 47 60.548828125 60 c 0
 46.548828125 74 41.548828125 85 31.548828125 102 c 0
 20.548828125 121 11.548828125 130 6.548828125 152 c 0
 3.154296875 166.708984375 2 177.897460938 2 189.73046875 c 0
 2 198.813476562 2.6796875 208.275390625 3.548828125 220 c 0
 5.548828125 249 8.548828125 266 18.548828125 294 c 0
 29.548828125 325 39.548828125 342 57.548828125 370 c 0
 80.548828125 407 97.548828125 425 123.548828125 460 c 0
 136.548828125 477 141.548828125 488 157.548828125 501 c 0
 173.548828125 514 185.548828125 518 205.548828125 526 c 0
 217.424804688 531.481445312 225.127929688 536.127929688 237.807617188 536.127929688 c 0
 239.0078125 536.127929688 240.251953125 536.086914062 241.548828125 536 c 0
 265.548828125 534 282.548828125 534 301.548828125 519 c 0
EndSplineSet
Validated: 1
EndChar

StartChar: d
Encoding: 100 100 25
Width: 458
Flags: HMW
HStem: 80 42<151.626 228.626> 454 46
VStem: 1.6265 60 262.626 57 313.626 52
LayerCount: 2
Fore
SplineSet
286.625976562 448 m 0xf0
 284.625976562 454 277.625976562 456 271.625976562 454 c 0
 253.625976562 448 244.625976562 441 229.625976562 430 c 0
 199.625976562 408 184.625976562 394 157.625976562 369 c 0
 137.625976562 350 126.625976562 340 109.625976562 318 c 0
 95.6259765625 300 84.6259765625 290 77.6259765625 268 c 0
 67.150390625 237.4453125 61.2470703125 216.798828125 61.2470703125 187.430664062 c 0
 61.2470703125 183.157226562 61.3720703125 178.69921875 61.6259765625 174 c 0
 62.6259765625 162 72.6259765625 158 82.6259765625 152 c 0
 107.625976562 137 122.625976562 130 151.625976562 122 c 0
 157.661132812 120.491210938 162.841796875 119.978515625 167.813476562 119.978515625 c 0
 176.0234375 119.978515625 183.661132812 121.376953125 193.625976562 122 c 0
 194.763671875 122.049804688 195.889648438 122.072265625 197.002929688 122.072265625 c 0
 208.53515625 122.072265625 218.807617188 119.653320312 228.357421875 119.653320312 c 0
 236.530273438 119.653320312 244.174804688 121.424804688 251.625976562 128 c 0
 261.064453125 136.258789062 262.5 146.256835938 262.5 157.379882812 c 0
 262.5 162.23828125 262.225585938 167.3125 262.225585938 172.548828125 c 0
 262.225585938 175.645507812 262.321289062 178.799804688 262.625976562 182 c 0
 265.625976562 213 264.625976562 230 266.625976562 261 c 0
 267.625976562 275 267.625976562 284 269.625976562 298 c 0
 273.625976562 323 280.625976562 337 283.625976562 362 c 0
 284.149414062 366.447265625 284.331054688 370.415039062 284.331054688 374.154296875 c 0
 284.331054688 382.559570312 283.416015625 389.810546875 283.416015625 398.75390625 c 0
 283.416015625 401.041992188 283.475585938 403.442382812 283.625976562 406 c 0
 284.381835938 418.079101562 287.986328125 426.739257812 287.986328125 437.142578125 c 0
 287.986328125 440.51953125 287.606445312 444.079101562 286.625976562 448 c 0xf0
365.625976562 748 m 0xe8
 364.625976562 663 356.625976562 615 349.625976562 530 c 0
 338.625976562 401 323.625976562 329 319.625976562 200 c 0xf0
 319.439453125 196.081054688 319.288085938 192.162109375 319.288085938 188.315429688 c 0
 319.288085938 171.545898438 322.171875 156.133789062 337.625976562 148 c 0
 339.723632812 146.801757812 341.685546875 146.276367188 343.553710938 146.276367188 c 0
 354.157226562 146.276367188 361.723632812 163.198242188 373.625976562 170 c 0
 387.625976562 178 396.625976562 181 409.625976562 190 c 0
 420.625976562 197 422.625976562 206 434.625976562 212 c 0
 442.625976562 216 450.625976562 217 457.625976562 212 c 0
 466.625976562 206 473.625976562 198 469.625976562 188 c 0
 462.625976562 170 450.625976562 164 434.625976562 152 c 0
 412.625976562 135 398.625976562 127 373.625976562 114 c 0
 360.625976562 108 352.625976562 109 338.625976562 104 c 0
 328.625976562 100 320.625976562 99 313.625976562 90 c 0xe8
 310.625976562 86 321.625976562 83 319.625976562 78 c 0xf0
 316.625976562 70 312.625976562 63 304.625976562 63 c 0
 293.625976562 64 290.625976562 75 280.625976562 80 c 0
 267.625976562 86 260.625976562 92 245.625976562 92 c 0
 235.625976562 92 233.625976562 80 223.625976562 80 c 0
 214.651367188 79.5830078125 206.4609375 79.3828125 198.727539062 79.3828125 c 0
 169.407226562 79.3828125 146.651367188 82.251953125 112.625976562 87 c 0
 92.6259765625 90 80.6259765625 94 62.6259765625 104 c 0
 43.6259765625 115 32.6259765625 123 19.6259765625 141 c 0
 8.6259765625 155 4.6259765625 166 1.6259765625 184 c 0
 1.19921875 187.6328125 1 190.9921875 1 194.18359375 c 0
 1 205.9296875 3.6953125 215.418945312 7.6259765625 228 c 0
 12.6259765625 244 18.6259765625 253 26.6259765625 267 c 0
 46.6259765625 300 56.6259765625 319 79.6259765625 350 c 0
 91.6259765625 366 101.625976562 373 115.625976562 388 c 0
 126.625976562 401 129.625976562 410 142.625976562 422 c 0
 165.625976562 443 179.625976562 453 205.625976562 471 c 0
 221.625976562 482 229.625976562 489 247.625976562 496 c 0
 258.625976562 500 265.625976562 500 277.625976562 500 c 0
 283.625976562 500 290.625976562 490 292.625976562 496 c 0
 293.834960938 499.384765625 294.284179688 502.477539062 294.284179688 505.432617188 c 0
 294.284179688 513.969726562 290.5390625 521.365234375 290.5390625 531.364257812 c 0
 290.5390625 532.22265625 290.56640625 533.100585938 290.625976562 534 c 0
 297.625976562 622 295.625976562 672 313.625976562 759 c 0
 315.625976562 768 328.625976562 765 337.625976562 765 c 0
 344.625976562 765 348.625976562 762 353.625976562 759 c 0
 358.625976562 756 365.625976562 754 365.625976562 748 c 0xe8
EndSplineSet
Validated: 1
EndChar

StartChar: e
Encoding: 101 101 26
Width: 523
Flags: HMW
HStem: 24 52
LayerCount: 2
Fore
SplineSet
227.698242188 448 m 0
 181.698242188 404 163.698242188 372 129.698242188 318 c 0
 124.698242188 310 124.698242188 300 131.698242188 294 c 0
 145.698242188 282 157.698242188 282 176.698242188 280 c 0
 180.368164062 279.6328125 183.735351562 279.467773438 186.91015625 279.467773438 c 0
 201.038085938 279.467773438 211.368164062 282.734375 227.698242188 286 c 0
 259.698242188 293 277.698242188 298 309.698242188 308 c 0
 322.698242188 312 331.698242188 314 342.698242188 322 c 0
 362.698242188 336 377.698242188 343 390.698242188 364 c 0
 404.020507812 385.31640625 411.033203125 401.900390625 411.033203125 424.9609375 c 0
 411.033203125 427.864257812 410.921875 430.869140625 410.698242188 434 c 0
 409.698242188 454 397.698242188 463 383.698242188 477 c 0
 373.698242188 487 365.698242188 492 350.698242188 494 c 0
 346.698242188 494.5 343.073242188 494.75 339.651367188 494.75 c 0
 329.385742188 494.75 320.948242188 492.5 309.698242188 488 c 0
 276.698242188 476 253.698242188 472 227.698242188 448 c 0
479.698242188 176 m 0
 485.698242188 181 490.698242188 185 497.698242188 183 c 0
 506.698242188 180 510.698242188 174 515.698242188 166 c 0
 520.698242188 158 525.698242188 152 521.698242188 144 c 0
 509.698242188 121 498.698242188 108 476.698242188 93 c 0
 438.698242188 68 414.698242188 59 371.698242188 44 c 0
 339.698242188 33 321.698242188 30 287.698242188 27 c 0
 258.323242188 23.875 237.151367188 22.3125 213.928710938 22.3125 c 0
 199.995117188 22.3125 185.323242188 22.875 167.698242188 24 c 0
 140.698242188 26 125.698242188 30 99.6982421875 38 c 0
 78.6982421875 44 64.6982421875 46 47.6982421875 60 c 0
 32.6982421875 72 29.6982421875 85 20.6982421875 102 c 0
 12.6982421875 117 7.6982421875 125 5.6982421875 142 c 0
 4.0078125 156.649414062 2 168.124023438 2 180.000976562 c 0
 2 189.204101562 3.205078125 198.649414062 6.6982421875 210 c 0
 22.6982421875 263 32.6982421875 294 63.6982421875 340 c 0
 98.6982421875 392 127.698242188 416 173.698242188 459 c 0
 196.698242188 481 211.698242188 492 239.698242188 508 c 0
 270.698242188 525 289.698242188 536 324.698242188 542 c 0
 331.98046875 543.266601562 338.560546875 543.931640625 344.8203125 543.931640625 c 0
 358.331054688 543.931640625 370.346679688 540.833984375 384.698242188 534 c 0
 425.698242188 514 454.698242188 504 479.698242188 466 c 0
 486.897460938 455.413085938 489.43359375 445.004882812 489.43359375 434.3203125 c 0
 489.43359375 419.775390625 484.733398438 404.71875 480.698242188 388 c 0
 474.698242188 362 465.698242188 348 447.698242188 327 c 0
 430.698242188 307 417.698242188 298 393.698242188 288 c 0
 333.698242188 262 297.698242188 248 233.698242188 234 c 0
 219.334960938 230.953125 207.624023438 229.80078125 196.173828125 229.80078125 c 0
 181.317382812 229.80078125 166.899414062 231.741210938 147.698242188 234 c 0
 129.463867188 235.657226562 117.413085938 252.427734375 103.00390625 252.427734375 c 0
 100.02734375 252.427734375 96.951171875 251.711914062 93.6982421875 250 c 0
 73.6982421875 240 77.6982421875 218 74.6982421875 196 c 0
 73.412109375 184.428710938 72.494140625 174.694335938 72.494140625 165.299804688 c 0
 72.494140625 152.775390625 74.126953125 140.857421875 78.6982421875 126 c 0
 82.6982421875 112 89.6982421875 106 102.698242188 99 c 0
 128.698242188 85 144.698242188 79 173.698242188 76 c 0
 185.001953125 74.7080078125 194.741210938 74.146484375 203.926757812 74.146484375 c 0
 223.181640625 74.146484375 240.001953125 76.615234375 263.698242188 80 c 0
 304.698242188 85 327.698242188 90 366.698242188 102 c 0
 391.698242188 110 405.698242188 116 426.698242188 130 c 0
 449.698242188 145 457.698242188 160 479.698242188 176 c 0
EndSplineSet
Validated: 1
EndChar

StartChar: f
Encoding: 102 102 27
Width: 481
Flags: HMW
HStem: 262 49
VStem: 92.8292 68
LayerCount: 2
Fore
SplineSet
48.828125 225 m 0
 40.828125 222 33.828125 226 27.828125 232 c 0
 21.828125 238 23.828125 244 22.828125 252 c 0
 20.828125 262 18.828125 267 20.828125 277 c 0
 21.828125 282 24.828125 285 28.828125 288 c 0
 35.828125 293 41.828125 294 49.828125 296 c 0
 60.828125 299 67.828125 300 78.828125 302 c 0
 91.828125 304 99.828125 304 112.828125 308 c 0
 114.828125 309 114.828125 311 114.828125 313 c 0
 117.828125 334 116.974609375 346.965820312 121.828125 368 c 0
 127.828125 394 134.409179688 403.909179688 140 430 c 0
 140.75 433.5 141 437.078125 141 440 c 0
 141 445.84375 143.828125 452.421875 143.828125 458.015625 c 0
 143.828125 460.8125 144.078125 463.75 144.828125 467 c 0
 148.828125 486 154.228515625 494.849609375 160.828125 513 c 0
 164.828125 524 166 529 169 540 c 0
 172 554 173.35546875 563.109375 176.828125 577 c 0
 178.828125 585 179.2265625 590.330078125 183.828125 598 c 0
 189.828125 608 194 614 198 625 c 0
 203 638 203.536132812 645.107421875 208.828125 659 c 0
 216.828125 680 222 691 231 712 c 4
 235 721 236.94921875 726.947265625 240.828125 736 c 0
 243.828125 743 245 747 248 754 c 0
 252 764 251.28125 770.29296875 256.828125 780 c 0
 260.828125 787 265.828125 790 273.828125 791 c 0
 281.828125 792 285.828125 789 290.828125 784 c 0
 301.828125 775 306.828125 769 312.828125 757 c 0
 321.828125 739 321.828125 726 330.828125 708 c 0
 343.828125 683 352.828125 670 369.828125 647 c 0
 376.828125 637 381.828125 632 391.828125 627 c 0
 399.828125 623 406.828125 622 415.828125 625 c 0
 428.828125 630 431.828125 639 442.828125 646 c 0
 451.828125 652 454.828125 657 464.828125 658 c 0
 469.828125 658 471.828125 653 472.828125 648 c 0
 473.828125 641 471.828125 636 468.828125 629 c 0
 464.828125 620 461.828125 614 453.828125 609 c 0
 442.828125 602 434.828125 602 421.828125 598 c 0
 410.828125 595 405.828125 590 394.828125 590 c 0
 381.828125 590 373.828125 592 361.828125 598 c 0
 350.828125 603 346.828125 610 338.828125 618 c 0
 330.828125 626 325.828125 630 319.828125 640 c 0
 312.828125 653 311.828125 661 305.828125 675 c 0
 300.828125 686 300.828125 693 293.828125 703 c 0
 291.828125 705 288.828125 704 286.828125 702 c 0
 280.828125 694 280.708007812 689.052734375 276.828125 680 c 0
 267.828125 659 262 645 251 625 c 0
 248 619 243.005859375 618.9375 240.828125 613 c 0
 229.828125 583 226.375976562 564.098632812 219.828125 533 c 0
 215.828125 514 210 504 204 486 c 0
 201 479 200.502929688 476.130859375 197.828125 469 c 0
 188.828125 445 187.828125 431 181.828125 406 c 0
 172.828125 373 166.828125 354 158.828125 321 c 0
 157.828125 316 154.828125 309 159.828125 309 c 0
 172.578125 308 183.953125 307.625 194.640625 307.625 c 0
 226.703125 307.625 252.578125 311 290.828125 311 c 0
 324.059570312 311 350.686523438 311.638671875 376.70703125 311.638671875 c 0
 407.065429688 311.638671875 436.59765625 310.76953125 474.828125 307 c 0
 481.828125 306 481.828125 298 481.828125 292 c 0
 481.828125 287 481.828125 279 475.828125 278 c 0
 430.828125 266 403.828125 263 356.828125 260 c 0
 349.581054688 259.456054688 342.924804688 259.241210938 336.64453125 259.241210938 c 0
 312.720703125 259.241210938 294.265625 262.365234375 269.439453125 262.365234375 c 0
 264.815429688 262.365234375 259.970703125 262.256835938 254.828125 262 c 0
 251.081054688 261.826171875 247.341796875 261.75 243.620117188 261.75 c 0
 219.33984375 261.75 195.833984375 264.966796875 176.041992188 264.966796875 c 0
 164.057617188 264.966796875 153.435546875 263.787109375 144.828125 260 c 0
 142.38671875 258.954101562 141.52734375 254.015625 141.52734375 247.008789062 c 0
 141.52734375 233.924804688 144.526367188 213.629882812 145.828125 198 c 0
 146.828125 190 153.828125 187 158.828125 179 c 0
 161.828125 174 160.828125 169 165.828125 166 c 0
 170.828125 163 175.828125 166 181.828125 163 c 0
 187.828125 160 190.828125 156 195.828125 150 c 0
 201.828125 142 205.828125 137 209.828125 127 c 0
 211.828125 123 212.828125 119 209.828125 116 c 0
 204.828125 112 199.828125 112 194.828125 115 c 0
 183.828125 121 182.828125 130 172.828125 137 c 0
 168.828125 140 161.828125 143 160.828125 138 c 0
 158.805664062 127.077148438 158.091796875 118.1171875 158.091796875 109.533203125 c 0
 158.091796875 96.8984375 159.637695312 85.0771484375 160.828125 69 c 0
 160.828125 64 167.828125 64 167.828125 60 c 0
 168.828125 50.5 169.828125 43 169.828125 35.625 c 0
 169.828125 28.25 168.828125 21 165.828125 12 c 0
 162.828125 5 154.828125 7 147.828125 5 c 0
 142.828125 4 137.828125 2 133.828125 5 c 0
 120.828125 14 111.828125 20 105.828125 34 c 0
 94.828125 59 93.828125 75 92.828125 102 c 0
 92.72265625 105.6953125 92.6728515625 109.234375 92.6728515625 112.650390625 c 0
 92.6728515625 141.58984375 96.2509765625 161.6953125 99.828125 193 c 0
 102.828125 217 101.828125 234 106.828125 255 c 0
 107.090820312 255.918945312 107.215820312 256.713867188 107.215820312 257.393554688 c 0
 107.215820312 259.798828125 105.654296875 260.76953125 103.12109375 260.76953125 c 0
 95.4697265625 260.76953125 78.9541015625 251.9140625 69.828125 247 c 0
 58.828125 241 59.828125 229 48.828125 225 c 0
EndSplineSet
EndChar

StartChar: g
Encoding: 103 103 28
Width: 369
Flags: HMW
HStem: -190 60<5.2846 70.785>
LayerCount: 2
Fore
SplineSet
83.7841796875 298 m 0
 103.784179688 359 144.784179688 378 188.784179688 424 c 0
 210.784179688 447 225.784179688 459 252.784179688 476 c 0
 270.784179688 487 283.784179688 491 304.784179688 495 c 0
 309.469726562 495.78125 313.848632812 496.409179688 317.983398438 496.409179688 c 0
 324.440429688 496.409179688 330.297851562 494.876953125 335.784179688 490 c 0
 355.784179688 472 363.784179688 457 374.784179688 433 c 0
 380.35546875 421.0625 383.392578125 411.658203125 383.392578125 400.250976562 c 0
 383.392578125 397.325195312 383.193359375 394.266601562 382.784179688 391 c 0
 380.784179688 373 372.784179688 365 366.784179688 348 c 0
 357.784179688 322 351.784179688 308 342.784179688 282 c 0
 333.784179688 255 329.784179688 240 320.784179688 213 c 0
 312.784179688 190 307.784179688 177 298.784179688 154 c 0
 283.784179688 118 273.784179688 98 258.784179688 62 c 0
 242.784179688 24 233.784179688 2 218.784179688 -36 c 0
 208.784179688 -62 210.784179688 -80 192.784179688 -102 c 0
 163.784179688 -138 144.784179688 -158 102.784179688 -178 c 0
 80.7841796875 -188.666992188 62.7841796875 -190.888671875 42.265625 -190.888671875 c 0
 32.0068359375 -190.888671875 21.1181640625 -190.333007812 8.7841796875 -190 c 0
 1.7841796875 -190 -0.2158203125 -181 -1.2158203125 -174 c 0
 -1.7509765625 -170.516601562 -2 -167.392578125 -2 -164.434570312 c 0
 -2 -156.353515625 -0.1435546875 -149.516601562 2.7841796875 -140 c 0
 4.7841796875 -135 6.7841796875 -131 12.7841796875 -130 c 0
 16.0947265625 -129.548828125 19.224609375 -129.369140625 22.2265625 -129.369140625 c 0
 33.958984375 -129.369140625 43.7578125 -132.112304688 54.8759765625 -132.112304688 c 0
 59.822265625 -132.112304688 65.029296875 -131.569335938 70.7841796875 -130 c 0
 82.7841796875 -127 82.7841796875 -116 92.7841796875 -108 c 0
 109.784179688 -95 123.784179688 -94 138.784179688 -78 c 0
 147.784179688 -68 143.784179688 -58 148.784179688 -46 c 0
 154.784179688 -33 159.784179688 -26 166.784179688 -14 c 0
 182.784179688 16 192.784179688 31 206.784179688 62 c 0
 216.784179688 84 220.784179688 97 228.784179688 120 c 0
 237.784179688 146 241.784179688 160 251.784179688 186 c 0
 259.784179688 206 265.784179688 217 272.784179688 237 c 0
 277.784179688 250 278.784179688 257 282.784179688 270 c 0
 286.784179688 282 287.784179688 288 291.784179688 300 c 0
 293.784179688 307 297.784179688 312 297.784179688 319 c 0
 297.784179688 322 295.784179688 325 292.784179688 326 c 0
 289.784179688 327 286.784179688 326 284.784179688 324 c 0
 278.784179688 318 278.784179688 312 272.784179688 306 c 0
 264.784179688 297 257.784179688 294 248.784179688 286 c 0
 241.784179688 280 237.784179688 275 230.784179688 269 c 0
 214.784179688 255 205.784179688 246 188.784179688 234 c 0
 177.784179688 226 170.784179688 223 158.784179688 218 c 0
 149.784179688 214 143.784179688 212 134.784179688 210 c 0
 127.784179688 209 123.784179688 208 116.784179688 210 c 0
 109.784179688 212 105.784179688 214 100.784179688 218 c 0
 94.7841796875 223 92.7841796875 226 88.7841796875 233 c 0
 84.7841796875 239 81.7841796875 242 80.7841796875 249 c 0
 78.7841796875 256 80.7841796875 261 80.7841796875 268 c 0
 81.7841796875 280 79.7841796875 286 83.7841796875 298 c 0
302.784179688 446 m 0
 244.784179688 402 213.784179688 375 160.784179688 326 c 0
 150.784179688 317 150.784179688 308 142.784179688 298 c 0
 137.784179688 292 131.784179688 290 128.784179688 283 c 0
 125.784179688 276 124.784179688 270 127.784179688 264 c 0
 128.784179688 261 133.784179688 262 136.784179688 264 c 0
 151.784179688 276 171.784179688 278 186.784179688 290 c 0
 219.784179688 316 248.784179688 351 274.784179688 372 c 0
 296.784179688 390 304.784179688 396 331.784179688 420 c 0
 335.784179688 424 334.784179688 430 332.784179688 434 c 0
 328.784179688 440 324.784179688 442 317.784179688 445 c 0
 312.784179688 447 307.784179688 450 302.784179688 446 c 0
EndSplineSet
Validated: 1
EndChar

StartChar: h
Encoding: 104 104 29
Width: 401
Flags: HMW
VStem: 249.48 42
LayerCount: 2
Fore
SplineSet
127.48046875 333 m 2
 114.48046875 294 l 2
 109.48046875 278 105.48046875 268 100.48046875 252 c 0
 94.48046875 234 90.48046875 224 84.48046875 206 c 0
 78.48046875 189 76.48046875 179 71.48046875 161 c 0
 68.48046875 150 65.48046875 144 62.48046875 133 c 0
 60.48046875 125 57.48046875 121 56.48046875 113 c 0
 56.48046875 109 56.48046875 106 59.48046875 104 c 0
 63.48046875 101 68.48046875 98 71.48046875 102 c 0
 93.48046875 127 100.48046875 145 118.48046875 172 c 0
 126.48046875 184 129.48046875 191 137.48046875 202 c 0
 156.48046875 230 167.48046875 246 187.48046875 272 c 0
 205.48046875 296 214.48046875 311 235.48046875 333 c 0
 280.48046875 380 306.48046875 406 355.48046875 449 c 0
 362.48046875 455 367.48046875 459 377.48046875 460 c 0
 385.48046875 461 390.48046875 457 397.48046875 454 c 0
 403.48046875 451 409.48046875 451 412.48046875 444 c 0
 416.48046875 434 415.48046875 427 414.48046875 416 c 0
 413.48046875 402 411.48046875 394 407.48046875 380 c 0
 400.48046875 358 394.48046875 346 386.48046875 324 c 0
 379.48046875 303 374.48046875 291 368.48046875 270 c 0
 363.48046875 251 363.48046875 239 357.48046875 220 c 0
 350.844726562 199.146484375 334.326171875 189.07421875 334.326171875 167.641601562 c 0
 334.326171875 166.462890625 334.375976562 165.250976562 334.48046875 164 c 0
 335.48046875 153 351.48046875 160 362.48046875 156 c 0
 366.48046875 155 371.48046875 154 370.48046875 150 c 0
 368.48046875 141 362.48046875 137 357.48046875 129 c 0
 332.48046875 93 322.48046875 68 291.48046875 38 c 0
 284.48046875 31 274.48046875 36 265.48046875 40 c 0
 257.48046875 44 249.48046875 49 249.48046875 58 c 0
 250.48046875 77 260.48046875 86 267.48046875 104 c 0
 273.48046875 119 275.48046875 128 280.48046875 144 c 0
 290.48046875 172 297.48046875 187 305.48046875 216 c 0
 314.48046875 247 314.48046875 265 323.48046875 296 c 0
 329.48046875 316 334.48046875 326 342.48046875 346 c 0
 345.48046875 354 350.48046875 358 351.48046875 367 c 0
 352.48046875 373 351.48046875 383 345.48046875 382 c 0
 334.48046875 380 333.48046875 370 326.48046875 362 c 0
 261.48046875 283 223.48046875 240 162.48046875 158 c 0
 120.48046875 101 106.48046875 60 61.48046875 6 c 0
 54.48046875 -3 43.48046875 2 32.48046875 3 c 0
 22.48046875 4 12.48046875 1 6.48046875 10 c 0
 1.080078125 17.2001953125 0 24.0400390625 0 31.599609375 c 0
 0 36.6396484375 0.48046875 42 0.48046875 48 c 0
 1.48046875 69 4.48046875 80 9.48046875 101 c 0
 19.48046875 142 25.48046875 164 37.48046875 204 c 0
 47.48046875 237 54.48046875 255 65.48046875 288 c 0
 77.48046875 324 82.48046875 344 94.48046875 380 c 0
 110.48046875 428 121.48046875 454 138.48046875 502 c 0
 148.48046875 529 154.48046875 543 163.48046875 570 c 0
 179.48046875 621 186.48046875 650 202.48046875 701 c 0
 206.48046875 713 210.48046875 720 215.48046875 732 c 0
 222.48046875 750 223.48046875 761 232.48046875 778 c 0
 236.48046875 785 239.48046875 791 246.48046875 794 c 0
 251.48046875 796 256.48046875 796 260.48046875 792 c 0
 268.48046875 784 270.48046875 778 273.48046875 767 c 0
 276.146484375 756.333007812 278.369140625 748.77734375 278.369140625 740.185546875 c 0
 278.369140625 735.888671875 277.813476562 731.333007812 276.48046875 726 c 0
 271.48046875 705 259.48046875 698 250.48046875 678 c 0
 243.48046875 661 242.48046875 651 236.48046875 634 c 0
 232.48046875 624 230.48046875 619 225.48046875 609 c 0
 220.48046875 598 214.48046875 592 211.48046875 580 c 0
 206.48046875 564 210.48046875 553 205.48046875 537 c 0
 202.48046875 527 193.48046875 524 189.48046875 514 c 0
 184.48046875 502 185.48046875 494 180.48046875 481 c 0
 176.48046875 469 171.48046875 462 166.48046875 450 c 0
 162.48046875 439 159.48046875 433 156.48046875 422 c 0
 152.48046875 409 152.48046875 401 148.48046875 387 c 0
 141.48046875 366 135.48046875 354 127.48046875 333 c 2
EndSplineSet
Validated: 1
EndChar

StartChar: i
Encoding: 105 105 30
Width: 290
Flags: HMW
HStem: 593 54
VStem: 152.221 67
LayerCount: 2
Fore
SplineSet
182.223632812 431 m 0
 199.223632812 424 217.223632812 419 219.223632812 401 c 0
 219.309570312 400.180664062 219.3515625 399.388671875 219.3515625 398.619140625 c 0
 219.3515625 381.546875 203.905273438 372.783203125 194.435546875 357 c 0
 188.435546875 347 185.984375 340.153320312 182.435546875 329 c 4
 175.435546875 307 172.502929688 294.877929688 163.223632812 274 c 0
 155.223632812 256 153.435546875 250 146.435546875 231 c 0
 139.435546875 212 136.344726562 197.948242188 128.223632812 179 c 0
 122.223632812 165 116.0390625 154.206054688 109.435546875 141 c 0
 102.435546875 127 101.952148438 106.322265625 93.435546875 93 c 0
 70.4287109375 57.0126953125 84.732421875 71.00390625 72.2236328125 45 c 0
 70.28515625 40.9697265625 65.2236328125 39 61.2236328125 40 c 0
 54.2236328125 41 47.2236328125 42 45.2236328125 49 c 0
 41.919921875 58.9091796875 40.435546875 67 40.435546875 75.44140625 c 0
 40.435546875 82.333984375 41.42578125 89.4599609375 43.2236328125 98 c 0
 48.2236328125 122 59.2236328125 132 68.2236328125 156 c 0
 76.2236328125 179 78.2236328125 193 86.2236328125 217 c 0
 94.2236328125 241 97.4091796875 254.916992188 107.223632812 277 c 0
 111.223632812 286 111.435546875 291 114.435546875 301 c 0
 121.435546875 324 123.233398438 335.28125 130.223632812 358 c 0
 134.223632812 371 137.435546875 377 142.435546875 389 c 0
 146.435546875 399 148.346679688 403.306640625 152.223632812 413 c 0
 154.223632812 418 154.223632812 422 159.223632812 425 c 0
 167.223632812 430 173.223632812 434 182.223632812 431 c 0
245.223632812 647 m 0
 262.223632812 642 273.223632812 639 284.223632812 625 c 0
 291.223632812 616 292.223632812 604 285.223632812 595 c 0
 279.223632812 587 269.223632812 590 259.223632812 593 c 0
 245.223632812 598 238.223632812 605 227.223632812 615 c 0
 223.223632812 619 221.223632812 624 222.223632812 629 c 0
 223.223632812 635 226.223632812 637 231.223632812 641 c 0
 236.223632812 645 239.223632812 649 245.223632812 647 c 0
EndSplineSet
Validated: 524289
EndChar

StartChar: j
Encoding: 106 106 31
Width: 234
Flags: HMW
HStem: 55732.6 7308.22G<-378.313 -299.644> 190204 20828.4
VStem: 850.125 580.936 946.95 556.73 1080.08 229.954
LayerCount: 2
Fore
SplineSet
162 615 m 0xc8
 158 621 150 616 148 622 c 0
 144 629 144 636 148 642 c 0
 154 653 160 660 172 664 c 0
 179 667 187 669 193 662 c 0xc8
 203 649 206 639 206 623 c 0xe0
 206 616 196 621 193 615 c 0
 190 609 194 603 193 596 c 0
 192 589 192 582 185 579 c 0
 179 576 173 580 169 586 c 0
 163 595 168 605 162 615 c 0xc8
148 434 m 0
 153.506835938 442.94921875 161.383789062 449.055664062 169.999023438 449.055664062 c 0
 173.8984375 449.055664062 177.94921875 447.8046875 182 445 c 0
 199 434 202 415 206 394 c 0xe0
 208 381 208 369 208 358 c 0
 208 340 207 324 207 304 c 0
 207 300 207 297 207 293 c 0
 208 261 214 240 214 212 c 0
 214 206 214 200 213 193 c 0
 209 146 201 122 189 76 c 0
 182 45 180 28 168 1 c 0
 148 -40 134 -64 106 -100 c 0
 86 -126 72 -139 46 -157 c 0
 23 -173 8 -180 -19 -184 c 0
 -27 -186 -34 -186 -41 -186 c 0
 -53 -186 -63 -184 -77 -180 c 0
 -87 -177 -92 -170 -96 -158 c 0
 -98 -150 -100 -143 -100 -136 c 0
 -100 -131 -99 -125 -97 -119 c 0
 -78 -64 -60 -36 -35 14 c 0
 -25 34 -19 47 -5 64 c 0
 3 72 10 76 22 76 c 0
 27 76 27 69 24 64 c 0
 15 38 5 27 -5 2 c 0
 -16 -26 -21 -42 -31 -71 c 0
 -35 -81 -40 -84 -41 -96 c 0
 -42 -104 -43 -110 -43 -116 c 0
 -43 -123 -42 -128 -36 -134 c 0
 -30 -142 -24 -129 -17 -123 c 0
 33 -80 67 -63 106 -8 c 0
 131 27 134 58 144 101 c 0
 154 152 153 183 155 235 c 0xd0
 156 258 156 275 156 292 c 0
 156 309 156 326 156 349 c 0
 156 358 159 363 156 371 c 0
 154 380 146 381 145 390 c 0xe0
 144 399 142 407 142 414 c 0
 142 421 143 428 148 434 c 0
EndSplineSet
Validated: 524289
EndChar

StartChar: k
Encoding: 107 107 32
Width: 476
Flags: W
VStem: -1 48.6387<15.4204 130.175>
LayerCount: 2
Fore
SplineSet
286.638671875 799 m 0
 293.638671875 795 298.638671875 788 297.638671875 780 c 0
 294.638671875 760 285.638671875 750 277.638671875 731 c 0
 241.638671875 643 217.638671875 594 186.638671875 505 c 0
 184.638671875 500 189.638671875 494 194.638671875 495 c 0
 211.638671875 500 219.638671875 506 232.638671875 518 c 0
 320.638671875 601 361.638671875 658 451.638671875 737 c 0
 458.638671875 743 467.638671875 736 475.638671875 731 c 0
 483.638671875 726 497.638671875 721 491.638671875 714 c 0
 428.638671875 637 381.638671875 603 313.638671875 531 c 0
 308.638671875 525 302.638671875 522 303.638671875 514 c 0
 306.638671875 494 318.638671875 485 323.638671875 465 c 0
 355.638671875 325 376.638671875 245 397.638671875 103 c 0
 399.638671875 91 391.638671875 82 380.638671875 77 c 0
 371.638671875 73 361.638671875 78 357.638671875 87 c 0
 330.638671875 146 315.638671875 181 303.638671875 245 c 0
 288.638671875 327 297.638671875 376 289.638671875 459 c 0
 288.638671875 468 288.638671875 487 281.638671875 481 c 0
 231.638671875 441 214.638671875 406 167.638671875 363 c 0
 161.638671875 358 150.638671875 367 147.638671875 359 c 0
 104.638671875 256 90.638671875 194 53.638671875 88 c 0
 51.638671875 83 47.638671875 80 47.638671875 75 c 0
 48.638671875 61 54.638671875 54 56.638671875 41 c 0
 57.638671875 31 60.638671875 24 55.638671875 15 c 0
 49.638671875 6 42.638671875 2 31.638671875 0 c 0
 25.638671875 -1 20.638671875 2 17.638671875 7 c 0
 8.638671875 20 4.638671875 28 1.638671875 43 c 0
 0.0322265625 49.95703125 -1 55.482421875 -1 60.955078125 c 0
 -1 65.708984375 -0.220703125 70.421875 1.638671875 76 c 0
 73.638671875 315 117.638671875 448 195.638671875 686 c 0
 203.638671875 712 209.638671875 726 221.638671875 750 c 0
 227.638671875 764 230.638671875 772 241.638671875 783 c 0
 249.638671875 791 255.638671875 791 266.638671875 795 c 0
 273.638671875 798 279.638671875 802 286.638671875 799 c 0
EndSplineSet
Validated: 1
EndChar

StartChar: AE
Encoding: 198 198 33
Width: 644
Flags: HMW
HStem: 392 52 756 30
VStem: 273.194 39 288.194 75<367.5 473.5>
LayerCount: 2
Fore
SplineSet
393.193359375 444 m 0xc0
 403.193359375 448 409.193359375 437 419.193359375 437 c 0
 433.193359375 437 441.193359375 440 453.193359375 446 c 0
 482.193359375 461 497.193359375 472 524.193359375 491 c 0
 543.193359375 504 555.193359375 512 572.193359375 528 c 0
 579.193359375 535 578.193359375 544 587.193359375 549 c 0
 599.028320312 555.762695312 608.00390625 558.237304688 620.162109375 558.237304688 c 0
 622.38671875 558.237304688 624.71875 558.154296875 627.193359375 558 c 0
 636.193359375 558 646.193359375 555 647.193359375 546 c 0
 647.624023438 542.555664062 647.869140625 539.250976562 647.869140625 536.075195312 c 0
 647.869140625 524.49609375 644.610351562 514.631835938 635.193359375 506 c 0
 603.193359375 477 578.193359375 469 540.193359375 449 c 0
 493.193359375 424 469.193359375 402 417.193359375 392 c 0
 413.52734375 391.333007812 409.888671875 391 406.328125 391 c 0
 388.52734375 391 372.693359375 399.333007812 365.193359375 416 c 0
 364.443359375 417.75 364.099609375 419.40625 364.099609375 420.9765625 c 0
 364.099609375 431.96875 380.943359375 438.75 393.193359375 444 c 0xc0
357.193359375 636 m 0
 355.193359375 643 365.193359375 644 372.193359375 648 c 0
 377.193359375 651 383.193359375 649 387.193359375 654 c 0
 394.193359375 662 391.193359375 671 399.193359375 678 c 0
 432.193359375 707 454.193359375 720 491.193359375 743 c 0
 526.193359375 765 545.193359375 782 584.193359375 794 c 0
 589.295898438 795.594726562 594.091796875 796.375 598.713867188 796.375 c 0
 608.5859375 796.375 617.658203125 792.811523438 627.193359375 786 c 0
 635.193359375 781 632.193359375 770 629.193359375 762 c 0
 627.193359375 756 620.193359375 757 615.193359375 756 c 0
 604.193359375 754 597.193359375 758 587.193359375 753 c 0
 555.193359375 736 540.193359375 720 510.193359375 699 c 0
 491.193359375 686 479.193359375 682 462.193359375 666 c 0
 439.193359375 644 432.193359375 626 408.193359375 605 c 0
 402.193359375 600 394.193359375 599 387.193359375 603 c 0
 372.193359375 612 363.193359375 619 357.193359375 636 c 0
261.193359375 579 m 0
 240.193359375 526 241.193359375 492 224.193359375 438 c 0
 208.193359375 389 190.193359375 365 177.193359375 315 c 0
 176.193359375 310 187.193359375 313 191.193359375 315 c 0
 224.193359375 331 241.193359375 344 273.193359375 362 c 0xe0
 279.193359375 365 288.193359375 364 288.193359375 371 c 0xd0
 288.29296875 378.426757812 288.342773438 385.5390625 288.342773438 392.400390625 c 0
 288.342773438 454.829101562 284.204101562 496.426757812 275.193359375 564 c 0
 274.193359375 572 264.193359375 586 261.193359375 579 c 0
245.193359375 687 m 0
 248.193359375 693 256.193359375 690 263.193359375 689 c 0
 271.193359375 688 277.193359375 688 284.193359375 684 c 0
 290.193359375 681 293.193359375 674 298.193359375 675 c 0
 305.193359375 676 310.193359375 676 319.193359375 675 c 0
 331.193359375 674 335.193359375 669 339.193359375 660 c 0
 352.193359375 627 353.193359375 605 357.193359375 570 c 0
 362.193359375 523 363.193359375 497 363.193359375 450 c 0xd0
 363.193359375 404.545898438 359.061523438 376.446289062 359.061523438 334.147460938 c 0
 359.061523438 329.916992188 359.102539062 325.545898438 359.193359375 321 c 0
 360.193359375 281 364.193359375 259 366.193359375 219 c 0
 366.193359375 210 361.193359375 205 366.193359375 197 c 0
 371.193359375 189 380.193359375 181 387.193359375 186 c 0
 479.193359375 251 522.193359375 297 609.193359375 369 c 0
 617.193359375 376 620.193359375 384 630.193359375 387 c 0
 639.193359375 389 648.193359375 388 653.193359375 380 c 0
 656.552734375 373.841796875 659.28515625 367.057617188 659.28515625 360.698242188 c 0
 659.28515625 355.698242188 657.595703125 350.961914062 653.193359375 347 c 0
 562.193359375 263 506.193359375 221 405.193359375 149 c 0
 398.48828125 144.123046875 392.154296875 142.590820312 385.28515625 142.590820312 c 0
 380.88671875 142.590820312 376.268554688 143.21875 371.193359375 144 c 0
 358.193359375 146 349.193359375 150 339.193359375 158 c 0
 330.193359375 165 328.193359375 194 323.193359375 183 c 0
 309.193359375 152 318.193359375 130 312.193359375 96 c 0
 310.193359375 87 308.193359375 82 302.193359375 74 c 0
 298.193359375 69 294.193359375 65 287.193359375 66 c 0
 280.193359375 67 273.193359375 71 273.193359375 78 c 0
 273.049804688 84.482421875 272.983398438 90.7626953125 272.983398438 96.869140625 c 0
 272.983398438 166.70703125 281.645507812 213.896484375 281.645507812 282.026367188 c 0
 281.645507812 290.65234375 281.506835938 299.614257812 281.193359375 309 c 0
 281.193359375 316 272.193359375 321 266.193359375 318 c 0
 222.193359375 296 196.193359375 284 161.193359375 249 c 0
 140.193359375 228 141.193359375 206 128.193359375 179 c 0
 114.193359375 151 106.193359375 135 90.193359375 108 c 0
 76.193359375 84 69.193359375 69 51.193359375 48 c 0
 45.193359375 41 39.193359375 40 29.193359375 39 c 0
 22.193359375 38 17.193359375 38 11.193359375 42 c 0
 4.193359375 46 1.193359375 51 0.193359375 59 c 0
 0.0625 61.3662109375 0 63.578125 0 65.673828125 c 0
 0 79.5224609375 2.7197265625 88.3662109375 6.193359375 104 c 0
 18.193359375 150 24.193359375 176 41.193359375 221 c 0
 61.193359375 275 77.193359375 303 99.193359375 356 c 0
 110.193359375 382 113.193359375 397 125.193359375 422 c 0
 139.193359375 453 151.193359375 469 165.193359375 501 c 0
 198.193359375 573 208.193359375 617 245.193359375 687 c 0
EndSplineSet
Validated: 1
EndChar

StartChar: germandbls
Encoding: 223 223 34
Width: 431
Flags: HMW
HStem: 346 34
VStem: 2.4565 55 78.4565 44 383.456 46
LayerCount: 2
Fore
SplineSet
133.456054688 714 m 4
 214.456054688 714 256.456054688 746 336.456054688 756 c 4
 339.943359375 756.55078125 343.16015625 756.797851562 346.20703125 756.797851562 c 4
 359.762695312 756.797851562 369.943359375 751.899414062 385.456054688 747 c 4
 394.456054688 744 400.456054688 743 407.456054688 735 c 4
 418.456054688 722 425.456054688 713 429.456054688 696 c 4
 430.172851562 692.418945312 430.490234375 689.180664062 430.490234375 686.133789062 c 4
 430.490234375 676.41796875 427.262695312 668.658203125 423.456054688 658 c 4
 417.456054688 642 411.456054688 633 402.456054688 619 c 4
 393.456054688 605 388.456054688 598 377.456054688 585 c 4
 344.456054688 546 324.456054688 527 291.456054688 488 c 4
 268.456054688 461 257.456054688 444 234.456054688 418 c 4
 225.456054688 408 217.456054688 404 210.456054688 394 c 4
 207.456054688 390 205.456054688 385 209.456054688 382 c 4
 217.456054688 377 224.456054688 381 234.456054688 380 c 4
 266.456054688 378 286.456054688 381 317.456054688 374 c 4
 344.456054688 368 360.456054688 361 383.456054688 345 c 4
 403.456054688 331 413.456054688 319 425.456054688 298 c 4
 435.456054688 279 436.456054688 265 438.456054688 244 c 4
 439.606445312 231.921875 441.418945312 222.158203125 441.418945312 212.23828125 c 4
 441.418945312 204.91015625 440.430664062 197.49609375 437.456054688 189 c 4
 424.456054688 151 411.456054688 132 387.456054688 100 c 4
 375.456054688 84 364.456054688 79 347.456054688 68 c 4
 319.456054688 50 303.456054688 37 272.456054688 26 c 4
 263.86328125 23.1357421875 256.63671875 21.8662109375 249.47265625 21.8662109375 c 4
 241.630859375 21.8662109375 233.86328125 23.38671875 224.456054688 26 c 4
 189.456054688 36 170.456054688 45 138.456054688 64 c 4
 128.017578125 70.642578125 119.380859375 77.28515625 119.380859375 88.201171875 c 4
 119.380859375 88.7880859375 119.405273438 89.3876953125 119.456054688 90 c 4
 120.456054688 100 131.456054688 105 141.456054688 104 c 4
 159.456054688 102 165.456054688 89 182.456054688 82 c 4
 197.276367188 75.5166015625 206.090820312 69.890625 221.614257812 69.890625 c 4
 222.849609375 69.890625 224.12890625 69.92578125 225.456054688 70 c 4
 248.456054688 71 260.456054688 78 281.456054688 88 c 4
 299.456054688 96 309.456054688 103 324.456054688 116 c 4
 336.456054688 126 340.456054688 135 350.456054688 147 c 4
 366.456054688 167 378.456054688 175 389.456054688 198 c 4
 395.856445312 211.599609375 396.49609375 222 396.49609375 235.34375 c 4
 396.49609375 238.6796875 396.456054688 242.200195312 396.456054688 246 c 4
 396.456054688 248.666992188 396.484375 251.194335938 396.484375 253.616210938 c 4
 396.484375 265.72265625 395.790039062 275.166992188 387.456054688 286 c 4
 369.456054688 310 357.456054688 325 330.456054688 338 c 4
 315.314453125 344.98828125 302.88671875 346.2109375 289.616210938 346.2109375 c 4
 282.471679688 346.2109375 275.083984375 345.856445312 266.896484375 345.856445312 c 4
 264.177734375 345.856445312 261.37109375 345.895507812 258.456054688 346 c 4
 251.501953125 346.366210938 245.752929688 346.59765625 240.327148438 346.59765625 c 4
 230.9296875 346.59765625 222.501953125 345.90234375 210.456054688 344 c 4
 194.456054688 341 187.456054688 331 171.456054688 330 c 4
 164.456054688 329 160.456054688 334 155.456054688 339 c 4
 147.456054688 347 140.456054688 351 137.456054688 362 c 4
 135.456054688 368 140.456054688 373 143.456054688 378 c 4
 156.456054688 398 164.456054688 408 179.456054688 426 c 4
 202.456054688 454 217.456054688 468 240.456054688 496 c 4
 276.456054688 538 295.456054688 563 330.456054688 606 c 4
 344.456054688 624 352.456054688 633 365.456054688 652 c 4
 373.456054688 663 381.456054688 667 383.456054688 680 c 4
 383.639648438 682.196289062 383.755859375 684.392578125 383.755859375 686.551757812 c 4
 383.755859375 696.19140625 381.443359375 705.09765625 372.456054688 710 c 4
 365.240234375 714.330078125 358.71875 715.881835938 351.888671875 715.881835938 c 4
 344.522460938 715.881835938 336.796875 714.076171875 327.456054688 712 c 4
 255.456054688 697 215.456054688 684 144.456054688 664 c 4
 134.456054688 661 122.456054688 663 119.456054688 652 c 4
 117.748046875 644.676757812 117.111328125 638.069335938 117.111328125 631.8125 c 4
 117.111328125 613.568359375 122.521484375 598.311523438 122.521484375 577.02734375 c 4
 122.521484375 575.708984375 122.500976562 574.3671875 122.456054688 573 c 4
 121.456054688 542 118.456054688 525 114.456054688 494 c 4
 107.456054688 442 101.456054688 412 92.4560546875 360 c 4
 82.4560546875 303 78.4560546875 270 65.4560546875 213 c 4
 64.4560546875 208 57.4560546875 207 57.4560546875 202 c 4
 57.4560546875 187 62.4560546875 179 65.4560546875 164 c 4
 68.4560546875 152 71.4560546875 144 72.4560546875 132 c 4
 72.4560546875 123 72.4560546875 118 68.4560546875 110 c 4
 64.4560546875 102 61.4560546875 96 54.4560546875 92 c 4
 45.4560546875 87 38.4560546875 83 27.4560546875 86 c 4
 15.4560546875 89 4.4560546875 93 2.4560546875 106 c 4
 1.4375 113.540039062 1 120.45703125 1 127.004882812 c 4
 1 152.58984375 7.6787109375 172.540039062 12.4560546875 202 c 4
 30.4560546875 310 47.4560546875 369 65.4560546875 477 c 4
 73.4560546875 522 75.4560546875 547 78.4560546875 592 c 4
 78.7900390625 598.333007812 79.01171875 603.666992188 79.01171875 608.666992188 c 4
 79.01171875 618.666992188 78.123046875 627.333007812 75.4560546875 640 c 4
 72.4560546875 652 62.4560546875 657 60.4560546875 669 c 4
 58.9560546875 677.5 57.4560546875 684.75 57.4560546875 691.875 c 4
 57.4560546875 699 58.9560546875 706 63.4560546875 714 c 4
 69.4560546875 725 80.4560546875 724 92.4560546875 726 c 4
 98.4560546875 727 102.456054688 724 108.456054688 722 c 4
 118.456054688 719 123.456054688 714 133.456054688 714 c 4
EndSplineSet
Validated: 1
EndChar

StartChar: ae
Encoding: 230 230 35
Width: 714
Flags: HMW
HStem: 70 41
VStem: 2 50<201 201> 314 57 692 35
LayerCount: 2
Fore
SplineSet
370 502 m 0
 359.197265625 509.478515625 349.776367188 513.504882812 338.29296875 513.504882812 c 0
 335.95703125 513.504882812 333.536132812 513.337890625 331 513 c 0
 304 510 289 502 266 489 c 0
 235 472 219 459 193 436 c 0
 172 417 162 405 145 382 c 0
 128 360 122 345 107 322 c 0
 95 303 86 293 77 273 c 0
 71 259 72 250 67 236 c 0
 64 229 59 227 56 220 c 0
 53 213 50 208 52 201 c 0
 57 187 62 179 73 170 c 0
 84 161 93 158 107 156 c 0
 113.977539062 155.178710938 119.943359375 154.526367188 125.729492188 154.526367188 c 0
 134.040039062 154.526367188 141.977539062 155.873046875 152 160 c 0
 176 170 187 181 208 196 c 0
 224 208 235 213 248 228 c 0
 264 246 271 257 283 278 c 0
 294 297 299 307 305 328 c 0
 312 353 312 368 314 393 c 0
 314.19140625 395.864257812 314.272460938 398.62890625 314.272460938 401.310546875 c 0
 314.272460938 417.008789062 311.477539062 429.866210938 311.477539062 443.376953125 c 0
 311.477539062 451.7265625 312.544921875 460.326171875 316 470 c 0
 320 482 334 478 346 480 c 0
 358 482 367 472 376 480 c 0
 383 486 377 497 370 502 c 0
442 498 m 0
 425 490 417 479 406 464 c 0
 396 451 391 442 388 426 c 0
 378.141601562 377.603515625 370.692382812 347.681640625 370.692382812 302.399414062 c 0
 370.692382812 297.15625 370.791992188 291.70703125 371 286 c 0
 371 274 383 268 394 267 c 0
 397.40625 266.62109375 400.633789062 266.421875 403.729492188 266.421875 c 0
 416.9921875 266.421875 427.838867188 270.08203125 440 279 c 0
 469 300 477 321 502 346 c 0
 511 355 520 356 527 368 c 0
 539 387 548 400 548 422 c 0
 548 445 540 459 526 478 c 0
 516 492 505 496 488 500 c 0
 479.890625 501.908203125 472.69140625 503.133789062 465.642578125 503.133789062 c 0
 457.9140625 503.133789062 450.3671875 501.661132812 442 498 c 0
346 561 m 0
 360 558 361 544 374 538 c 0
 381.857421875 534.428710938 388.694335938 533.91796875 396.33203125 533.91796875 c 0
 399.387695312 533.91796875 402.571289062 534 406 534 c 0
 418 534 424 537 436 538 c 0
 455 540 465 543 484 543 c 0
 498 543 506 543 520 540 c 0
 537 536 549 536 562 526 c 0
 574 517 575 506 580 492 c 0
 587 475 590 465 593 447 c 0
 594.096679688 439.3203125 594.893554688 433.14453125 594.893554688 426.822265625 c 0
 594.893554688 421.62109375 594.354492188 416.3203125 593 410 c 0
 588 388 584 376 571 357 c 0
 557 335 543 328 526 308 c 0
 512 292 506 280 490 266 c 0
 471 250 459 241 436 232 c 0
 430.075195312 229.505859375 424.345703125 228.955078125 418.75 228.955078125 c 0
 414.3359375 228.955078125 410.004882812 229.297851562 405.727539062 229.297851562 c 0
 398.036132812 229.297851562 390.518554688 228.19140625 383 222 c 0
 379.614257812 219.291015625 378.40625 216.124023438 378.40625 212.654296875 c 0
 378.40625 205.874023438 383.015625 197.9375 385 190 c 0
 390 173 394 164 404 150 c 0
 412 137 417 129 431 122 c 0
 446.81640625 114.091796875 458.772460938 110.81640625 475.008789062 110.81640625 c 0
 477.25 110.81640625 479.573242188 110.87890625 482 111 c 0
 499 112 507 121 523 128 c 0
 548 140 563 144 586 160 c 0
 610 177 623 188 643 210 c 0
 656 224 662 234 670 252 c 0
 681 276 676 295 692 316 c 0
 698 324 709 322 718 318 c 0
 725 315 727 309 727 302 c 0
 725 278 723 263 713 242 c 0
 699 212 691 194 667 171 c 0
 631 135 605 120 562 94 c 0
 540 81 525 73 500 70 c 0
 493.125 68.9814453125 487.02734375 68.546875 481.311523438 68.546875 c 0
 464.583007812 68.546875 451.125 72.2734375 431 76 c 0
 422 78 418 90 409 86 c 0
 394 78 395 63 382 51 c 0
 372 41 366 32 352 30 c 0
 347.803710938 29.3544921875 343.19140625 28.8134765625 338.766601562 28.8134765625 c 0
 329.484375 28.8134765625 321.03125 31.1962890625 319 40 c 0
 313.301757812 64.3115234375 311.932617188 84.8720703125 311.932617188 104.639648438 c 0
 311.932617188 122.924804688 313.104492188 140.532226562 313.104492188 159.8046875 c 0
 313.104492188 174.545898438 312.418945312 190.26171875 310 208 c 0
 309 214 300 216 296 213 c 0
 284 204 286 191 274 182 c 0
 247 162 229 155 199 140 c 0
 179 130 167 122 145 117 c 0
 128.313476562 113.291992188 115.446289062 110.729492188 101.676757812 110.729492188 c 0
 93.1669921875 110.729492188 84.3134765625 111.708007812 74 114 c 0
 51 119 37 124 22 142 c 0
 7 161 2 177 2 201 c 0
 2 230 11 245 22 272 c 0
 34 302 44 317 61 344 c 0
 83 379 96 399 124 429 c 0
 163 470 188 491 232 525 c 0
 251 540 263 548 286 555 c 0
 301.2734375 559.859375 313.172851562 562.791992188 326.71875 562.791992188 c 0
 332.68359375 562.791992188 338.967773438 562.22265625 346 561 c 0
EndSplineSet
Validated: 1
EndChar

StartChar: L
Encoding: 76 76 36
Width: 444
VWidth: 0
Flags: W
HStem: 25.9102 38.1182<64.7457 218.205> 98.5469 38.543<333.353 426.175>
VStem: 2 38.7881<88.7232 276.375>
LayerCount: 2
Back
Fore
SplineSet
71.1806640625 476 m 24
 91.1806640625 537 99.1806640625 572 123.180664062 632 c 24
 143.180664062 683 148.180664062 717 184.180664062 759 c 16
 186.342773438 761.37890625 188.879882812 762.401367188 191.55859375 762.401367188 c 0
 201.264648438 762.401367188 212.829101562 748.97265625 215.180664062 738 c 0
 218.719726562 723.451171875 220.09375 711.221679688 220.09375 699.42578125 c 0
 220.09375 681.224609375 216.821289062 664.057617188 213.180664062 641 c 8
 212.180664062 634 206.180664062 628 199.180664062 629 c 24
 190.180664062 630 191.180664062 643 183.180664062 645 c 24
 177.180664062 646 172.180664062 642 169.180664062 636 c 24
 161.180664062 618 163.180664062 607 157.180664062 588 c 24
 145.180664062 551 136.180664062 531 122.180664062 494 c 24
 107.180664062 456 96.1806640625 435 83.1806640625 396 c 24
 74.1806640625 370 71.1806640625 354 65.1806640625 327 c 24
 59.1806640625 300 58.1806640625 285 53.1806640625 258 c 24
 49.1806640625 235 46.1806640625 222 43.1806640625 199 c 16
 41.7158203125 187.287109375 40.7880859375 179.861328125 40.7880859375 170.446289062 c 0
 40.7880859375 167 40.912109375 163.287109375 41.1806640625 159 c 8
 42.1806640625 143 42.1806640625 134 46.1806640625 119 c 24
 50.1806640625 105 53.1806640625 97 62.1806640625 86 c 24
 70.1806640625 76 76.1806640625 70 89.1806640625 66 c 16
 93.85546875 64.5615234375 98.0126953125 64.0283203125 102.072265625 64.0283203125 c 0
 109.299804688 64.0283203125 116.21484375 65.71875 125.180664062 67 c 8
 152.180664062 70 168.180664062 72 195.180664062 78 c 24
 227.180664062 85 245.180664062 88 275.180664062 99 c 24
 294.180664062 106 302.180664062 115 321.180664062 123 c 24
 337.180664062 130 346.180664062 133 363.180664062 136 c 16
 367.763671875 136.763671875 371.763671875 137.08984375 375.625976562 137.08984375 c 0
 381.875 137.08984375 387.763671875 136.236328125 395.180664062 135 c 8
 405.180664062 133 410.180664062 131 420.180664062 126 c 24
 431.180664062 120 437.180664062 116 447.180664062 108 c 24
 451.180664062 104 456.180664062 102 456.180664062 96 c 24
 456.180664062 88 454.180664062 82 447.180664062 78 c 24
 440.180664062 74 434.180664062 76 427.180664062 79 c 24
 416.180664062 83 414.180664062 93 403.180664062 96 c 16
 397.041992188 97.75390625 391.865234375 98.546875 386.806640625 98.546875 c 0
 380.327148438 98.546875 374.041992188 97.24609375 366.180664062 95 c 8
 349.180664062 91 342.180664062 83 326.180664062 76 c 24
 302.180664062 66 289.180664062 59 264.180664062 52 c 24
 235.180664062 43 217.180664062 41 187.180664062 35 c 24
 171.180664062 32 162.180664062 29 146.180664062 28 c 16
 131.34765625 26.763671875 120.716796875 25.91015625 109.09375 25.91015625 c 0
 101.91015625 25.91015625 94.34765625 26.236328125 85.1806640625 27 c 8
 69.1806640625 28 59.1806640625 28 46.1806640625 36 c 24
 32.1806640625 44 28.1806640625 54 19.1806640625 67 c 24
 11.1806640625 78 6.1806640625 85 4.1806640625 98 c 16
 2.65234375 108.6953125 2 117.78515625 2 126.49609375 c 0
 2 140.591796875 3.7080078125 153.6953125 6.1806640625 171 c 8
 16.1806640625 249 23.1806640625 293 39.1806640625 369 c 24
 48.1806640625 412 58.1806640625 435 71.1806640625 476 c 24
EndSplineSet
Validated: 1
EndChar

StartChar: l
Encoding: 108 108 37
Width: 221
VWidth: 0
Flags: W
HStem: 25.7441 21G<77.9546 84.6099>
VStem: 20 39.4678<78.7918 378.489> 27 78<37.2161 68.9722> 58 63.8584<573.054 738.812>
LayerCount: 2
Back
Fore
SplineSet
24 90 m 24xa0
 22 120 20 138 20 168 c 24xc0
 20 194 23 208 25 234 c 24
 27 267 28 285 31 318 c 24
 34 355 38 375 41 412 c 24
 47 482 52 522 56 592 c 24
 58 627 57 647 58 682 c 16
 58 690.909179688 55.1650390625 698.603515625 55.1650390625 706.11328125 c 0
 55.1650390625 710.405273438 56.0908203125 714.63671875 59 719 c 0
 68.4951171875 733.2421875 78.8916015625 742.075195312 94.4697265625 742.075195312 c 0
 95.2978515625 742.075195312 96.1416015625 742.05078125 97 742 c 8
 111 741 119 729 121 715 c 16
 121.595703125 710.237304688 121.858398438 705.784179688 121.858398438 701.549804688 c 0x90
 121.858398438 677.33203125 113.255859375 660.237304688 109 633 c 8
 105 607 103 593 99 567 c 24
 95 537 92 520 89 490 c 24
 84 438 82 408 77 356 c 24
 73 314 69 290 66 248 c 16
 62.734375 208.80859375 59.4677734375 182.94921875 59.4677734375 148.651367188 c 0xc0
 59.4677734375 140.942382812 59.6328125 132.80859375 60 124 c 8
 61 105 64 95 73 78 c 24
 77 70 85 70 91 64 c 24
 97 58 108 55 105 47 c 16
 99.5166015625 35.119140625 90.6923828125 25.744140625 78.52734375 25.744140625 c 0
 77.3818359375 25.744140625 76.2060546875 25.828125 75 26 c 8
 52 30 41 42 27 60 c 24
 19 70 25 78 24 90 c 24xa0
EndSplineSet
Validated: 524289
EndChar

StartChar: M
Encoding: 77 77 38
Width: 683
VWidth: 0
Flags: W
VStem: -1.80859 66<-25.686 59.5813> 299.191 41<169.215 392.41> 333.464 39.7275<443.463 670.626> 557.143 42.9531<77.2813 359.268> 635.191 55.6064<666 746.327>
LayerCount: 2
Back
Fore
SplineSet
156.19140625 442 m 24xb8
 168.19140625 488 165.19140625 516 182.19140625 560 c 24
 193.19140625 587 204.19140625 602 225.19140625 622 c 24
 232.19140625 628 242.19140625 615 248.19140625 622 c 24
 266.19140625 645 265.19140625 665 279.19140625 691 c 24
 290.19140625 712 295.19140625 726 311.19140625 743 c 24
 317.19140625 750 324.19140625 752 333.19140625 751 c 24
 344.19140625 749 351.19140625 746 356.19140625 736 c 24
 367.19140625 714 367.19140625 699 370.19140625 676 c 24
 373.19140625 650 373.19140625 636 373.19140625 610 c 24xb8
 373.19140625 573 370.19140625 552 368.19140625 515 c 24
 366.19140625 485 365.19140625 468 363.19140625 438 c 24
 361.19140625 410 359.19140625 394 356.19140625 366 c 24
 354.19140625 344 351.19140625 331 349.19140625 309 c 24
 346.19140625 282 344.19140625 266 342.19140625 239 c 24
 341.19140625 227 340.19140625 221 340.19140625 209 c 24
 340.19140625 197 337.19140625 189 341.19140625 178 c 24
 343.19140625 172 352.19140625 165 355.19140625 170 c 24
 365.19140625 188 359.19140625 202 366.19140625 221 c 24
 377.19140625 249 388.19140625 261 401.19140625 289 c 24
 417.19140625 323 423.19140625 343 439.19140625 378 c 24
 455.19140625 414 465.19140625 434 482.19140625 469 c 24
 494.19140625 494 502.19140625 507 515.19140625 531 c 24
 565.19140625 625 588.19140625 681 643.19140625 773 c 24
 648.19140625 781 655.19140625 784 665.19140625 782 c 24
 677.19140625 779 686.19140625 774 689.19140625 762 c 16
 690.333984375 756.2890625 690.797851562 751.15234375 690.797851562 746.327148438 c 0
 690.797851562 730.030273438 685.505859375 717.2890625 683.19140625 698 c 8
 677.19140625 653 671.19140625 627 664.19140625 582 c 24
 661.19140625 562 660.19140625 550 657.19140625 530 c 24
 654.19140625 510 651.19140625 500 647.19140625 480 c 24
 641.19140625 449 637.19140625 432 630.19140625 401 c 24
 625.19140625 377 622.19140625 364 617.19140625 340 c 24
 614.19140625 325 612.19140625 316 610.19140625 301 c 24
 607.19140625 280 606.19140625 268 605.19140625 247 c 24
 603.19140625 210 604.19140625 189 603.19140625 152 c 16
 602.456054688 136.545898438 600.095703125 126.5078125 600.095703125 113.915039062 c 0
 600.095703125 109.395507812 600.399414062 104.545898438 601.19140625 99 c 8
 603.19140625 89 606.19140625 83 615.19140625 77 c 24
 622.19140625 72 630.19140625 70 637.19140625 76 c 24
 657.19140625 95 659.19140625 115 677.19140625 136 c 24
 681.19140625 140 687.19140625 140 691.19140625 137 c 24
 696.19140625 132 694.19140625 127 695.19140625 120 c 24
 696.19140625 114 697.19140625 110 695.19140625 105 c 24
 687.19140625 86 682.19140625 76 669.19140625 60 c 24
 658.19140625 45 650.19140625 38 635.19140625 27 c 24
 628.19140625 22 623.19140625 20 615.19140625 21 c 24
 601.19140625 23 592.19140625 25 580.19140625 34 c 24
 570.19140625 42 565.19140625 50 563.19140625 63 c 16
 557.747070312 96.4443359375 557.142578125 119 557.142578125 147.604492188 c 0
 557.142578125 155.77734375 557.19140625 164.444335938 557.19140625 174 c 8
 557.19140625 214 561.19140625 236 565.19140625 276 c 24
 569.19140625 319 571.19140625 344 578.19140625 387 c 24
 584.19140625 422 589.19140625 441 597.19140625 476 c 24
 602.19140625 501 606.19140625 516 611.19140625 541 c 24
 616.19140625 564 619.19140625 578 624.19140625 601 c 24
 628.19140625 617 631.19140625 625 634.19140625 641 c 24
 636.19140625 651 636.19140625 656 635.19140625 666 c 24
 635.19140625 671 636.19140625 681 632.19140625 679 c 24
 623.19140625 674 623.19140625 665 618.19140625 656 c 24
 601.19140625 624 593.19140625 606 577.19140625 574 c 24
 547.19140625 511 531.19140625 476 501.19140625 413 c 24
 489.19140625 388 481.19140625 373 470.19140625 348 c 24
 465.19140625 337 464.19140625 330 459.19140625 318 c 24
 451.19140625 300 444.19140625 291 436.19140625 273 c 24
 424.19140625 245 417.19140625 229 407.19140625 201 c 24
 402.19140625 186 402.19140625 176 396.19140625 162 c 24
 392.19140625 150 388.19140625 144 381.19140625 134 c 24
 375.19140625 126 373.19140625 121 364.19140625 116 c 24
 356.19140625 112 349.19140625 109 340.19140625 112 c 24
 329.19140625 115 323.19140625 121 316.19140625 130 c 24
 306.19140625 144 299.19140625 153 299.19140625 170 c 24xd8
 299.19140625 287 306.19140625 353 316.19140625 470 c 24
 318.19140625 496 325.19140625 510 329.19140625 536 c 24
 331.19140625 552 330.19140625 562 331.19140625 578 c 16
 332.000976562 599.84375 333.463867188 613.178710938 333.463867188 631.771484375 c 0
 333.463867188 636.161132812 333.3828125 640.84375 333.19140625 646 c 8
 333.19140625 656 336.19140625 663 329.19140625 671 c 24
 325.19140625 676 317.19140625 674 313.19140625 669 c 24
 301.19140625 656 299.19140625 646 292.19140625 629 c 24
 286.19140625 614 288.19140625 604 282.19140625 590 c 24
 275.19140625 575 266.19140625 569 259.19140625 554 c 24
 254.19140625 543 256.19140625 536 252.19140625 525 c 24
 247.19140625 512 238.19140625 507 234.19140625 494 c 24
 226.19140625 468 231.19140625 451 223.19140625 425 c 24
 217.19140625 405 206.19140625 397 199.19140625 377 c 24
 193.19140625 360 195.19140625 349 188.19140625 332 c 24
 180.19140625 312 169.19140625 304 160.19140625 285 c 24
 148.19140625 261 143.19140625 247 135.19140625 221 c 24
 128.19140625 199 128.19140625 186 120.19140625 163 c 24
 114.19140625 146 107.19140625 137 101.19140625 120 c 24
 92.19140625 94 88.19140625 79 80.19140625 53 c 24
 74.19140625 32 75.19140625 19 64.19140625 0 c 24
 55.19140625 -15 47.19140625 -24 32.19140625 -32 c 24
 23.19140625 -37 15.19140625 -34 5.19140625 -30 c 24
 0.19140625 -28 -2.80859375 -24 -1.80859375 -18 c 24
 0.19140625 4 5.19140625 16 12.19140625 38 c 24
 20.19140625 63 27.19140625 76 36.19140625 101 c 24
 47.19140625 131 52.19140625 148 65.19140625 177 c 24
 80.19140625 212 95.19140625 228 108.19140625 264 c 24
 114.19140625 282 109.19140625 293 114.19140625 312 c 24
 120.19140625 338 128.19140625 352 136.19140625 378 c 24
 144.19140625 403 150.19140625 417 156.19140625 442 c 24xb8
EndSplineSet
Validated: 1
EndChar

StartChar: m
Encoding: 109 109 39
Width: 734
VWidth: 0
Flags: W
VStem: 79.4609 52.6504<268.326 397.865 398.711 451.585> 307.971 61.9043<190.492 343.682> 315.981 60.1602<243.153 412.948> 634.502 66.9912<103.836 208.74> 668.129 66.125<218.113 446.833>
LayerCount: 2
Back
Fore
SplineSet
68.12109375 359.399414062 m 28xa0
 71.361328125 381.83984375 74.6005859375 394.759765625 79.4609375 417.19921875 c 28
 81.890625 428.080078125 81.0810546875 435.559570312 86.7509765625 445.759765625 c 28
 89.1806640625 450.51953125 93.2314453125 454.599609375 99.7109375 453.919921875 c 28
 109.430664062 453.239257812 115.911132812 449.83984375 121.581054688 443.040039062 c 28
 131.30078125 430.799804688 136.161132812 422.639648438 137.78125 408.359375 c 20
 138.194335938 404.884765625 138.373046875 401.647460938 138.373046875 398.56640625 c 4
 138.373046875 383.5546875 134.126953125 372.245117188 132.111328125 355.319335938 c 12
 127.250976562 316.559570312 124.010742188 294.799804688 119.9609375 256.040039062 c 28
 119.151367188 249.919921875 115.911132812 245.83984375 119.9609375 240.399414062 c 28
 122.390625 237.6796875 128.060546875 238.359375 131.30078125 241.080078125 c 28
 136.161132812 244.479492188 136.161132812 249.239257812 139.401367188 254 c 28
 143.451171875 260.119140625 147.500976562 263.51953125 152.361328125 270.319335938 c 28
 162.081054688 284.599609375 166.94140625 292.759765625 175.850585938 307.040039062 c 28
 192.05078125 331.51953125 200.9609375 345.119140625 216.350585938 369.599609375 c 28
 230.930664062 392.719726562 237.411132812 405.639648438 251.180664062 428.080078125 c 28
 264.951171875 450.51953125 270.62109375 464.799804688 287.630859375 485.879882812 c 28
 296.541015625 497.439453125 302.2109375 504.239257812 315.981445312 509.6796875 c 28
 323.270507812 512.399414062 329.750976562 509 336.231445312 505.599609375 c 28
 347.571289062 499.479492188 356.481445312 496.080078125 362.151367188 485.19921875 c 28
 371.060546875 468.879882812 368.630859375 458 371.060546875 440.319335938 c 28
 374.30078125 420.599609375 375.111328125 409.719726562 375.920898438 390 c 20
 376.076171875 385.713867188 376.141601562 381.80078125 376.141601562 378.1171875 c 4xa0
 376.141601562 362.51171875 374.956054688 351.034179688 374.30078125 332.879882812 c 4
 372.942382812 294.676757812 369.875 270.33984375 369.875 236.614257812 c 4
 369.875 230.120117188 369.989257812 223.276367188 370.250976562 215.919921875 c 12
 370.250976562 205.040039062 371.87109375 198.919921875 378.350585938 190.080078125 c 28
 380.78125 187.359375 386.451171875 189.399414062 388.880859375 192.119140625 c 28
 396.981445312 201.639648438 397.791015625 209.119140625 404.270507812 220 c 28
 413.991210938 235.639648438 419.661132812 245.159179688 430.19140625 260.799804688 c 28
 453.680664062 295.479492188 465.020507812 315.879882812 490.130859375 349.19921875 c 28
 509.571289062 375.040039062 523.340820312 387.959960938 543.590820312 413.119140625 c 28
 567.890625 443.040039062 579.231445312 462.080078125 604.340820312 492 c 28
 617.30078125 507.639648438 623.78125 517.83984375 641.600585938 528.719726562 c 28
 649.701171875 533.479492188 657.80078125 533.479492188 666.7109375 530.759765625 c 28
 681.291015625 526.6796875 691.010742188 522.599609375 699.920898438 511.719726562 c 28
 716.12109375 490.639648438 723.411132812 476.359375 729.081054688 451.879882812 c 20
 733.373046875 432.0625 734.25390625 416.63671875 734.25390625 400.84765625 c 4xc8
 734.25390625 389.856445312 733.827148438 378.689453125 733.827148438 365.741210938 c 4
 733.827148438 362.185546875 733.858398438 358.49609375 733.94140625 354.639648438 c 4
 734.303710938 346.428710938 734.666015625 339.713867188 734.666015625 333.157226562 c 4
 734.666015625 325.052734375 734.112304688 317.188476562 732.321289062 307.040039062 c 12
 725.840820312 264.879882812 716.12109375 241.759765625 708.831054688 199.599609375 c 28
 703.970703125 174.439453125 702.350585938 160.159179688 701.541015625 134.319335938 c 20
 701.508789062 133.82421875 701.493164062 133.336914062 701.493164062 132.856445312 c 4
 701.493164062 124.173828125 706.56640625 117.86328125 706.56640625 110.727539062 c 4
 706.56640625 108.50390625 706.073242188 106.200195312 704.78125 103.719726562 c 12
 699.920898438 94.8798828125 690.201171875 93.51953125 678.861328125 90.7998046875 c 28
 670.760742188 88.759765625 665.090820312 87.3994140625 658.611328125 91.4794921875 c 28
 647.270507812 98.279296875 639.981445312 104.399414062 637.55078125 115.959960938 c 20
 635.36328125 126.717773438 634.501953125 135.854492188 634.501953125 144.662109375 c 4x90
 634.501953125 158.6796875 636.68359375 171.859375 639.170898438 189.399414062 c 12
 639.981445312 197.559570312 648.081054688 200.959960938 650.510742188 209.119140625 c 28
 656.991210938 234.279296875 656.991210938 248.559570312 660.231445312 273.719726562 c 28
 661.850585938 290.719726562 661.850585938 300.919921875 663.470703125 317.919921875 c 28
 665.090820312 338.319335938 666.7109375 350.559570312 667.520507812 370.959960938 c 20
 667.92578125 382.1796875 668.12890625 390.849609375 668.12890625 399.51953125 c 4
 668.12890625 408.189453125 667.92578125 416.859375 667.520507812 428.080078125 c 12
 667.520507812 435.559570312 668.331054688 441 663.470703125 447.119140625 c 28
 661.041015625 450.51953125 655.37109375 453.239257812 650.510742188 451.19921875 c 28
 642.411132812 447.799804688 642.411132812 442.359375 637.55078125 436.239257812 c 28
 619.731445312 413.799804688 610.821289062 401.559570312 593.810546875 379.119140625 c 28
 574.37109375 353.959960938 561.411132812 339.6796875 541.970703125 313.83984375 c 28
 518.481445312 281.879882812 506.331054688 262.83984375 484.4609375 229.51953125 c 28
 468.260742188 205.040039062 462.590820312 189.399414062 443.9609375 166.279296875 c 28
 425.331054688 143.83984375 415.611328125 128.879882812 388.880859375 113.239257812 c 20
 380.447265625 108.51953125 372.826171875 107.211914062 364.607421875 107.211914062 c 4
 358.618164062 107.211914062 352.311523438 107.90625 345.140625 108.479492188 c 12
 333.80078125 109.83984375 324.890625 111.879882812 319.220703125 120.040039062 c 28
 309.500976562 135 311.12109375 145.879882812 308.69140625 162.879882812 c 20
 308.150390625 168.319335938 307.970703125 173.00390625 307.970703125 177.436523438 c 4
 307.970703125 186.301757812 308.69140625 194.159179688 308.69140625 205.040039062 c 4
 308.69140625 220 307.970703125 230.728515625 307.970703125 242.868164062 c 4xc8
 307.970703125 248.9375 308.150390625 255.359375 308.69140625 262.83984375 c 12
 310.310546875 288.6796875 315.981445312 303.639648438 317.600585938 329.479492188 c 20
 317.991210938 334.712890625 318.145507812 339.43359375 318.145507812 343.890625 c 4
 318.145507812 357.96484375 316.596679688 369.392578125 315.981445312 385.919921875 c 4
 315.915039062 386.8046875 315.88671875 387.666992188 315.88671875 388.509765625 c 4
 315.88671875 393.73046875 316.975585938 398.184570312 316.975585938 402.484375 c 4
 316.975585938 406.021484375 316.23828125 409.454101562 313.55078125 413.119140625 c 12
 310.310546875 417.19921875 303.020507812 411.759765625 300.590820312 407.6796875 c 28
 287.630859375 387.279296875 288.44140625 372.319335938 275.481445312 351.239257812 c 28
 266.571289062 336.959960938 256.041015625 331.51953125 245.510742188 317.239257812 c 28
 229.310546875 294.799804688 222.831054688 280.51953125 207.44140625 258.080078125 c 28
 193.670898438 237.6796875 181.520507812 228.159179688 170.180664062 207.080078125 c 28
 151.55078125 173.759765625 149.930664062 153.359375 131.30078125 120.719726562 c 28
 116.720703125 94.8798828125 103.760742188 81.9599609375 83.5107421875 58.83984375 c 28
 74.6005859375 48.6396484375 71.361328125 41.1591796875 58.4013671875 35.0400390625 c 28
 50.30078125 30.9599609375 43.0107421875 32.3193359375 33.291015625 34.359375 c 28
 21.140625 37.080078125 8.9912109375 36.3994140625 3.3212890625 46.599609375 c 20
 0.96484375 51.05078125 0 55.2314453125 0 59.3720703125 c 4
 0 66.6181640625 2.953125 73.73828125 6.560546875 81.9599609375 c 12
 8.1806640625 86.0400390625 17.9013671875 81.9599609375 19.5205078125 86.0400390625 c 28
 27.62109375 111.879882812 24.380859375 128.19921875 30.05078125 154.719726562 c 28
 33.291015625 169.6796875 38.1513671875 178.51953125 42.201171875 193.479492188 c 28
 47.060546875 211.83984375 50.30078125 222.040039062 53.541015625 240.399414062 c 28
 60.8310546875 286.639648438 61.640625 313.159179688 68.12109375 359.399414062 c 28xa0
EndSplineSet
Validated: 1
EndChar

StartChar: O
Encoding: 79 79 40
Width: 683
VWidth: 0
Flags: W
HStem: 17.6074 45.2383<159.325 365.597> 706.005 59.4688<322.687 409.984>
VStem: 2 47.6006<191.374 344.744> 657.654 37.2891<298.783 478.62>
LayerCount: 2
Back
Fore
SplineSet
53.259765625 188 m 1048,0,-1
56.259765625 191 m 24,1,-1
 66.259765625 174 77.259765625 169 89.259765625 154 c 24,4,-1
 98.259765625 143 100.259765625 133 110.259765625 123 c 24,7,-1
 125.259765625 107 134.259765625 99 153.259765625 88 c 24,10,-1
 168.259765625 79 178.259765625 76 195.259765625 71 c 24,13,-1
 213.259765625 66 223.259765625 65 241.259765625 64 c 16,16,-1
 252.249023438 63.154296875 261.2734375 62.845703125 270.068359375 62.845703125 c 0,19,-1
 282.083007812 62.845703125 293.671875 63.4228515625 309.259765625 64 c 8,22,-1
 320.259765625 64 326.259765625 64 337.259765625 68 c 24,25,-1
 366.259765625 78 382.259765625 85 410.259765625 98 c 24,28,-1
 438.259765625 111 453.259765625 120 479.259765625 135 c 24,31,-1
 501.259765625 148 514.259765625 156 534.259765625 171 c 24,34,-1
 558.259765625 189 573.259765625 199 593.259765625 221 c 24,37,-1
 608.259765625 237 612.259765625 248 623.259765625 267 c 24,40,-1
 631.259765625 281 635.259765625 289 641.259765625 304 c 24,43,-1
 648.259765625 322 652.259765625 333 655.259765625 352 c 16,46,-1
 656.912109375 363.560546875 657.654296875 372.697265625 657.654296875 382.078125 c 0,49,-1
 657.654296875 389.737304688 657.159179688 397.560546875 656.259765625 407 c 8,52,-1
 654.259765625 428 654.259765625 440 647.259765625 460 c 24,55,-1
 642.259765625 477 635.259765625 484 626.259765625 500 c 24,58,-1
 616.259765625 518 611.259765625 529 598.259765625 546 c 24,61,-1
 584.259765625 564 573.259765625 571 557.259765625 587 c 24,64,-1
 540.259765625 604 532.259765625 615 514.259765625 631 c 24,67,-1
 497.259765625 646 486.259765625 655 467.259765625 667 c 24,70,-1
 455.259765625 675 447.259765625 678 433.259765625 682 c 24,73,-1
 430.259765625 683 428.259765625 680 425.259765625 680 c 24,76,-1
 421.259765625 679 416.259765625 676 414.259765625 679 c 24,79,-1
 409.259765625 687 420.259765625 701 410.259765625 704 c 16,82,-1
 405.745117188 705.42578125 401.681640625 706.004882812 397.840820312 706.004882812 c 0,85,-1
 385.5234375 706.004882812 375.506835938 700.049804688 360.259765625 697 c 8,88,-1
 345.259765625 694 335.259765625 692 322.259765625 684 c 24,91,-1
 307.259765625 675 301.259765625 666 289.259765625 653 c 24,94,-1
 277.259765625 640 272.259765625 632 261.259765625 619 c 24,97,-1
 245.259765625 599 235.259765625 589 219.259765625 569 c 24,100,-1
 199.259765625 543 189.259765625 528 170.259765625 502 c 24,103,-1
 150.259765625 476 138.259765625 462 119.259765625 435 c 24,106,-1
 106.259765625 417 98.259765625 407 87.259765625 387 c 24,109,-1
 80.259765625 374 76.259765625 366 72.259765625 351 c 24,112,-1
 67.259765625 334 67.259765625 324 62.259765625 306 c 24,115,-1
 58.259765625 291 52.259765625 283 50.259765625 267 c 16,118,-1
 49.794921875 262.3515625 49.6005859375 258.189453125 49.6005859375 254.288085938 c 0,121,-1
 49.6005859375 241.401367188 51.724609375 231.3515625 53.259765625 216 c 8,124,-1
 54.259765625 206 51.259765625 199 56.259765625 191 c 24,1,-1
41.259765625 386 m 24,127,-1
 54.259765625 413 60.259765625 427 76.259765625 452 c 24,130,-1
 89.259765625 472 98.259765625 481 114.259765625 500 c 24,133,-1
 131.259765625 521 142.259765625 531 159.259765625 552 c 24,136,-1
 170.259765625 565 175.259765625 573 186.259765625 586 c 24,139,-1
 200.259765625 604 209.259765625 614 223.259765625 632 c 24,142,-1
 241.259765625 654 249.259765625 667 268.259765625 688 c 24,145,-1
 282.259765625 705 291.259765625 714 307.259765625 729 c 24,148,-1
 318.259765625 740 324.259765625 748 338.259765625 755 c 24,151,-1
 352.259765625 762 362.259765625 764 378.259765625 765 c 16,154,-1
 381.826171875 765.274414062 385.090820312 765.473632812 388.158203125 765.473632812 c 0,157,-1
 396.272460938 765.473632812 403.002929688 764.080078125 410.259765625 759 c 8,160,-1
 421.259765625 751 418.259765625 739 428.259765625 730 c 24,163,-1
 436.259765625 723 444.259765625 726 453.259765625 721 c 24,166,-1
 465.259765625 714 471.259765625 710 483.259765625 701 c 24,169,-1
 494.259765625 693 499.259765625 688 510.259765625 679 c 24,172,-1
 523.259765625 668 529.259765625 660 542.259765625 650 c 24,175,-1
 557.259765625 637 569.259765625 633 583.259765625 619 c 24,178,-1
 603.259765625 599 612.259765625 584 630.259765625 562 c 24,181,-1
 640.259765625 550 646.259765625 543 655.259765625 530 c 24,184,-1
 667.259765625 513 675.259765625 504 683.259765625 484 c 24,187,-1
 689.259765625 467 689.259765625 456 690.259765625 438 c 16,190,-1
 692.357421875 405.84375 694.943359375 383.94921875 694.943359375 357.969726562 c 0,193,-1
 694.943359375 346.78515625 694.463867188 334.84375 693.259765625 321 c 8,196,-1
 692.259765625 306 683.259765625 300 677.259765625 286 c 24,199,-1
 665.259765625 261 665.259765625 244 647.259765625 223 c 24,202,-1
 605.259765625 175 577.259765625 153 525.259765625 114 c 24,205,-1
 500.259765625 95 482.259765625 91 454.259765625 78 c 24,208,-1
 427.259765625 65 411.259765625 59 384.259765625 48 c 24,211,-1
 364.259765625 40 354.259765625 32 333.259765625 27 c 24,214,-1
 303.259765625 20 285.259765625 21 254.259765625 19 c 16,217,-1
 244.416015625 18.453125 236.366210938 17.607421875 228.311523438 17.607421875 c 0,220,-1
 221.638671875 17.607421875 214.962890625 18.1875 207.259765625 20 c 8,223,-1
 177.259765625 28 161.259765625 35 133.259765625 50 c 24,226,-1
 114.259765625 60 103.259765625 68 87.259765625 82 c 24,229,-1
 68.259765625 99 57.259765625 108 42.259765625 130 c 24,232,-1
 29.259765625 149 26.259765625 163 17.259765625 184 c 24,235,-1
 13.259765625 192 11.259765625 197 9.259765625 205 c 24,238,-1
 5.259765625 222 3.259765625 231 2.259765625 248 c 16,241,-1
 2.0830078125 251.010742188 2 253.802734375 2 256.452148438 c 0,244,-1
 2 268.76171875 3.791015625 278.010742188 6.259765625 292 c 8,247,-1
 8.259765625 303 10.259765625 309 14.259765625 320 c 24,250,-1
 24.259765625 346 29.259765625 361 41.259765625 386 c 24,127,-1
EndSplineSet
Validated: 1
EndChar

StartChar: o
Encoding: 111 111 41
Width: 526
VWidth: 0
Flags: W
HStem: 58.3203 32.9111<96.9426 242.301> 475.77 67.6357<308.158 355.314>
VStem: 0 44.123<138.214 288.42> 345.964 30.3994<415.524 453.424> 478.552 48.2725<287.776 417.213>
LayerCount: 2
Back
Fore
SplineSet
315.563476562 479.440429688 m 12
 285.1640625 474.3203125 265.1640625 472.400390625 238.763671875 458.959960938 c 28
 211.563476562 444.879882812 203.563476562 429.51953125 181.1640625 410.3203125 c 28
 155.563476562 387.919921875 139.563476562 376.400390625 117.1640625 352.719726562 c 28
 93.1640625 327.120117188 80.36328125 312.400390625 62.763671875 283.599609375 c 28
 51.5634765625 265.6796875 46.763671875 253.51953125 45.1640625 233.6796875 c 20
 44.482421875 226.048828125 44.123046875 219.294921875 44.123046875 212.934570312 c 4
 44.123046875 196.890625 46.4072265625 183.350585938 51.5634765625 164.559570312 c 12
 55.5634765625 150.48046875 61.1640625 142.799804688 72.36328125 131.280273438 c 28
 86.763671875 116.559570312 94.763671875 104.400390625 117.1640625 98 c 20
 133.491210938 93.0576171875 146.897460938 91.2314453125 161.0078125 91.2314453125 c 4
 172.478515625 91.2314453125 184.415039062 92.4384765625 198.763671875 94.16015625 c 12
 223.563476562 97.3603515625 236.36328125 105.040039062 257.963867188 114.639648438 c 28
 285.963867188 126.799804688 301.1640625 135.120117188 326.763671875 150.48046875 c 28
 345.963867188 162 355.563476562 169.6796875 371.563476562 183.759765625 c 28
 387.563476562 197.83984375 396.36328125 206.16015625 409.963867188 222.16015625 c 28
 427.563476562 243.919921875 436.36328125 257.360351562 451.563476562 279.759765625 c 28
 462.763671875 295.759765625 472.36328125 304.080078125 477.1640625 322 c 20
 478.1484375 325.782226562 478.551757812 329.17578125 478.551757812 332.373046875 c 4
 478.551757812 342.16015625 474.775390625 350.1015625 472.36328125 361.6796875 c 12
 468.36328125 382.799804688 468.36328125 395.599609375 457.963867188 415.440429688 c 28
 447.563476562 434.639648438 436.36328125 444.240234375 419.563476562 460.240234375 c 20
 413.625976562 466.045898438 407.688476562 475.76953125 400.404296875 475.76953125 c 4
 398.85546875 475.76953125 397.247070312 475.330078125 395.563476562 474.3203125 c 12
 378.763671875 463.440429688 385.963867188 448.080078125 376.36328125 432.080078125 c 20
 371.716796875 424.64453125 369.319335938 415.409179688 359.733398438 415.409179688 c 4
 359.41796875 415.409179688 359.094726562 415.419921875 358.763671875 415.440429688 c 12
 348.36328125 416.080078125 345.963867188 425.040039062 345.963867188 433.360351562 c 28
 345.963867188 442.3203125 359.563476562 444.879882812 360.36328125 453.83984375 c 20
 360.506835938 455.552734375 360.598632812 457.204101562 360.598632812 458.794921875 c 4
 360.598632812 466.119140625 358.651367188 472.147460938 350.763671875 476.879882812 c 4
 344.944335938 480.205078125 339.33984375 481.28515625 333.391601562 481.28515625 c 4
 327.891601562 481.28515625 322.096679688 480.362304688 315.563476562 479.440429688 c 12
13.1640625 313.040039062 m 12
 21.1640625 341.200195312 44.36328125 350.16015625 67.5634765625 371.919921875 c 28
 89.9638671875 393.040039062 105.963867188 403.280273438 129.963867188 423.120117188 c 28
 154.763671875 443.599609375 165.963867188 458.3203125 193.963867188 475.599609375 c 28
 214.763671875 488.400390625 229.963867188 490.959960938 254.763671875 499.919921875 c 28
 264.36328125 503.759765625 272.36328125 502.48046875 280.36328125 507.599609375 c 28
 297.963867188 518.48046875 298.763671875 534.48046875 320.36328125 540.879882812 c 20
 326.065429688 542.665039062 331.383789062 543.405273438 336.555664062 543.405273438 c 4
 348.073242188 543.405273438 358.866210938 539.735351562 371.563476562 535.759765625 c 12
 395.563476562 528.080078125 407.563476562 520.400390625 427.563476562 507.599609375 c 28
 451.563476562 491.599609375 465.963867188 482 483.563476562 461.51953125 c 28
 499.563476562 442.3203125 503.563476562 428.879882812 512.36328125 406.48046875 c 20
 519.954101562 388.262695312 526.82421875 377.53515625 526.82421875 359.538085938 c 4
 526.82421875 358.567382812 526.8046875 357.575195312 526.763671875 356.559570312 c 12
 525.1640625 325.200195312 520.36328125 306.639648438 505.963867188 277.200195312 c 28
 490.763671875 245.83984375 477.963867188 229.83984375 453.1640625 202.959960938 c 28
 425.963867188 173.51953125 406.763671875 159.440429688 373.1640625 135.120117188 c 28
 347.563476562 116.559570312 332.36328125 106.959960938 302.763671875 92.8798828125 c 28
 277.1640625 80.7197265625 260.36328125 76.8798828125 232.36328125 69.83984375 c 28
 209.1640625 63.4404296875 196.36328125 58.3203125 171.563476562 58.3203125 c 28
 140.36328125 58.3203125 120.36328125 58.3203125 93.1640625 69.83984375 c 28
 65.9638671875 80.7197265625 56.36328125 94.16015625 37.1640625 113.360351562 c 28
 21.1640625 129.360351562 7.5634765625 138.959960938 5.1640625 159.440429688 c 20
 2.0625 185.080078125 0 206.325195312 0 226.860351562 c 4
 0 253.995117188 3.6005859375 279.888671875 13.1640625 313.040039062 c 12
EndSplineSet
Validated: 1
EndChar

StartChar: P
Encoding: 80 80 42
Width: 254
VWidth: 0
Flags: W
HStem: 752 34<122.203 225.583>
VStem: 18.9365 31.2988<149.859 357.58 419.135 519.51> 22.9365 44<398.863 417.765> 29.9365 23<532.916 601.47> 36.9365 17<644.209 657.678> 241.937 27.375<624.759 731.672>
LayerCount: 2
Back
Fore
SplineSet
6.9365234375 704 m 24x8c
 19.9365234375 719 29.9365234375 722 46.9365234375 732 c 24
 64.9365234375 742 75.9365234375 746 94.9365234375 755 c 24
 109.936523438 762 117.936523438 768 132.936523438 774 c 24
 148.936523438 780 156.936523438 784 173.936523438 786 c 24
 184.936523438 787 190.936523438 785 201.936523438 783 c 24
 215.936523438 781 224.936523438 782 237.936523438 776 c 24
 246.936523438 772 249.936523438 768 254.936523438 759 c 24
 261.936523438 746 263.936523438 737 265.936523438 723 c 16
 268.186523438 709.5 269.311523438 699.9375 269.311523438 688.40625 c 0
 269.311523438 684.5625 269.186523438 680.5 268.936523438 676 c 8
 267.936523438 660 267.936523438 650 262.936523438 635 c 24
 254.936523438 609 248.936523438 595 236.936523438 571 c 24
 224.936523438 547 214.936523438 535 200.936523438 512 c 24
 188.936523438 494 182.936523438 483 169.936523438 466 c 24
 152.936523438 443 142.936523438 431 124.936523438 408 c 24
 113.936523438 395 107.936523438 387 96.9365234375 374 c 24
 90.9365234375 366 89.9365234375 359 80.9365234375 354 c 24
 76.9365234375 352 73.9365234375 358 68.9365234375 359 c 24
 63.9365234375 360 59.9365234375 362 56.9365234375 358 c 24
 50.9365234375 349 51.9365234375 342 50.9365234375 331 c 16
 50.197265625 315.485351562 50.00390625 302.426757812 50.00390625 289.958984375 c 0
 50.00390625 276.322265625 50.2353515625 263.392578125 50.2353515625 248.728515625 c 0
 50.2353515625 240.5078125 50.1630859375 231.741210938 49.9365234375 222 c 8
 49.9365234375 205 48.9365234375 196 46.9365234375 179 c 16
 45.1142578125 167.161132812 40.8056640625 160.297851562 40.8056640625 149.348632812 c 0
 40.8056640625 148.274414062 40.8466796875 147.161132812 40.9365234375 146 c 8
 40.9365234375 141 45.9365234375 135 49.9365234375 138 c 24
 55.9365234375 142 53.9365234375 149 56.9365234375 156 c 24
 62.9365234375 168 62.9365234375 177 72.9365234375 186 c 24
 76.9365234375 189 83.9365234375 185 84.9365234375 180 c 16
 85.84765625 176.049804688 86.205078125 172.561523438 86.205078125 169.25390625 c 0
 86.205078125 161.676757812 84.328125 155.049804688 82.9365234375 146 c 8
 79.9365234375 131 76.9365234375 123 72.9365234375 108 c 24
 68.9365234375 95 65.9365234375 88 62.9365234375 76 c 24
 59.9365234375 62 62.9365234375 54 58.9365234375 40 c 24
 57.9365234375 35 55.9365234375 29 49.9365234375 30 c 24
 39.9365234375 32 35.9365234375 39 28.9365234375 46 c 24
 23.9365234375 51 22.9365234375 56 20.9365234375 62 c 24
 16.9365234375 78 13.9365234375 87 13.9365234375 103 c 24
 13.9365234375 117 17.9365234375 125 18.9365234375 139 c 24xc4
 20.9365234375 162 22.9365234375 176 22.9365234375 199 c 24xa4
 22.9365234375 222 18.9365234375 236 18.9365234375 259 c 24xc4
 18.9365234375 284 23.9365234375 298 24.9365234375 323 c 16
 25.0791015625 327.428710938 25.140625 331.571289062 25.140625 335.509765625 c 0
 25.140625 359.142578125 22.9365234375 375.428710938 22.9365234375 402 c 0
 22.9365234375 418 23.380859375 429.111328125 23.380859375 441.8515625 c 0
 23.380859375 448.22265625 23.26953125 455 22.9365234375 463 c 0xa4
 22.0263671875 485.747070312 17.8046875 499.387695312 17.8046875 520.494140625 c 0
 17.8046875 522.583984375 17.845703125 524.747070312 17.9365234375 527 c 8
 18.9365234375 549 28.9365234375 560 29.9365234375 582 c 24
 30.9365234375 593 23.9365234375 598 21.9365234375 608 c 24
 20.9365234375 616 19.9365234375 620 21.9365234375 628 c 24
 22.9365234375 632 25.9365234375 638 29.9365234375 636 c 24
 41.9365234375 631 50.9365234375 627 54.9365234375 615 c 16
 56.572265625 610.36328125 57.16796875 606.099609375 57.16796875 601.983398438 c 0
 57.16796875 591.0078125 52.9365234375 581.090820312 52.9365234375 568 c 8
 52.9365234375 551 52.9365234375 541 52.9365234375 524 c 24
 52.9365234375 513 53.9365234375 506 52.9365234375 495 c 24x94
 51.9365234375 481 49.9365234375 473 49.9365234375 459 c 16
 49.9365234375 450.384765625 48.4208984375 443.663085938 48.4208984375 436.737304688 c 0
 48.4208984375 432.408203125 49.0126953125 428 50.9365234375 423 c 8
 53.9365234375 417 62.9365234375 423 66.9365234375 418 c 24
 70.9365234375 413 63.9365234375 407 66.9365234375 402 c 24xa4
 68.9365234375 398 74.9365234375 396 77.9365234375 399 c 24
 86.9365234375 408 85.9365234375 417 93.9365234375 427 c 24
 109.936523438 448 122.936523438 457 138.936523438 478 c 24
 151.936523438 494 154.936523438 505 166.936523438 523 c 24
 182.936523438 548 194.936523438 560 209.936523438 586 c 24
 221.936523438 607 226.936523438 619 233.936523438 642 c 24
 238.936523438 659 240.936523438 669 241.936523438 687 c 24
 242.936523438 695 240.936523438 700 238.936523438 708 c 24
 235.936523438 718 235.936523438 725 228.936523438 732 c 24
 222.936523438 739 216.936523438 740 206.936523438 744 c 24
 195.936523438 748 188.936523438 752 176.936523438 752 c 24
 164.936523438 752 158.936523438 748 146.936523438 744 c 24
 128.936523438 738 118.936523438 736 101.936523438 728 c 24
 88.9365234375 722 81.9365234375 717 69.9365234375 708 c 24
 60.9365234375 701 51.9365234375 699 48.9365234375 688 c 16
 48.263671875 685.983398438 47.9873046875 684.079101562 47.9873046875 682.25 c 0
 47.9873046875 673.720703125 54.0068359375 666.823242188 54.0068359375 657.704101562 c 0
 54.0068359375 657.14453125 53.984375 656.577148438 53.9365234375 656 c 8
 52.9365234375 650 50.9365234375 646 44.9365234375 644 c 24
 40.9365234375 643 38.9365234375 647 36.9365234375 650 c 24
 32.9365234375 656 35.9365234375 662 30.9365234375 666 c 24
 25.9365234375 671 20.9365234375 668 14.9365234375 671 c 24
 9.9365234375 673 2.9365234375 673 1.9365234375 679 c 24
 -0.0634765625 689 0.9365234375 696 6.9365234375 704 c 24x8c
EndSplineSet
Validated: 1
EndChar

StartChar: p
Encoding: 112 112 43
Width: 565
VWidth: 0
Flags: W
HStem: 500 45<238.334 476.489> 518 47<379.101 502.671>
VStem: -2 95<-175.238 -39.2656> 6 88<-174.063 -107.701> 183 58<376.641 473.532> 183 51<449 484.813> 511 70<471.103 511.009>
LayerCount: 2
Back
Fore
SplineSet
431 511 m 0x46
 414 505 413 504 396 502 c 0
 393 502 381 499 379 499 c 0
 362 499 354 499 336 500 c 0
 325 500 317 500 309 500 c 0
 299 500 289 500 276 498 c 8
 260 496 245 497 238 485 c 16
 235 481 234 478 234 474 c 0x86
 234 464 241 455 241 444 c 0
 241 443 241 443 241 442 c 8x8a
 239 414 236 398 230 370 c 24
 223 332 222 309 208 272 c 24
 204 259 191 255 183 244 c 24
 178 237 170 231 176 224 c 16
 183 215 192 210 203 210 c 0
 205 210 208 211 210 211 c 8
 230 214 239 225 254 237 c 24
 276 255 284 269 305 288 c 24
 335 315 356 327 385 355 c 24
 410 379 422 395 445 421 c 24
 459 437 461 450 478 465 c 24
 485 472 498 465 503 473 c 16
 508 479 511 486 511 493 c 0
 511 497 510 501 507 505 c 8
 496 517 482 516 465 518 c 16
 464 518 462 518 461 518 c 0
 450 518 442 515 431 511 c 0x46
227 578 m 24
 242 578 233 552 249 547 c 16
 254 545 260 545 265 545 c 0xaa
 281 545 294 551 312 552 c 8
 340 554 357 555 385 557 c 24
 422 560 442 564 480 565 c 16
 488 566 496 566 503 566 c 0
 515 566 525 565 538 560 c 8
 555 554 565 546 574 531 c 16
 579 522 581 515 581 507 c 0
 581 502 581 497 580 491 c 8
 577 477 572 470 562 459 c 24
 537 427 520 413 492 383 c 24
 470 359 459 345 434 322 c 24
 392 285 365 267 321 231 c 24
 289 204 271 188 239 160 c 24
 216 140 205 126 181 106 c 24
 168 95 158 92 147 80 c 24
 135 67 130 58 125 42 c 24
 117 18 116 4 110 -20 c 24
 104 -48 98 -65 94 -92 c 16x5a
 93 -95 93 -97 93 -100 c 0x62
 93 -107 95 -113 95 -120 c 0
 95 -123 94 -127 94 -130 c 8
 91 -144 87 -153 79 -165 c 24
 70 -178 63 -186 48 -192 c 24
 39 -197 29 -197 23 -191 c 24
 10 -179 10 -168 6 -151 c 16x52
 2 -134 -2 -122 -2 -107 c 0
 -2 -102 -2 -98 -1 -92 c 8
 5 -62 17 -47 30 -19 c 24
 40 3 46 14 57 35 c 24
 63 46 70 51 74 62 c 24
 76 68 75 73 72 80 c 24
 68 88 61 90 57 98 c 24
 55 104 53 108 57 113 c 24
 67 122 80 117 87 127 c 24
 98 145 95 159 103 178 c 24
 117 212 129 229 143 263 c 24
 148 278 149 287 152 303 c 24
 156 327 155 342 159 367 c 24
 161 380 165 386 168 400 c 24
 174 418 182 429 183 449 c 16
 183 450 183 451 183 452 c 0x6a
 183 462 180 469 174 478 c 8
 168 488 156 488 152 498 c 16
 150 504 148 510 148 515 c 0
 148 520 149 525 152 531 c 8
 157 540 165 541 174 547 c 24
 194 560 202 578 227 578 c 24
EndSplineSet
Validated: 1
EndChar

StartChar: n
Encoding: 110 110 44
Width: 433
VWidth: 0
Flags: HMW
LayerCount: 2
Back
Fore
SplineSet
29 33 m 24
 20 33 20 42 20 50 c 0
 20 57 22 64 23 73 c 0
 32 138 42 206 61 266 c 0
 71 299 87 333 102 374 c 0
 110 396 108 410 111 433 c 16
 113 443 109 467 122 467 c 2
 124 467 l 1
 130 466 147 474 150 469 c 0
 155 462 155 456 155 447 c 24
 155 436 151 431 148 421 c 24
 144 407 140 389 134 375 c 0
 129 363 128 365 123 352 c 24
 117 333 111 322 107 302 c 16
 105 290 96 257 96 249 c 0
 96 247 99 256 99 256 c 2
 100 256 101 257 103 259 c 8
 132 293 133 318 152 356 c 24
 165 381 170 396 185 420 c 24
 207 457 244 483 279 509 c 0
 293 519 307 533 329 533 c 0
 339 533 351 530 360 529 c 0
 382 526 398 518 408 501 c 24
 411 496 413 493 413 487 c 2
 413 457 l 2
 413 424 409 399 402 371 c 24
 397 354 391 344 386 327 c 24
 368 272 355 220 335 166 c 24
 331 157 329 151 326 142 c 24
 324 135 319 130 322 124 c 24
 324 120 331 122 335 124 c 24
 339 127 338 142 347 142 c 24
 352 142 356 138 354 134 c 24
 344 114 331 106 320 86 c 24
 312 73 310 65 306 51 c 24
 303 40 293 38 286 29 c 0
 280 22 271 23 260 26 c 24
 254 27 252 33 252 38 c 24
 252 55 256 64 261 81 c 24
 283 153 308 218 332 290 c 24
 346 327 359 364 368 406 c 16
 371 422 376 442 376 460 c 0
 376 471 374 481 370 489 c 8
 367 496 366 502 359 506 c 24
 353 509 346 508 339 506 c 24
 291 486 249 456 226 411 c 25
 200 375 182 338 162 299 c 24
 137 248 125 218 102 167 c 24
 93 147 89 134 79 114 c 24
 71 95 60 79 55 57 c 24
 53 49 55 43 49 37 c 24
 43 32 37 33 29 33 c 24
EndSplineSet
EndChar

StartChar: N
Encoding: 78 78 45
Width: 525
VWidth: 0
Flags: W
VStem: 0 46.4541<12.547 45.6707> 104.454 40<384.004 481.637> 238.454 34<199.668 490.33>
LayerCount: 2
Back
Fore
SplineSet
506.454101562 773 m 0
 511.454101562 781 528.454101562 779 536.454101562 769 c 0
 542.454101562 762 542.454101562 760 538.454101562 745 c 0
 533.454101562 726 527.454101562 708 523.454101562 703 c 0
 522.454101562 701 521.454101562 698 522.454101562 697 c 0
 523.454101562 695 523.454101562 693 521.454101562 692 c 0
 520.454101562 691 518.454101562 684 516.454101562 675 c 0
 515.454101562 667 513.454101562 659 512.454101562 657 c 0
 511.454101562 655 508.454101562 644 506.454101562 632 c 0
 502.454101562 608 494.454101562 582 490.454101562 573 c 0
 487.454101562 566 479.454101562 541 475.454101562 523 c 0
 469.454101562 498 468.454101562 494 465.454101562 491 c 0
 464.454101562 490 461.454101562 480 459.454101562 471 c 0
 457.454101562 461 454.454101562 452 453.454101562 450 c 0
 451.454101562 447 447.454101562 434 446.454101562 419 c 0
 445.454101562 415 443.454101562 409 441.454101562 407 c 0
 436.454101562 401 425.454101562 369 425.454101562 358 c 0
 425.454101562 353 423.454101562 345 421.454101562 340 c 0
 418.454101562 336 416.454101562 328 416.454101562 322 c 0
 416.454101562 317 414.454101562 308 411.454101562 302 c 0
 409.454101562 297 407.454101562 288 407.454101562 282 c 0
 407.454101562 276 405.454101562 271 403.454101562 270 c 0
 402.454101562 269 401.454101562 266 402.454101562 264 c 0
 403.454101562 262 402.454101562 260 401.454101562 260 c 0
 399.454101562 260 397.454101562 255 396.454101562 249 c 0
 394.454101562 238 391.454101562 224 373.454101562 154 c 0
 368.454101562 134 363.454101562 113 363.454101562 109 c 0
 363.454101562 104 362.454101562 100 361.454101562 100 c 0
 359.454101562 100 358.454101562 95 357.454101562 89 c 0
 356.513671875 61.7119140625 351.145507812 39.736328125 345.515625 39.736328125 c 0
 345.162109375 39.736328125 344.80859375 39.8232421875 344.454101562 40 c 0
 340.454101562 43 337.454101562 32 341.454101562 26 c 0
 344.454101562 22 344.454101562 19 338.454101562 14 c 0
 334.454101562 11 329.454101562 5 327.454101562 3 c 0
 325.454101562 -2 323.454101562 -2 318.454101562 0 c 0
 314.454101562 2 308.454101562 4 305.454101562 4 c 0
 298.896484375 4 279.174804688 25.9404296875 279.174804688 32.001953125 c 0
 279.174804688 32.41015625 279.264648438 32.7470703125 279.454101562 33 c 0
 279.454101562 34 278.454101562 41 275.454101562 49 c 0
 272.454101562 56 271.454101562 63 272.454101562 65 c 0
 273.454101562 66 273.454101562 68 271.454101562 68 c 0
 269.454101562 68 268.454101562 72 268.454101562 78 c 0
 268.454101562 83 266.454101562 89 264.454101562 90 c 0
 263.454101562 91 262.454101562 92 263.454101562 94 c 0
 263.454101562 95 262.454101562 115 258.454101562 139 c 0
 255.454101562 163 252.454101562 191 251.454101562 200 c 0
 250.454101562 210 247.454101562 235 244.454101562 257 c 0
 242.454101562 279 239.454101562 311 238.454101562 330 c 0
 236.454101562 375 234.454101562 393 232.454101562 396 c 0
 231.454101562 397 230.454101562 414 229.454101562 433 c 0
 228.454101562 452 225.454101562 475 223.454101562 484 c 0
 220.454101562 493 217.454101562 506 215.454101562 514 c 0
 210.454101562 534 199.454101562 568 195.454101562 578 c 0
 190.454101562 590 184.454101562 588 184.454101562 574 c 0
 184.454101562 568 183.454101562 560 181.454101562 556 c 0
 180.454101562 552 178.454101562 543 177.454101562 536 c 0
 176.454101562 529 173.454101562 515 170.454101562 506 c 0
 167.454101562 496 164.454101562 483 163.454101562 477 c 0
 161.454101562 470 158.454101562 459 155.454101562 452 c 0
 152.454101562 445 151.454101562 439 152.454101562 437 c 0
 153.454101562 436 151.454101562 434 149.454101562 433 c 0
 145.454101562 432 144.454101562 427 144.454101562 420 c 0
 144.454101562 413 142.454101562 407 139.454101562 405 c 0
 136.454101562 403 135.454101562 398 136.454101562 393 c 0
 137.454101562 389 136.454101562 384 135.454101562 384 c 0
 132.454101562 382 129.454101562 369 127.454101562 354 c 0
 127.454101562 349 126.454101562 344 125.454101562 343 c 0
 123.454101562 340 106.454101562 290 105.454101562 283 c 0
 104.454101562 281 103.454101562 271 101.454101562 262 c 0
 99.4541015625 253 97.4541015625 243 95.4541015625 241 c 0
 93.4541015625 239 91.4541015625 235 90.4541015625 231 c 0
 83.4541015625 200 77.4541015625 183 69.4541015625 168 c 0
 67.4541015625 165 66.4541015625 155 65.4541015625 144 c 0
 64.4541015625 133 60.4541015625 112 57.4541015625 97 c 0
 54.4541015625 82 51.4541015625 64 51.4541015625 58 c 0
 50.4541015625 51 49.4541015625 44 47.4541015625 42 c 0
 45.4541015625 40 45.4541015625 35 46.4541015625 31 c 0
 47.4541015625 23 41.4541015625 17 26.4541015625 13 c 0
 16.4541015625 10 13.4541015625 10 7.4541015625 14 c 0
 1.5439453125 16.955078125 0 18.2724609375 0 29.6474609375 c 0
 0 33.6689453125 0.193359375 38.947265625 0.4541015625 46 c 0
 1.4541015625 60 2.4541015625 74 3.4541015625 77 c 0
 4.4541015625 82 7.4541015625 94 11.4541015625 123 c 0
 15.4541015625 152 27.4541015625 186 42.4541015625 214 c 0
 44.4541015625 217 45.4541015625 222 45.4541015625 224 c 0
 45.4541015625 227 48.4541015625 236 51.4541015625 243 c 0
 55.4541015625 251 57.4541015625 258 56.4541015625 260 c 0
 54.4541015625 262 56.4541015625 266 59.4541015625 270 c 0
 61.4541015625 274 63.4541015625 279 62.4541015625 280 c 0
 61.4541015625 282 62.4541015625 283 63.4541015625 285 c 0
 65.4541015625 286 67.4541015625 289 67.4541015625 293 c 0
 67.4541015625 301 85.4541015625 371 93.4541015625 390 c 0
 95.4541015625 397 97.4541015625 406 97.4541015625 410 c 0
 97.4541015625 414 99.4541015625 417 101.454101562 417 c 0
 102.454101562 417 104.454101562 421 104.454101562 425 c 0
 104.454101562 430 106.454101562 437 108.454101562 442 c 0
 114.454101562 454 126.454101562 506 126.454101562 519 c 0
 125.454101562 525 127.454101562 530 128.454101562 530 c 0
 131.454101562 530 135.454101562 540 136.454101562 552 c 0
 137.454101562 565 147.454101562 598 152.454101562 603 c 0
 156.102539062 607.560546875 160.583984375 624.602539062 160.583984375 634.391601562 c 0
 160.583984375 635.333984375 160.541992188 636.209960938 160.454101562 637 c 0
 159.454101562 644 170.454101562 658 177.454101562 658 c 0
 182.454101562 658 205.454101562 638 211.454101562 628 c 0
 230.454101562 596 249.454101562 540 254.454101562 498 c 0
 255.454101562 490 257.454101562 477 258.454101562 471 c 0
 260.454101562 464 263.454101562 447 265.454101562 433 c 0
 266.454101562 418 269.454101562 402 270.454101562 397 c 0
 270.454101562 391 272.454101562 374 272.454101562 359 c 0
 273.454101562 317 280.454101562 251 283.454101562 240 c 0
 285.454101562 235 286.454101562 229 285.454101562 226 c 0
 284.454101562 224 285.454101562 214 288.454101562 203 c 0
 296.454101562 167 298.454101562 146 300.454101562 110 c 0
 300.454101562 100 302.454101562 89 304.454101562 86 c 0
 308.454101562 79 309.454101562 79 312.454101562 84 c 0
 315.454101562 87 319.454101562 98 322.454101562 108 c 0
 325.454101562 119 328.454101562 129 329.454101562 132 c 0
 331.454101562 135 333.454101562 143 334.454101562 150 c 0
 335.454101562 158 337.454101562 164 339.454101562 164 c 0
 341.454101562 164 344.454101562 181 345.454101562 196 c 0
 346.454101562 198 347.454101562 201 348.454101562 203 c 0
 349.454101562 205 351.454101562 212 353.454101562 220 c 0
 354.454101562 227 356.454101562 234 357.454101562 234 c 0
 359.454101562 234 360.454101562 236 360.454101562 240 c 0
 360.454101562 248 369.454101562 283 373.454101562 289 c 0
 374.454101562 292 376.454101562 301 378.454101562 310 c 0
 379.454101562 318 381.454101562 328 383.454101562 331 c 0
 385.454101562 334 388.454101562 345 390.454101562 356 c 0
 399.454101562 397 402.454101562 408 404.454101562 408 c 0
 406.454101562 408 407.454101562 412 407.454101562 417 c 0
 407.454101562 421 408.454101562 428 409.454101562 432 c 0
 411.454101562 436 413.454101562 440 413.454101562 442 c 0
 413.454101562 443 416.454101562 449 418.454101562 453 c 0
 420.454101562 458 424.454101562 472 427.454101562 483 c 0
 429.454101562 494 434.454101562 505 436.454101562 509 c 0
 438.454101562 512 441.454101562 521 442.454101562 528 c 0
 443.454101562 536 445.454101562 544 447.454101562 547 c 0
 452.454101562 558 456.454101562 567 458.454101562 577 c 0
 459.454101562 583 461.454101562 589 462.454101562 590 c 0
 463.454101562 592 465.454101562 601 466.454101562 610 c 0
 467.454101562 620 470.454101562 628 471.454101562 629 c 0
 473.454101562 629 475.454101562 634 475.454101562 640 c 0
 475.454101562 645 476.454101562 653 477.454101562 656 c 0
 479.454101562 660 482.454101562 671 484.454101562 682 c 0
 486.454101562 692 489.454101562 703 491.454101562 707 c 0
 494.454101562 710 497.454101562 725 499.454101562 740 c 0
 501.454101562 755 504.454101562 770 506.454101562 773 c 0
EndSplineSet
Validated: 1
EndChar

